<?xml version="1.0" encoding="UTF-8" standalone="no"?>
<!-- Created with Inkscape (http://www.inkscape.org/) -->

<svg
   xmlns:dc="http://purl.org/dc/elements/1.1/"
   xmlns:cc="http://creativecommons.org/ns#"
   xmlns:rdf="http://www.w3.org/1999/02/22-rdf-syntax-ns#"
   xmlns:svg="http://www.w3.org/2000/svg"
   xmlns="http://www.w3.org/2000/svg"
   xmlns:sodipodi="http://sodipodi.sourceforge.net/DTD/sodipodi-0.dtd"
   xmlns:inkscape="http://www.inkscape.org/namespaces/inkscape"
   width="297mm"
   height="210mm"
   viewBox="0 0 1052.3622 744.09448"
   id="svg2"
   version="1.1"
   inkscape:version="0.92.2 (5c3e80d, 2017-08-06)"
   sodipodi:docname="logos.svg">
  <sodipodi:namedview
     id="base"
     pagecolor="#ffffff"
     bordercolor="#666666"
     borderopacity="1.0"
     inkscape:pageopacity="0.0"
     inkscape:pageshadow="2"
     inkscape:zoom="0.91520635"
     inkscape:cx="339.88432"
     inkscape:cy="372.04724"
     inkscape:document-units="px"
     inkscape:current-layer="layer1"
     showgrid="false"
     inkscape:window-width="1600"
     inkscape:window-height="796"
     inkscape:window-x="-8"
     inkscape:window-y="-8"
     inkscape:window-maximized="1" />
  <defs
     id="defs4">
    <style
       id="style4389">.cls-1{fill:#394d54;}.cls-1,.cls-6,.cls-7,.cls-8{fill-rule:evenodd;}.cls-2{fill:#00a9d9;}.cls-3{fill:#24b7ea;}.cls-4{fill:#008ab7;}.cls-5{fill:#039ac5;}.cls-6{fill:#00abd2;}.cls-7{fill:#20c1ee;}.cls-10,.cls-8{fill:#d3ecf0;}.cls-9{fill:#bedadf;}</style>
    <clipPath
       id="clipPath4158"
       clipPathUnits="userSpaceOnUse">
      <path
         inkscape:connector-curvature="0"
         id="path4160-4"
         d="M 0,792 612,792 612,0 0,0 0,792 Z" />
    </clipPath>
    <filter
       style="color-interpolation-filters:sRGB;"
       inkscape:label="Lighting"
       id="filter5596">
      <feComponentTransfer
         in="blur"
         result="fbSourceGraphic"
         id="feComponentTransfer5598">
        <feFuncR
           type="gamma"
           amplitude="1.35417"
           exponent="1"
           offset="0"
           id="feFuncR5600" />
        <feFuncG
           type="gamma"
           amplitude="1.35417"
           exponent="1"
           offset="0"
           id="feFuncG5602" />
        <feFuncB
           type="gamma"
           amplitude="1.35417"
           exponent="1"
           offset="0"
           id="feFuncB5604" />
      </feComponentTransfer>
      <feColorMatrix
         result="fbSourceGraphicAlpha"
         in="fbSourceGraphic"
         values="0 0 0 -1 0 0 0 0 -1 0 0 0 0 -1 0 0 0 0 1 0"
         id="feColorMatrix5606" />
      <feComponentTransfer
         id="feComponentTransfer5608"
         in="blur"
         result="component">
        <feFuncR
           id="feFuncR5610"
           type="gamma"
           amplitude="1.35"
           exponent="1"
           offset="0" />
        <feFuncG
           id="feFuncG5612"
           type="gamma"
           amplitude="1.35"
           exponent="1"
           offset="0" />
        <feFuncB
           id="feFuncB5614"
           type="gamma"
           amplitude="1.35"
           exponent="1"
           offset="0" />
      </feComponentTransfer>
    </filter>
    <filter
       style="color-interpolation-filters:sRGB;"
       inkscape:label="Lighting"
       id="filter5616">
      <feComponentTransfer
         in="blur"
         result="component"
         id="feComponentTransfer5618">
        <feFuncR
           type="gamma"
           amplitude="1.35"
           exponent="1"
           offset="0"
           id="feFuncR5620" />
        <feFuncG
           type="gamma"
           amplitude="1.35"
           exponent="1"
           offset="0"
           id="feFuncG5622" />
        <feFuncB
           type="gamma"
           amplitude="1.35"
           exponent="1"
           offset="0"
           id="feFuncB5624" />
      </feComponentTransfer>
    </filter>
  </defs>
  <metadata
     id="metadata7">
    <rdf:RDF>
      <cc:Work
         rdf:about="">
        <dc:format>image/svg+xml</dc:format>
        <dc:type
           rdf:resource="http://purl.org/dc/dcmitype/StillImage" />
        <dc:title />
      </cc:Work>
    </rdf:RDF>
  </metadata>
  <g
     transform="translate(0,-308.26772)"
     id="layer1"
     inkscape:groupmode="layer"
     inkscape:label="Layer 1">
    <g
       id="g6542"
       transform="matrix(1.1025,0,0,1.1025,21.204913,-154.55481)"
       inkscape:export-filename="jenkins.png"
       inkscape:export-xdpi="90.005417"
       inkscape:export-ydpi="90.005417"
       style="fill:#f9f9f9">
      <path
         style="fill:#f9f9f9"
         inkscape:connector-curvature="0"
         d="m 206.87131,719.88133 c -2.47217,-0.57581 -3.70063,1.03472 -4.44994,2.70489 -0.6692,-0.16219 -0.40274,-1.07216 -0.23381,-1.53585 0.44258,-1.21693 2.22595,-2.83681 3.683,-2.61716 0.62696,0.0943 1.47555,0.66768 1.00075,1.44812 m 12.04604,2.81548 0.11734,0.004 c 0.55861,1.16076 1.04212,2.39031 1.74659,3.41479 -0.47175,1.09959 -3.57481,2.0727 -3.52713,0.0982 0.67094,-0.29324 1.82931,-0.0599 2.42427,-0.43453 -0.34374,-0.94393 -0.84009,-1.74767 -0.76107,-3.0828 m -10.78013,0.03 c 0.53009,0.9718 0.70272,1.9928 1.45617,2.72731 0.33939,0.33068 0.99923,0.73363 0.67203,1.65319 -0.0764,0.21682 -0.63502,0.70033 -0.95786,0.79524 -1.17796,0.34767 -3.9229,0.0718 -2.99334,-1.39696 0.97463,0.0455 2.28364,0.63263 3.01184,-0.0742 -0.55883,-0.89408 -1.55566,-2.66244 -1.18884,-3.70455 m 10.33777,9.87648 c -1.77357,1.13964 -3.75135,2.37834 -6.65761,2.09098 -0.62109,-0.53989 -0.85772,-1.74136 -0.25448,-2.53487 0.31413,0.53989 0.11668,1.53281 0.99182,1.68236 1.64906,0.28214 3.56849,-1.0088 4.75494,-1.46031 0.73516,-1.24 -0.0638,-1.69607 -0.72624,-2.49415 -1.35625,-1.63534 -3.17619,-3.6621 -3.11023,-6.1101 0.54859,-0.39752 0.59562,0.60694 0.67442,0.7898 0.70839,1.65755 2.49089,3.77791 3.79207,5.19665 0.31936,0.3494 0.84531,0.68465 0.90387,0.91563 0.16872,0.67225 -0.43887,1.47707 -0.36834,1.92401 m -23.38305,-1.19951 c -0.55577,-0.31741 -0.68836,-1.71502 -1.34101,-1.75464 -0.9324,-0.0568 -0.76238,1.81276 -0.75889,2.90625 -0.64178,-0.58255 -0.75476,-2.37747 -0.28323,-3.29898 -0.53771,-0.26385 -0.77783,0.29128 -1.07564,0.48677 0.38315,-2.78369 4.07224,-1.29094 3.45899,1.6606 m 24.51203,2.35874 c -0.82551,1.57156 -1.99346,3.30225 -4.41621,3.35254 -0.0492,-0.50746 -0.0871,-1.27984 0.003,-1.58571 1.85217,-0.17764 2.99551,-1.12027 4.41359,-1.76683 m -11.60673,1.01882 c 1.54499,0.81289 4.38485,0.89996 6.48519,0.83836 0.11255,0.46021 0.10994,1.02861 0.11429,1.58984 -2.69988,0.13453 -5.89175,-0.53336 -6.59948,-2.4282 m -0.2939,1.51518 c 1.06868,2.68289 4.74123,2.37398 7.83818,2.29996 -0.13627,0.34832 -0.43191,0.75977 -0.79916,0.90867 -0.9927,0.40383 -3.7298,0.71013 -5.10783,-0.0218 -0.87383,-0.46435 -1.43484,-1.51386 -1.91377,-2.12907 -0.23098,-0.29716 -1.38237,-1.05627 -0.0174,-1.05801"
         id="path4194" />
      <path
         style="fill:#f9f9f9"
         inkscape:connector-curvature="0"
         d="m 214.39057,766.77802 c -0.0601,1.4331 0.14085,3.73111 0.20812,5.23453 0.95308,10e-4 1.36126,-0.20834 2.07248,-0.44846 0.0803,-1.76879 -0.56014,-3.40522 -0.74453,-5.02031 -0.37661,-0.10036 -1.06737,0.26537 -1.53607,0.23424 z m -14.8343,-8.1497 c 0.62827,5.77528 1.53802,10.62992 3.20667,15.74406 3.70433,1.12462 8.1693,1.22259 11.44324,0.2079 -0.60084,-2.88644 -0.33852,-6.40051 -0.68966,-9.48092 -0.26494,-2.31521 -0.12975,-4.64457 -0.49287,-7.00658 -3.96709,-0.82507 -9.57431,-0.19266 -13.46738,0.53554 z m 14.405,-0.49875 c -0.0333,2.48001 0.11103,4.92649 0.30043,7.40997 0.95264,-0.14281 1.59898,-0.23838 2.48348,-0.43234 -0.28714,-2.39075 -0.25187,-5.08105 -0.83726,-7.19598 -0.67617,0.006 -1.272,-0.008 -1.94643,0.21835 z m 4.83179,-0.40012 c -0.45216,-0.10341 -0.97833,-0.004 -1.41024,0.004 0.20311,2.02197 0.69554,4.25336 0.86883,6.37547 0.67965,0.0211 1.04255,-0.29933 1.60159,-0.40709 0.0298,-1.86305 -0.16327,-4.4297 -1.06018,-5.97274 z m 7.31571,6.68416 c 1.41633,-0.34374 2.30671,-2.07857 1.91072,-3.86042 -0.26581,-1.19733 -0.7393,-3.4518 -1.2461,-4.21788 -0.37443,-0.56601 -1.38956,-1.30792 -2.20026,-0.78915 -1.31881,0.84467 -3.64207,1.08958 -4.60342,2.11166 0.4822,1.60552 0.63176,3.81079 0.83073,5.84517 1.64731,0.10297 3.67407,-0.45325 5.04426,0.13715 -0.95656,0.30956 -2.19765,0.31196 -3.02381,0.76346 0.67551,0.32611 2.25664,0.26037 3.28788,0.01 z m -13.17154,-8.61383 c -0.99488,-2.33959 -1.89854,-4.7643 -3.38388,-6.64956 -1.4392,0.96549 -3.02403,1.87307 -3.42851,3.62575 2.06006,1.16555 4.4617,2.31521 6.81239,3.02381 z m 2.45235,-7.24496 c -0.0943,2.33981 -0.36116,5.40912 -0.98486,7.24278 1.48774,-1.89396 2.68747,-4.09989 3.94141,-6.24747 -0.53445,-0.85816 -1.65167,-1.60617 -2.95655,-0.99552 z m -2.77999,-0.98791 c -0.56361,-0.0609 -1.04189,0.64787 -1.7751,0.34135 -0.16762,0.1857 -0.32023,0.38685 -0.49134,0.56819 1.61858,1.95057 2.35396,4.71793 3.60419,7.0105 0.67073,-2.20201 0.59344,-4.61431 0.74126,-7.01768 -0.92173,0.0581 -1.4331,-0.83378 -2.07901,-0.90236 z m -1.78751,-2.3594 c -0.0603,0.66812 0.0951,0.8869 0.22989,1.65254 2.19569,0.6864 1.81233,-3.01423 -0.22989,-1.65232 z m -2.43537,-0.79938 c -0.94611,-0.51703 -2.36789,-1.08043 -3.59004,-1.31337 -1.51496,-0.28997 -1.3728,2.0666 -1.30858,3.47205 0.0505,1.11331 0.62915,2.29018 0.8808,3.02926 0.11821,0.34527 0.14455,0.71165 0.43975,0.78022 0.5216,0.12148 2.2425,-0.56666 2.73319,-0.83421 1.0371,-0.56536 1.84171,-1.46336 2.72251,-2.06638 0.0115,-0.29346 0.0226,-0.5867 0.0344,-0.88015 -0.52966,-0.26341 -1.1416,-0.45107 -1.919,-0.48503 0.52726,-0.26559 1.30314,-0.26167 1.78381,-0.57733 0.004,-0.11756 0.009,-0.23446 0.0135,-0.35115 -0.87754,-0.067 -1.21192,-0.45781 -1.79034,-0.77391 z m -9.03791,-1.64209 c -0.78545,0.79743 2.20244,1.88395 3.15421,1.94273 -0.005,-0.50484 0.28736,-0.98007 0.22858,-1.3421 -1.13028,-0.19832 -2.61519,-0.0675 -3.38301,-0.60063 z m 9.67445,0.37444 c -0.004,0.0779 -0.10536,0.0496 -0.12191,0.1132 1.01034,0.78959 1.76095,0.95286 3.13615,0.88472 0.62021,-0.44998 1.17012,-0.97637 1.81581,-1.39805 -1.48666,0.1328 -3.35798,1.05627 -4.83005,0.40013 z m 8.87986,2.69291 c -0.0424,-0.88602 -0.27517,-2.70728 -0.82267,-3.02599 -1.14923,-0.67116 -3.19188,1.35408 -4.05722,1.66321 0.094,0.27081 0.24948,0.48546 0.26123,0.83204 0.51203,-0.12583 1.13529,-0.0398 1.57874,0.17851 -0.51267,0.0572 -1.08173,0.0535 -1.42091,0.29759 -0.12452,0.35942 0.0305,0.84924 -0.0522,1.34863 1.21736,0.34353 2.60801,0.52639 4.14712,0.57146 0.29912,-0.38968 0.40122,-1.13094 0.36574,-1.86567 z m -19.87638,-2.29605 c -0.24644,-0.1759 -1.91487,-2.34655 -2.14323,-2.25643 -3.01881,1.19059 -5.84146,3.24935 -8.36413,5.19621 2.40511,5.16051 3.37604,11.48287 3.54736,17.57642 2.75496,1.28877 5.17488,3.14638 8.91339,3.34013 -0.43278,-3.06082 -0.8279,-5.79161 -1.07324,-8.67327 -0.93937,-0.39621 -2.28691,0.0178 -3.16597,-0.123 -0.007,-1.05909 1.34275,-0.46413 1.45508,-1.17621 0.0847,-0.5388 -0.74299,-0.57951 -0.47349,-1.4281 0.68749,0.24992 1.04821,0.80135 1.78098,1.00881 0.66986,-1.4651 -0.009,-4.05743 0.0871,-5.28198 0.0183,-0.22989 0.11495,-1.27353 0.6298,-1.09066 0.45586,0.16196 -0.0259,2.77629 0.0239,3.93531 0.0455,1.0678 -0.1291,2.10077 0.30347,2.77128 3.61268,-0.492 7.28348,-0.80983 11.19223,-0.91694 -0.8599,-0.369 -1.88134,-0.71797 -3.00139,-1.34929 -0.60737,-0.34222 -2.52136,-1.05452 -2.69661,-1.6312 -0.2793,-0.9189 0.73342,-1.4085 0.90671,-2.19635 -1.82343,0.99488 -2.17936,-0.95307 -2.61062,-2.33284 -0.39077,-1.24979 -0.61347,-2.1835 -0.70926,-2.90429 -1.57068,-0.74888 -3.25022,-1.50734 -4.60211,-2.4676 z m 18.28088,-1.99388 c 2.51527,-1.21954 2.96852,4.55835 1.98257,6.41966 0.15239,0.55513 0.6766,0.7676 0.89038,1.26678 -1.40349,2.5144 -2.96242,4.86161 -4.39465,7.34619 1.06541,-0.66333 2.58711,-0.11865 3.84083,-0.61478 0.45825,-0.18134 0.7898,-1.23021 1.13681,-2.06943 0.95438,-2.30911 1.95601,-5.21994 2.40207,-7.42347 0.10058,-0.50179 0.37487,-1.59571 0.31348,-2.04265 -0.10972,-0.80003 -1.19515,-1.39326 -1.74723,-1.88787 -1.0173,-0.91389 -1.65776,-1.71762 -2.71904,-2.57208 -0.42995,0.63458 -1.35342,1.06127 -1.70522,1.57765 z M 192.2743,719.23844 c -1.19886,1.31837 -0.94785,3.78967 -0.80265,5.54757 2.16652,-1.36322 5.04165,0.10732 5.01444,2.42558 1.03427,-0.0276 0.38641,-1.29203 0.19941,-2.10644 -0.6113,-2.66025 1.03014,-5.5504 0.0745,-7.98316 -1.85543,0.14085 -3.37975,0.89865 -4.48565,2.11645 z m 8.57552,-7.65358 c -2.71294,0.76891 -6.19043,2.74037 -7.30526,5.17793 0.86339,-0.12561 1.46249,-0.56101 2.31412,-0.61478 0.32219,-0.0209 0.74366,0.13475 1.11352,0.0429 0.73712,-0.18287 1.35908,-1.83562 1.9153,-2.45062 0.54207,-0.60062 1.19385,-0.85729 1.63991,-1.4048 0.28627,-0.13824 0.70991,-0.12844 0.72624,-0.55883 -0.12431,-0.13279 -0.25514,-0.23402 -0.40383,-0.19179 z m 14.12396,0.72319 c -2.81613,-1.58853 -7.58304,-2.78369 -10.57855,-1.29072 -2.41709,1.2056 -5.6845,3.19949 -6.79867,5.7263 1.04059,2.43886 -0.30826,4.67308 -0.39425,7.14873 -0.0457,1.31707 0.62022,2.46716 0.67116,3.90113 -0.35637,0.58779 -1.44399,0.66006 -2.19722,0.61979 -0.2534,-1.26852 -0.69706,-2.69444 -2.00368,-2.83768 -1.84846,-0.20224 -3.19971,1.32773 -3.28396,2.9265 -0.0995,1.88003 1.44399,4.99614 3.63163,4.77997 0.84466,-0.0836 1.05277,-0.93065 1.9732,-0.92195 0.49896,0.99575 -0.76978,1.30836 -0.9004,2.02045 -0.034,0.18395 0.10536,0.90301 0.18613,1.24022 0.3973,1.64144 1.28311,3.76616 2.15499,5.01617 1.10633,1.58571 3.28069,1.82431 5.61963,1.97974 0.41754,-0.89996 1.95644,-0.82572 2.95915,-0.59018 -1.20169,-0.4761 -2.31891,-1.62989 -3.24477,-2.65111 -1.06345,-1.17164 -2.14062,-2.42863 -2.19504,-3.96013 2.00978,2.78805 3.67037,5.22343 7.32463,6.4495 2.76541,0.9276 5.99494,-0.42495 8.11923,-1.91704 0.88167,-0.62022 1.40806,-1.60421 2.03459,-2.50483 2.3446,-3.37299 3.43896,-8.18758 3.19862,-12.85348 -0.0991,-1.92466 -0.0949,-3.84235 -0.74038,-5.137 -0.67486,-1.35407 -2.95742,-2.56512 -4.29364,-1.34058 -0.24752,-1.31641 1.11113,-2.13103 2.70706,-1.65689 -1.13768,-1.46945 -2.33197,-3.2341 -3.94946,-4.14691 z m 5.24672,43.42163 c 2.2007,-1.09393 6.31234,-2.94457 7.6921,0.004 0.5092,1.08696 1.10634,2.92411 1.37019,4.04633 0.37226,1.58266 -0.40383,4.90994 -2.03112,5.44112 -1.4368,0.46914 -3.11372,0.44084 -4.84462,0.0927 -0.20377,-0.16958 -0.43083,-0.465 -0.58953,-0.77304 -1.23586,-0.0479 -2.39336,0.0666 -3.36973,0.5745 0.0925,0.91389 -0.52574,1.06062 -1.10525,1.24893 -0.42973,1.7037 0.85969,3.929 0.55099,5.48248 -0.22009,1.10677 -1.58178,1.27788 -2.58275,1.48491 -0.0327,0.615 0.044,1.12854 0.11211,1.64884 -0.22858,0.84336 -1.25524,1.32338 -2.22813,1.44094 -3.19949,0.38423 -8.05827,0.5573 -11.13585,-0.54969 -0.85881,-2.10687 -1.53563,-4.6696 -2.25099,-7.07472 -3.00182,0.32067 -5.4298,-1.29529 -7.71844,-2.35374 -0.79242,-0.36747 -1.88896,-0.56993 -2.18459,-1.20059 -0.28714,-0.61108 -0.1698,-1.7812 -0.24099,-2.8871 -0.18113,-2.82353 -0.33634,-5.54736 -1.08195,-8.43859 -0.33483,-1.29748 -0.91868,-2.44256 -1.32578,-3.69258 -0.37618,-1.15858 -1.03341,-2.59059 -1.20517,-3.74591 -0.25406,-1.71241 1.35821,-1.80776 2.38922,-2.54989 1.5942,-1.14726 2.8453,-1.78206 4.57142,-2.81765 0.51138,-0.30695 2.05288,-1.08304 2.22835,-1.44072 0.34853,-0.70882 -0.59845,-1.70827 -0.85163,-2.26405 -0.40056,-0.87862 -0.60934,-1.6251 -0.66681,-2.49241 -1.44812,-0.22858 -2.54575,-1.09066 -3.20885,-2.06224 -1.09697,-1.60813 -1.85783,-4.58361 -0.90867,-6.84701 0.0745,-0.17808 0.44584,-0.52857 0.5007,-0.80221 0.10777,-0.53902 -0.20354,-1.25612 -0.2227,-1.82931 -0.0997,-2.94152 0.49766,-5.47595 2.47782,-6.36328 0.80396,-3.20276 3.68126,-4.26752 6.39224,-5.8591 1.01338,-0.59497 2.13039,-0.97507 3.28418,-1.39958 4.13842,-1.523 10.48777,-1.2363 13.92259,1.36148 1.45639,1.10155 3.78423,3.42742 4.61692,5.11131 2.19939,4.44537 2.04308,11.87537 0.50506,17.28297 -0.20682,0.72623 -0.5068,1.79338 -0.92565,2.6657 -0.29193,0.60889 -1.19951,1.82756 -1.08936,2.36527 0.11342,0.55578 2.06943,2.04091 2.4885,2.44518 0.75541,0.72841 2.19003,1.69542 2.30606,2.61475 0.12496,0.97812 -0.43104,2.3163 -0.71296,3.26067 -0.94067,3.15051 -1.85935,6.06264 -2.92693,8.87115"
         id="path4206" />
    </g>
    <g
       transform="matrix(10.869564,0,0,-10.869564,587.40237,371.00984)"
       id="g4170"
       style="fill:#000000" />
    <g
       transform="matrix(10.869564,0,0,-10.869564,708.29693,371.00984)"
       id="g4174"
       style="fill:#000000" />
    <g
       transform="matrix(10.869564,0,0,-10.869564,894.53169,295.97289)"
       id="g4178"
       style="fill:#000000" />
    <g
       transform="matrix(10.869564,0,0,-10.869564,916.73712,245.94572)"
       id="g4182"
       style="fill:#000000" />
    <g
       inkscape:export-ydpi="90.005417"
       inkscape:export-xdpi="90.005417"
       inkscape:export-filename="puppet.png"
       transform="matrix(0.24155286,0,0,0.24155286,135.78001,619.8095)"
       id="g4940"
       style="fill:#f9f9f9">
      <path
         d="m 270.57197,154.23812 -66.69564,0 0,66.69565 66.69564,0 0,-66.69565 z"
         style="fill:#f9f9f9;fill-opacity:1;fill-rule:nonzero;stroke:none"
         id="path4186-8"
         inkscape:connector-curvature="0" />
      <path
         d="m 166.35459,279.29246 -20.84782,0 0,-20.84783 20.84782,0 0,20.84783 z m 25.01087,-45.84782 -70.86956,0 0,70.86955 70.86956,0 0,-70.86955 z"
         style="fill:#f9f9f9;fill-opacity:1;fill-rule:nonzero;stroke:none"
         id="path4188-6"
         inkscape:connector-curvature="0" />
      <g
         style="fill:#f9f9f9"
         id="g4190"
         transform="matrix(10.869564,0,0,-10.869564,205.31981,171.16856)">
        <path
           d="M 0,0 -3.874,3.874 -2.378,5.37 1.496,1.496 0,0 Z"
           style="fill:#f9f9f9;fill-opacity:1;fill-rule:nonzero;stroke:none"
           id="path4192-3"
           inkscape:connector-curvature="0" />
      </g>
      <g
         style="fill:#f9f9f9"
         id="g4194"
         transform="matrix(10.869564,0,0,-10.869564,190.69046,249.64246)">
        <path
           d="M 0,0 -1.496,1.496 1.57,4.562 3.066,3.066 0,0 Z"
           style="fill:#f9f9f9;fill-opacity:1;fill-rule:nonzero;stroke:none"
           id="path4196-3"
           inkscape:connector-curvature="0" />
      </g>
      <path
         d="m 166.35459,116.71639 -20.84782,0 0,-20.847825 20.84782,0 0,20.847825 z m 25.01087,-45.858692 -70.86956,0 0,70.869562 70.86956,0 0,-70.869562 z"
         style="fill:#f9f9f9;fill-opacity:1;fill-rule:nonzero;stroke:none"
         id="path4198-0"
         inkscape:connector-curvature="0" />
    </g>
    <g
       inkscape:export-ydpi="90.005417"
       inkscape:export-xdpi="90.005417"
       inkscape:export-filename="docker.png"
       transform="matrix(0.46364118,0,0,0.46364118,868.09547,793.60741)"
       id="g5002"
       style="fill:#f9f9f9">
      <path
         style="fill:#f9f9f9;fill-rule:evenodd;stroke:none;stroke-width:1"
         inkscape:connector-curvature="0"
         d="m -906.0666,-292.01796 22.86594,0 0,23.37473 11.56177,0 c 5.33905,0 10.83073,-0.95117 15.887,-2.66444 2.48448,-0.84244 5.27317,-2.01479 7.72392,-3.4892 -3.22785,-4.21436 -4.87579,-9.53574 -5.36101,-14.78106 -0.65874,-7.13426 0.78032,-16.42042 5.60897,-22.00422 l 2.40362,-2.78011 2.8642,2.30239 c 7.21138,5.79374 13.27612,13.88934 14.3451,23.11819 8.68312,-2.55411 18.87759,-1.94999 26.53135,2.46735 l 3.14002,1.81182 -1.65276,3.2257 c -6.47283,12.63291 -20.00495,16.54628 -33.23501,15.85379 -19.79715,49.30839 -62.89781,72.65259 -115.15715,72.65259 -26.9989,0 -51.76986,-10.09272 -65.87556,-34.04693 l -0.2314,-0.39096 -2.0549,-4.18116 c -4.7682,-10.5442 -6.3518,-22.09526 -5.2775,-33.63668 l 0.3224,-3.45707 19.553,0 0,-23.37473 22.86538,0 0,-22.86648 45.73295,0 0,-22.86594 27.43967,0 0,45.73242"
         id="path4776" />
      <path
         style="fill:#f9f9f9;fill-rule:evenodd;stroke:none;stroke-width:1"
         inkscape:connector-curvature="0"
         d="m -831.98406,-283.37073 c 1.53332,-11.91525 -7.38383,-21.27478 -12.91407,-25.71836 -6.37269,7.36776 -7.36295,26.67755 2.63498,34.80743 -5.57952,4.95612 -17.33731,9.44844 -29.37574,9.44844 l -146.54501,0 c -1.1707,12.56702 1.0358,24.13951 6.0744,34.04532 l 1.6672,3.04897 c 1.0556,1.79146 2.2087,3.52027 3.4549,5.1848 l 6e-4,0 c 6.0245,0.38668 11.57941,0.52057 16.66139,0.4081 l 0.002,0 c 9.98721,-0.22119 18.13583,-1.39943 24.31196,-3.53955 0.91957,-0.31973 1.92161,0.16817 2.23974,1.08666 0.31759,0.9185 -0.16871,1.92108 -1.0872,2.23974 -0.82102,0.28438 -1.67739,0.55056 -2.56161,0.80334 -10e-4,5.4e-4 -0.002,5.4e-4 -0.003,10e-4 -4.86293,1.38818 -10.07719,2.32274 -16.80549,2.7378 0.399,0.006 -0.41613,0.06 -0.41827,0.0605 -0.22869,0.0139 -0.51682,0.0466 -0.74658,0.0594 -2.64783,0.14835 -5.50614,0.17941 -8.42819,0.17941 -3.19571,0 -6.34325,-0.0605 -9.86185,-0.23886 l -0.09,0.0594 c 12.21033,13.72385 31.30214,21.95494 55.23333,21.95494 50.64836,0 93.6087,-22.45194 112.63196,-72.8577 13.49677,1.38497 26.46762,-2.05657 32.36794,-13.57443 -9.39863,-5.42366 -21.48419,-3.69433 -28.44332,-0.19655"
         id="path4778" />
      <path
         style="fill:#f9f9f9;fill-rule:evenodd;stroke:none;stroke-width:1"
         inkscape:connector-curvature="0"
         d="m -831.98406,-283.37073 c 1.53332,-11.91525 -7.38383,-21.27478 -12.91407,-25.71836 -6.37269,7.36776 -7.36295,26.67755 2.63498,34.80743 -5.57952,4.95612 -17.33731,9.44844 -29.37574,9.44844 l -137.86721,0 c -0.5983,19.24605 6.544,33.85519 19.18069,42.68719 l 0.002,0 c 9.98721,-0.22119 18.13583,-1.39943 24.31196,-3.53955 0.91957,-0.31973 1.92161,0.16817 2.23974,1.08666 0.31759,0.9185 -0.16871,1.92108 -1.0872,2.23974 -0.82102,0.28438 -1.67739,0.55056 -2.56161,0.80334 -10e-4,5.4e-4 -0.002,5.4e-4 -0.003,10e-4 -4.86293,1.38818 -10.52545,2.44271 -17.25375,2.85777 -0.002,0 -0.16282,-0.15585 -0.16496,-0.15531 17.23662,8.84164 42.23036,8.81004 70.88522,-2.19743 32.13068,-12.34316 62.02859,-35.85981 82.89044,-62.75695 -0.31491,0.14192 -0.62125,0.2876 -0.91742,0.43595"
         id="path4780" />
      <path
         style="fill:#f9f9f9;fill-rule:evenodd;stroke:none;stroke-width:1"
         inkscape:connector-curvature="0"
         d="m -1017.9097,-249.56427 c 0.911,6.73151 2.8798,13.03458 5.8002,18.77637 l 1.6672,3.04897 c 1.0556,1.79146 2.2087,3.52027 3.4555,5.1848 6.0256,0.38668 11.58102,0.52057 16.66353,0.4081 9.98721,-0.22119 18.13583,-1.39943 24.31197,-3.53955 0.91956,-0.31973 1.9216,0.16817 2.23973,1.08666 0.31759,0.9185 -0.16871,1.92108 -1.0872,2.23974 -0.82102,0.28438 -1.67739,0.55056 -2.56161,0.80334 -10e-4,5.4e-4 -0.002,5.4e-4 -0.003,10e-4 -4.86293,1.38818 -10.49546,2.38272 -17.22376,2.79832 -0.23083,0.0139 -0.63358,0.0166 -0.86655,0.0295 -2.64676,0.14889 -5.47561,0.23939 -8.39819,0.23939 -3.19518,0 -6.46262,-0.061 -9.98082,-0.23939 12.20984,13.72385 31.42109,21.98493 55.35227,21.98493 43.35986,0 81.08398,-16.4579 102.97894,-52.82222 l -172.34801,0"
         id="path4782" />
      <path
         style="fill:#f9f9f9;fill-rule:evenodd;stroke:none;stroke-width:1"
         inkscape:connector-curvature="0"
         d="m -1008.187,-249.56427 c 2.5921,11.81938 8.82125,21.09858 17.86373,27.41824 9.98721,-0.22119 18.13583,-1.39943 24.31197,-3.53955 0.91956,-0.31973 1.9216,0.16817 2.23973,1.08666 0.31759,0.9185 -0.16871,1.92108 -1.0872,2.23974 -0.82102,0.28438 -1.67739,0.55056 -2.56161,0.80334 -10e-4,5.4e-4 -0.002,5.4e-4 -0.003,10e-4 -4.86293,1.38818 -10.61489,2.38272 -17.34319,2.79832 17.23554,8.84003 42.15698,8.71311 70.8097,-2.29329 17.33409,-6.65975 34.01694,-16.57412 48.98437,-28.51454 l -143.2143,0"
         id="path4784" />
      <path
         style="fill:#f9f9f9;fill-rule:evenodd;stroke:none;stroke-width:1"
         inkscape:connector-curvature="0"
         d="m -998.29355,-288.20742 19.81697,0 0,19.81804 -19.81697,0 0,-19.81804 z m 1.65061,1.65168 1.56385,0 0,16.51575 -1.56385,0 0,-16.51575 z m 2.94025,0 1.62651,0 0,16.51575 -1.62651,0 0,-16.51575 z m 3.00185,0 1.62651,0 0,16.51575 -1.62651,0 0,-16.51575 z m 3.00344,0 1.62651,0 0,16.51575 -1.62651,0 0,-16.51575 z m 3.00291,0 1.62652,0 0,16.51575 -1.62652,0 0,-16.51575 z m 3.00238,0 1.56492,0 0,16.51575 -1.56492,0 0,-16.51575 z"
         id="path4786" />
      <path
         style="fill:#f9f9f9;fill-rule:evenodd;stroke:none;stroke-width:1"
         inkscape:connector-curvature="0"
         d="m -975.42868,-311.07336 19.81912,0 0,19.81697 -19.81912,0 0,-19.81697 z m 1.65276,1.65168 1.56277,0 0,16.51415 -1.56277,0 0,-16.51415 z m 2.94025,0 1.62544,0 0,16.51415 -1.62544,0 0,-16.51415 z m 3.0013,0 1.62651,0 0,16.51415 -1.62651,0 0,-16.51415 z m 3.00292,0 1.6265,0 0,16.51415 -1.6265,0 0,-16.51415 z m 3.00344,0 1.62651,0 0,16.51415 -1.62651,0 0,-16.51415 z m 3.00184,0 1.566,0 0,16.51415 -1.566,0 0,-16.51415 z"
         id="path4788" />
      <path
         style="fill:#f9f9f9;fill-rule:evenodd;stroke:none;stroke-width:1"
         inkscape:connector-curvature="0"
         d="m -975.42868,-288.20742 19.81912,0 0,19.81804 -19.81912,0 0,-19.81804 z m 1.65276,1.65168 1.56277,0 0,16.51575 -1.56277,0 0,-16.51575 z m 2.94025,0 1.62544,0 0,16.51575 -1.62544,0 0,-16.51575 z m 3.0013,0 1.62651,0 0,16.51575 -1.62651,0 0,-16.51575 z m 3.00292,0 1.6265,0 0,16.51575 -1.6265,0 0,-16.51575 z m 3.00344,0 1.62651,0 0,16.51575 -1.62651,0 0,-16.51575 z m 3.00184,0 1.566,0 0,16.51575 -1.566,0 0,-16.51575 z"
         id="path4790" />
      <path
         style="fill:#f9f9f9;fill-rule:evenodd;stroke:none;stroke-width:1"
         inkscape:connector-curvature="0"
         d="m -952.56166,-288.20742 19.81804,0 0,19.81804 -19.81804,0 0,-19.81804 z m 1.65168,1.65168 1.56278,0 0,16.51575 -1.56278,0 0,-16.51575 z m 2.93971,0 1.62651,0 0,16.51575 -1.62651,0 0,-16.51575 z m 3.00291,0 1.62652,0 0,16.51575 -1.62652,0 0,-16.51575 z m 3.00292,0 1.62651,0 0,16.51575 -1.62651,0 0,-16.51575 z m 3.00237,0 1.62758,0 0,16.51575 -1.62758,0 0,-16.51575 z m 3.00292,0 1.56385,0 0,16.51575 -1.56385,0 0,-16.51575 z"
         id="path4792" />
      <path
         style="fill:#f9f9f9;fill-rule:evenodd;stroke:none;stroke-width:1"
         inkscape:connector-curvature="0"
         d="m -952.56166,-311.07336 19.81804,0 0,19.81697 -19.81804,0 0,-19.81697 z m 1.65168,1.65168 1.56278,0 0,16.51415 -1.56278,0 0,-16.51415 z m 2.93971,0 1.62651,0 0,16.51415 -1.62651,0 0,-16.51415 z m 3.00291,0 1.62652,0 0,16.51415 -1.62652,0 0,-16.51415 z m 3.00292,0 1.62651,0 0,16.51415 -1.62651,0 0,-16.51415 z m 3.00237,0 1.62758,0 0,16.51415 -1.62758,0 0,-16.51415 z m 3.00292,0 1.56385,0 0,16.51415 -1.56385,0 0,-16.51415 z"
         id="path4794" />
      <path
         style="fill:#f9f9f9;fill-rule:evenodd;stroke:none;stroke-width:1"
         inkscape:connector-curvature="0"
         d="m -929.69519,-288.20742 19.81751,0 0,19.81804 -19.81751,0 0,-19.81804 z m 1.65168,1.65168 1.56332,0 0,16.51575 -1.56332,0 0,-16.51575 z m 2.94026,0 1.62651,0 0,16.51575 -1.62651,0 0,-16.51575 z m 3.00184,0 1.62651,0 0,16.51575 -1.62651,0 0,-16.51575 z m 3.00344,0 1.62651,0 0,16.51575 -1.62651,0 0,-16.51575 z m 3.00292,0 1.62651,0 0,16.51575 -1.62651,0 0,-16.51575 z m 3.00237,0 1.56439,0 0,16.51575 -1.56439,0 0,-16.51575 z"
         id="path4796" />
      <path
         style="fill:#f9f9f9;fill-rule:evenodd;stroke:none;stroke-width:1"
         inkscape:connector-curvature="0"
         d="m -929.69519,-311.07336 19.81751,0 0,19.81697 -19.81751,0 0,-19.81697 z m 1.65168,1.65168 1.56332,0 0,16.51415 -1.56332,0 0,-16.51415 z m 2.94026,0 1.62651,0 0,16.51415 -1.62651,0 0,-16.51415 z m 3.00184,0 1.62651,0 0,16.51415 -1.62651,0 0,-16.51415 z m 3.00344,0 1.62651,0 0,16.51415 -1.62651,0 0,-16.51415 z m 3.00292,0 1.62651,0 0,16.51415 -1.62651,0 0,-16.51415 z m 3.00237,0 1.56439,0 0,16.51415 -1.56439,0 0,-16.51415 z"
         id="path4798" />
      <path
         style="fill:#f9f9f9;fill-rule:evenodd;stroke:none;stroke-width:1"
         inkscape:connector-curvature="0"
         d="m -929.69519,-333.93984 19.81751,0 0,19.81805 -19.81751,0 0,-19.81805 z m 1.65168,1.65061 1.56332,0 0,16.51575 -1.56332,0 0,-16.51575 z m 2.94026,0 1.62651,0 0,16.51575 -1.62651,0 0,-16.51575 z m 3.00184,0 1.62651,0 0,16.51575 -1.62651,0 0,-16.51575 z m 3.00344,0 1.62651,0 0,16.51575 -1.62651,0 0,-16.51575 z m 3.00292,0 1.62651,0 0,16.51575 -1.62651,0 0,-16.51575 z m 3.00237,0 1.56439,0 0,16.51575 -1.56439,0 0,-16.51575 z"
         id="path4800" />
      <path
         style="fill:#f9f9f9;fill-rule:evenodd;stroke:none;stroke-width:1"
         inkscape:connector-curvature="0"
         d="m -906.82925,-288.20742 19.81805,0 0,19.81804 -19.81805,0 0,-19.81804 z m 1.65061,1.65168 1.56492,0 0,16.51575 -1.56492,0 0,-16.51575 z m 2.94026,0 1.62651,0 0,16.51575 -1.62651,0 0,-16.51575 z m 3.00344,0 1.62651,0 0,16.51575 -1.62651,0 0,-16.51575 z m 3.00184,0 1.62652,0 0,16.51575 -1.62652,0 0,-16.51575 z m 3.00399,0 1.62597,0 0,16.51575 -1.62597,0 0,-16.51575 z m 3.00237,0 1.56385,0 0,16.51575 -1.56385,0 0,-16.51575 z"
         id="path4802" />
      <path
         style="fill:#f9f9f9;fill-rule:evenodd;stroke:none;stroke-width:1"
         inkscape:connector-curvature="0"
         d="m -956.85047,-236.2587 c 3.01898,0 5.46651,2.44861 5.46651,5.46758 0,3.01898 -2.44753,5.46651 -5.46651,5.46651 -3.01951,0 -5.46758,-2.44753 -5.46758,-5.46651 0,-3.01897 2.44807,-5.46758 5.46758,-5.46758"
         id="path4804" />
      <path
         style="fill:#f9f9f9;fill-rule:evenodd;stroke:none;stroke-width:1"
         inkscape:connector-curvature="0"
         d="m -956.85047,-234.7077 c 0.50022,0 0.97741,0.0943 1.41764,0.2651 -0.47719,0.27582 -0.80013,0.79264 -0.80013,1.3839 0,0.88261 0.71551,1.59706 1.59812,1.59706 0.60466,0 1.13005,-0.3358 1.40158,-0.83174 0.19173,0.4622 0.29831,0.96991 0.29831,1.50226 0,2.16208 -1.75291,3.91498 -3.91552,3.91498 -2.16207,0 -3.91605,-1.7529 -3.91605,-3.91498 0,-2.16314 1.75398,-3.91658 3.91605,-3.91658"
         id="path4806" />
      <path
         style="fill:#f9f9f9;fill-rule:evenodd;stroke:none;stroke-width:1"
         inkscape:connector-curvature="0"
         d="m -1053.5542,-247.58804 254.32743,0 c -5.53774,-1.40478 -17.521,-3.30229 -15.54477,-10.55973 -10.06915,11.65175 -34.35274,8.17433 -40.4812,2.42879 -6.82471,9.89831 -46.55451,6.13596 -49.32553,-1.5751 -8.55565,10.04077 -35.06718,10.04077 -43.62336,0 -2.77209,7.71106 -42.50136,11.47341 -49.3266,1.5751 -6.12847,5.74554 -30.40987,9.22296 -40.48017,-2.42879 1.9763,7.25744 -10.007,9.15495 -15.5458,10.55973"
         id="path4808" />
      <path
         style="fill:#f9f9f9;fill-rule:evenodd;stroke:none;stroke-width:1"
         inkscape:connector-curvature="0"
         d="m -942.31684,-196.86041 c -13.53962,-6.42517 -20.97165,-15.15916 -25.10675,-24.69435 -5.02895,1.43584 -11.07495,2.35327 -18.09941,2.74744 -2.64623,0.14835 -5.42956,0.2244 -8.35107,0.2244 -3.36763,0 -6.91633,-0.0996 -10.64163,-0.29723 12.4165,12.40903 27.69188,21.96351 55.97506,22.1381 2.08816,0 4.16134,-0.0407 6.2238,-0.11836"
         id="path4810" />
      <path
         style="fill:#f9f9f9;fill-rule:evenodd;stroke:none;stroke-width:1"
         inkscape:connector-curvature="0"
         d="m -962.3941,-212.75651 c -1.87341,-2.54286 -3.69058,-5.73857 -5.02628,-8.79933 -5.03002,1.43639 -11.07708,2.35435 -18.10262,2.74852 4.82544,2.61945 11.72726,5.04663 23.1289,6.05081"
         id="path4812" />
    </g>
    <g
       style="fill:#f9f9f9"
       inkscape:export-ydpi="90.005417"
       inkscape:export-xdpi="90.005417"
       inkscape:export-filename="java.png"
       transform="matrix(0.43737772,0,0,0.43737772,123.09996,326.55778)"
       id="g4316">
      <path
         inkscape:connector-curvature="0"
         style="fill:#f9f9f9"
         d="m 444.09319,823.13572 c 0,0 -6.78129,3.94355 4.82602,5.278 14.06193,1.60421 21.24882,1.37415 36.74516,-1.55877 0,0 4.07413,2.55459 9.76395,4.76719 -34.7387,14.88842 -78.62053,-0.86237 -51.33513,-8.48642"
         id="path4258" />
      <path
         inkscape:connector-curvature="0"
         style="fill:#f9f9f9"
         d="m 439.84831,803.7073 c 0,0 -7.60588,5.63003 4.01004,6.83151 15.02139,1.54968 26.88411,1.67643 47.41118,-2.27621 0,0 2.83917,2.87839 7.30359,4.45246 -42.00116,12.28171 -88.7829,0.96855 -58.72481,-9.00776"
         id="path4260" />
      <path
         inkscape:connector-curvature="0"
         style="fill:#f9f9f9"
         d="m 475.634,770.75025 c 8.55961,9.85483 -2.24895,18.72293 -2.24895,18.72293 0,0 21.73429,-11.21989 11.75271,-25.26986 -9.32248,-13.10247 -16.47158,-19.61256 22.23077,-42.05856 0,0 -60.74993,15.17253 -31.73453,48.60549"
         id="path4262" />
      <path
         inkscape:connector-curvature="0"
         style="fill:#f9f9f9"
         d="m 521.57873,837.50615 c 0,0 5.01829,4.13487 -5.52672,7.33372 -20.05164,6.07437 -83.45707,7.90864 -101.07084,0.24202 -6.33169,-2.75451 5.54203,-6.57706 9.27705,-7.37916 3.89525,-0.84468 6.12125,-0.68732 6.12125,-0.68732 -7.04149,-4.96041 -45.5133,9.74004 -19.54178,13.95001 70.82812,11.4863 129.1129,-5.1723 110.74104,-13.45927"
         id="path4264" />
      <path
         inkscape:connector-curvature="0"
         style="fill:#f9f9f9"
         d="m 447.35422,783.57721 c 0,0 -32.25204,7.66041 -11.42125,10.44218 8.7954,1.17757 26.32881,0.91116 42.66074,-0.45725 13.34735,-1.12591 26.74971,-3.51979 26.74971,-3.51979 0,0 -4.70644,2.01555 -8.11144,4.34055 -32.75138,8.61365 -96.02097,4.60648 -77.80647,-4.20423 15.40403,-7.44613 27.92871,-6.60146 27.92871,-6.60146"
         id="path4266" />
      <path
         inkscape:connector-curvature="0"
         style="fill:#f9f9f9"
         d="m 505.21045,815.91678 c 33.29329,-17.30048 17.89978,-33.92608 7.15532,-31.68621 -2.6335,0.54813 -3.80772,1.02308 -3.80772,1.02308 0,0 0.97764,-1.53151 2.84491,-2.19443 21.25599,-7.47291 37.60322,22.0404 -6.86165,33.7295 0,4.7e-4 0.51513,-0.46013 0.66914,-0.87194"
         id="path4268" />
      <path
         inkscape:connector-curvature="0"
         style="fill:#f9f9f9"
         d="m 485.13776,685.90038 c 0,0 18.43835,18.44456 -17.48797,46.80709 -28.80925,22.75163 -6.5694,35.72399 -0.012,50.54546 -16.81644,-15.17254 -29.15746,-28.52898 -20.87814,-40.95991 12.15209,-18.24751 45.81749,-27.09457 38.37806,-56.39264"
         id="path4270" />
      <path
         inkscape:connector-curvature="0"
         style="fill:#f9f9f9"
         d="m 450.62577,862.79705 c 31.95741,2.04568 81.03163,-1.135 82.19389,-16.25635 0,0 -2.23412,5.73238 -26.41108,10.28481 -27.27631,5.13309 -60.9178,4.53378 -80.87091,1.24406 4.7e-4,-4.8e-4 4.08465,3.3806 25.0881,4.72748"
         id="path4272" />
    </g>
    <path
       inkscape:connector-curvature="0"
       inkscape:export-ydpi="90.005417"
       inkscape:export-xdpi="90.005417"
       inkscape:export-filename="ansible.png"
       id="path4270-0"
       d="m 101.61328,633.8607 c -16.043984,0 -29.051543,13.00756 -29.051543,29.05155 0,16.04513 13.007558,29.05155 29.051543,29.05155 16.0456,0 29.05155,-13.00642 29.05155,-29.05155 0,-16.04399 -13.00619,-29.05155 -29.05155,-29.05155 z m 0.48965,13.05756 c 0.80117,0 1.46068,0.42465 1.79088,1.22717 l 11.56441,27.83041 c 0.12755,0.34045 0.19798,0.6574 0.19798,0.85691 0,1.22544 -0.9906,2.07501 -2.12336,2.07501 -0.56548,0 -1.00067,-0.22122 -1.60349,-0.70879 l -14.993515,-12.11301 -5.025042,12.58603 -4.341939,0 12.693326,-30.52656 c 0.33022,-0.80252 1.03798,-1.22717 1.84075,-1.22717 z m 0,6.22803 -3.83867,9.6103 11.35585,8.94382 -7.51718,-18.55412 z"
       style="fill:#f9f9f9" />
    <text
       xml:space="preserve"
       style="font-style:normal;font-weight:normal;line-height:0%;font-family:sans-serif;text-align:center;letter-spacing:0px;word-spacing:0px;text-anchor:middle;fill:#000000;fill-opacity:1;stroke:none;stroke-width:1px;stroke-linecap:butt;stroke-linejoin:miter;stroke-opacity:1"
       x="304.32367"
       y="760.93506"
       id="text6546"
       inkscape:export-filename="ea.png"
       inkscape:export-xdpi="300"
       inkscape:export-ydpi="300"><tspan
         sodipodi:role="line"
         id="tspan6548"
         x="304.32367"
         y="760.93506"
         style="font-style:normal;font-variant:normal;font-weight:normal;font-stretch:normal;font-size:88.64733124px;line-height:1.25;font-family:'Arciform Sans';-inkscape-font-specification:'Arciform Sans';fill:#f9f9f9">ea</tspan></text>
  </g>
  <style
     type="text/css"
     id="style4854">
	.st0{fill:url(#SVGID_1_);}
</style>
</svg>
