<?xml version="1.0" standalone="no"?>
<!DOCTYPE svg PUBLIC "-//W3C//DTD SVG 20010904//EN"
 "http://www.w3.org/TR/2001/REC-SVG-20010904/DTD/svg10.dtd">
<svg version="1.0" xmlns="http://www.w3.org/2000/svg"
 width="512.000000pt" height="512.000000pt" viewBox="0 0 512.000000 512.000000"
 preserveAspectRatio="xMidYMid meet">
<metadata>
Created by potrace 1.11, written by Peter Selinger 2001-2013
</metadata>
<g transform="translate(0.000000,512.000000) scale(0.100000,-0.100000)"
fill="#000000" stroke="none">
<path d="M1182 3789 c-224 -47 -431 -163 -581 -326 -35 -37 -82 -88 -104 -113
-23 -25 -31 -36 -18 -25 l25 20 -26 -35 c-14 -19 -29 -45 -33 -57 -3 -13 -11
-23 -17 -23 -6 0 -7 5 -2 13 5 7 1 5 -8 -5 -9 -11 -19 -19 -22 -18 -20 1 -26
-1 -23 -11 1 -6 -4 -14 -12 -17 -9 -3 -11 0 -6 8 6 9 4 11 -4 6 -7 -5 -10 -10
-7 -13 6 -7 -26 -43 -34 -38 -4 2 -6 -6 -5 -18 1 -12 -2 -25 -8 -28 -5 -4 6
-6 24 -5 29 2 34 5 31 25 -2 20 0 22 13 11 9 -7 15 -8 15 -2 0 18 -24 20 -44
3 -16 -13 -18 -14 -14 -1 2 8 19 24 36 35 17 11 31 25 32 31 0 12 30 15 30 2
0 -4 -5 -8 -11 -8 -5 0 -7 -4 -4 -10 3 -5 -1 -10 -9 -10 -8 0 -18 -4 -21 -10
-3 -6 1 -7 10 -4 13 5 14 2 5 -22 -6 -16 -16 -34 -22 -41 -6 -7 -7 -13 -3 -13
4 0 2 -7 -5 -15 -7 -8 -10 -15 -7 -15 3 0 -4 -11 -16 -24 -20 -23 -23 -24 -40
-8 -17 15 -17 15 -11 -4 7 -17 6 -18 -10 -5 -16 14 -16 16 -2 27 9 6 16 15 16
19 0 4 -7 1 -16 -6 -15 -12 -16 -11 -10 8 4 12 2 24 -3 28 -7 3 -8 0 -5 -9 4
-9 1 -16 -6 -16 -9 0 -10 -3 -1 -13 11 -14 5 -27 -11 -27 -5 0 -6 5 -3 10 3 6
1 10 -5 10 -7 0 -10 -6 -7 -14 3 -8 -1 -17 -9 -20 -8 -3 -13 -13 -13 -23 1
-17 2 -17 6 0 3 11 11 16 19 13 8 -3 13 -2 10 3 -3 5 1 11 9 15 18 6 19 2 4
-26 -8 -15 -8 -19 0 -13 14 8 43 -13 35 -26 -3 -5 0 -9 6 -9 7 0 10 6 7 14 -3
8 -3 16 1 18 4 2 18 17 31 33 l24 30 -8 -30 c-27 -113 -37 -185 -39 -290 -3
-134 11 -239 50 -360 97 -306 336 -566 627 -685 161 -65 287 -87 479 -84 150
2 196 8 337 47 29 8 62 12 72 10 11 -3 19 0 19 6 0 7 -6 9 -12 5 -10 -6 -10
-4 0 7 9 10 15 10 24 1 14 -14 -8 -45 -26 -35 -6 3 -2 -3 8 -15 11 -12 15 -22
9 -22 -15 0 -44 36 -36 45 5 4 -3 2 -17 -6 -14 -7 -29 -12 -33 -11 -5 1 0 -11
9 -27 15 -25 21 -28 32 -18 13 10 14 8 8 -10 -8 -25 10 -41 27 -24 9 9 8 11
-5 6 -11 -4 -18 -2 -18 4 0 6 5 11 12 11 6 0 3 9 -7 20 -10 11 -13 20 -7 20 6
0 13 -4 17 -9 10 -17 43 -9 37 9 -5 13 -4 13 13 0 12 -10 16 -10 11 -2 -10 16
12 44 28 35 6 -3 3 3 -7 14 -9 11 -16 22 -15 24 2 2 -2 -1 -8 -8 -6 -7 -14
-10 -17 -6 -10 10 -8 23 3 23 6 0 28 11 49 24 25 16 43 21 52 15 11 -7 10 -11
-6 -23 -12 -8 -24 -11 -30 -6 -6 5 -17 5 -25 0 -11 -7 -12 -10 -2 -10 7 0 11
-4 8 -9 -3 -5 1 -14 9 -21 10 -9 15 -9 15 -1 0 6 -5 11 -11 11 -5 0 -7 5 -4
10 4 6 10 8 15 5 5 -3 24 8 42 25 18 16 26 28 17 24 -10 -3 -20 -1 -24 5 -3 6
1 11 9 11 9 0 16 3 16 8 0 10 51 32 61 26 5 -3 6 3 2 12 -5 14 -3 16 11 11 11
-4 15 -3 11 4 -4 5 2 18 12 27 52 47 72 165 39 233 -30 63 -106 125 -164 133
-9 2 -17 7 -19 12 -4 13 15 40 23 31 4 -3 1 -15 -7 -24 -7 -10 -10 -15 -5 -11
4 4 19 3 32 -2 19 -8 22 -6 17 8 -6 15 -5 15 10 3 11 -9 17 -10 17 -2 0 6 -4
11 -10 11 -19 0 -10 26 10 27 11 1 18 -2 15 -8 -3 -5 -2 -15 2 -22 6 -10 12
-9 26 5 9 10 13 18 9 18 -4 0 -13 -5 -20 -12 -8 -8 -12 -8 -12 -1 0 20 29 36
43 24 11 -8 19 -5 38 16 13 14 18 23 10 18 -11 -6 -13 -4 -8 8 3 9 2 19 -3 22
-6 4 -10 9 -10 13 0 8 7 9 62 14 44 5 41 15 -4 15 -24 0 -50 -6 -60 -14 -14
-13 -17 -12 -26 3 -9 17 -11 17 -28 -1 -18 -18 -18 -18 -1 -12 40 15 76 -34
53 -72 -7 -12 -12 -11 -23 4 -7 11 -13 24 -13 29 0 6 7 3 15 -8 13 -18 14 -18
12 2 0 11 -5 18 -9 16 -4 -3 -8 0 -8 5 0 6 -5 11 -11 11 -5 0 -8 -4 -5 -9 3
-5 -2 -15 -11 -22 -14 -12 -15 -11 -9 9 5 14 3 22 -4 22 -6 0 -9 -4 -6 -9 3
-5 -2 -15 -11 -22 -14 -12 -15 -11 -10 11 4 14 4 19 1 12 -3 -6 -10 -10 -15
-7 -5 4 -6 0 -3 -8 3 -8 -1 -19 -9 -26 -11 -9 -17 -8 -27 4 -7 8 -16 15 -21
15 -5 0 5 -13 22 -28 19 -17 29 -34 25 -40 -10 -16 -27 -15 -20 1 2 7 -4 22
-16 32 -11 10 -20 14 -20 9 0 -5 -5 -2 -11 6 -9 12 -10 12 -5 -3 4 -12 2 -17
-6 -14 -7 2 -12 13 -11 23 1 10 0 13 -3 6 -3 -6 -10 -9 -15 -6 -6 3 -16 0 -24
-6 -18 -15 -20 1 -2 20 10 12 9 12 -6 0 -10 -7 -16 -19 -13 -27 7 -19 -9 -16
-30 5 -17 16 -18 16 -11 -1 4 -10 7 -21 7 -23 0 -3 4 -3 9 0 5 3 9 -6 9 -19 0
-14 -6 -25 -12 -26 -6 0 -19 -2 -29 -4 -12 -2 -17 1 -13 10 3 9 0 12 -10 8
-25 -9 4 -32 33 -27 36 7 45 14 39 30 -3 7 7 23 22 34 l27 22 22 -29 c33 -41
29 -51 -17 -48 -22 2 -37 -1 -34 -6 3 -5 1 -9 -5 -9 -5 0 -16 -6 -24 -14 -19
-19 -120 -69 -192 -95 -183 -65 -407 -61 -562 10 -51 24 -125 71 -158 102 -21
19 -29 57 -12 57 5 0 7 -9 4 -19 -3 -15 -1 -18 11 -14 11 5 13 3 7 -8 -4 -8
-5 -11 0 -7 4 4 15 2 24 -5 9 -6 3 3 -12 21 -15 19 -27 38 -27 44 0 6 -3 8 -7
5 -3 -4 -12 -2 -18 3 -9 8 -14 6 -18 -4 -4 -10 -1 -13 7 -10 7 3 13 -2 13 -11
0 -8 -4 -15 -7 -15 -15 0 -30 28 -24 46 4 15 4 16 -4 5 -8 -12 -15 -9 -36 15
-30 34 -96 155 -96 176 0 12 108 14 745 14 665 0 745 -2 746 -16 1 -8 2 -22 3
-30 1 -8 -4 -25 -11 -37 -8 -14 -9 -23 -3 -23 5 0 10 5 10 11 0 5 4 7 10 4 6
-4 7 1 4 12 -5 16 -4 17 8 2 12 -15 15 -14 26 9 9 20 9 23 0 14 -14 -14 -32
-16 -23 -2 3 5 1 18 -5 29 -7 13 -7 22 0 26 5 3 10 -1 10 -9 0 -21 17 -29 36
-18 11 6 13 11 5 16 -6 4 -11 2 -11 -3 0 -6 -4 -11 -10 -11 -15 0 -12 27 3 27
6 0 20 4 30 8 10 4 17 3 17 -5 0 -6 -5 -8 -12 -4 -8 5 -8 1 2 -12 22 -29 24
-30 17 -12 -3 10 -2 20 4 23 5 4 7 10 4 15 -3 5 4 11 15 15 21 7 75 55 62 55
-4 0 -1 4 6 9 24 15 40 95 36 182 -22 454 -272 806 -692 973 -188 75 -433 96
-630 55z m276 -100 c316 -10 629 -193 789 -462 80 -132 124 -279 138 -452 8
-92 -2 -126 -42 -152 -25 -17 -73 -18 -809 -19 -583 -1 -790 -4 -811 -13 -36
-15 -65 -62 -65 -105 0 -104 149 -323 287 -421 153 -108 285 -149 480 -148
190 1 330 42 527 154 35 19 39 20 70 5 42 -20 69 -63 62 -102 -7 -45 -85 -109
-198 -164 -149 -72 -240 -93 -416 -94 -176 -1 -246 7 -353 41 -415 130 -696
512 -695 941 0 332 151 625 418 814 115 81 273 148 385 164 28 3 73 10 100 13
28 4 52 6 55 5 3 -1 38 -4 78 -5z m-1108 -569 c0 -5 -4 -10 -10 -10 -5 0 -10
5 -10 10 0 6 5 10 10 10 6 0 10 -4 10 -10z m-51 -126 c-9 -11 -15 -11 -25 -3
-19 15 -18 17 11 17 21 0 23 -3 14 -14z m1830 -720 c-9 -11 -15 -11 -25 -3 -8
6 -14 7 -14 2 0 -5 -9 -9 -21 -10 -15 -1 -18 1 -10 10 5 7 26 13 46 14 29 0
33 -2 24 -13z m-125 -28 c-3 -9 -10 -13 -16 -10 -5 3 -4 12 3 20 15 18 22 13
13 -10z m-73 -606 c-13 -11 -28 -20 -35 -20 -6 1 0 10 13 20 13 11 28 20 35
20 6 -1 0 -10 -13 -20z m-84 -30 c-1 -20 -8 -25 -20 -14 -7 8 3 34 13 34 5 0
8 -9 7 -20z"/>
<path d="M1261 3479 c-242 -47 -448 -204 -559 -424 -46 -92 -54 -130 -36 -174
10 -25 27 -45 52 -58 36 -19 55 -20 688 -18 694 1 696 1 728 50 25 38 26 75 6
136 -78 230 -264 400 -515 472 -78 22 -287 31 -364 16z m303 -125 c142 -28
285 -116 372 -229 34 -43 82 -134 94 -175 l7 -26 -168 0 c-129 0 -169 3 -169
13 0 16 -39 52 -69 64 -14 6 -21 15 -18 23 3 8 -4 22 -16 33 l-22 18 19 -22
c11 -13 17 -23 13 -23 -3 0 -13 -3 -23 -7 -11 -4 -15 -3 -11 4 4 6 4 18 1 27
-5 13 -9 14 -20 5 -15 -12 -19 0 -6 16 4 6 3 7 -2 3 -19 -15 -28 -8 -15 10 11
14 10 14 -8 -2 -19 -15 -25 -16 -38 -6 -8 7 -15 17 -15 22 0 6 7 5 15 -2 13
-11 18 -11 28 1 7 7 8 10 3 6 -5 -4 -19 -1 -31 7 -21 14 -22 13 -21 -17 1 -18
5 -38 9 -44 8 -13 1 -33 -11 -33 -8 0 -11 19 -13 79 -1 28 -3 31 -11 17 -5
-10 -17 -15 -26 -12 -22 7 -49 -9 -33 -18 6 -4 11 -2 11 3 0 6 5 11 11 11 6 0
9 -6 6 -13 -3 -7 8 -28 24 -47 27 -33 29 -34 46 -18 13 14 15 20 5 30 -20 20
-13 32 8 13 11 -10 17 -22 14 -26 -3 -5 0 -9 6 -9 7 0 9 8 4 22 -6 20 -5 21 9
9 9 -7 14 -17 11 -22 -3 -5 -1 -9 5 -9 5 0 24 -12 41 -26 25 -22 30 -32 26
-53 l-6 -26 14 25 c13 22 12 26 -5 38 -10 7 -19 18 -19 24 0 6 8 4 18 -5 10
-10 24 -17 30 -17 15 0 15 -6 2 -31 -7 -13 -7 -19 0 -19 5 0 10 7 10 15 0 8 4
15 8 15 11 0 32 -22 32 -34 0 -13 -894 -16 -906 -4 -4 4 -1 14 6 23 7 8 9 15
5 15 -5 0 -1 8 8 18 10 10 14 22 10 25 -3 4 -2 7 4 7 6 0 14 11 17 25 4 14 11
23 16 20 5 -3 12 6 16 20 3 14 18 34 31 45 14 11 22 20 17 20 -5 0 15 22 43
49 92 88 240 156 363 168 30 3 56 6 57 7 7 6 126 -7 187 -20z m-126 -271 c0
-10 2 -27 6 -38 5 -15 4 -14 -5 3 -7 12 -16 22 -22 22 -5 0 -4 7 3 15 16 19
19 19 18 -2z m132 -43 c0 -5 -4 -10 -10 -10 -5 0 -10 5 -10 10 0 6 5 10 10 10
6 0 10 -4 10 -10z"/>
<path d="M1107 3193 c-4 -3 -20 -7 -35 -8 -15 -1 -33 -5 -40 -9 -7 -4 -17 -4
-23 -1 -6 4 -21 -3 -35 -16 -25 -23 -34 -14 -11 11 6 8 2 6 -11 -5 -24 -19
-24 -20 -3 -29 12 -5 21 -15 21 -23 0 -17 -16 -17 -23 1 -3 8 -15 14 -26 13
-15 -1 -17 -5 -11 -18 9 -16 4 -29 -11 -29 -5 0 -6 8 -3 18 5 14 4 14 -4 2 -6
-8 -8 -18 -6 -22 3 -4 0 -8 -7 -8 -7 0 -9 -3 -6 -6 4 -4 18 1 32 10 31 20 34
3 3 -18 -12 -9 -17 -16 -11 -16 11 0 43 27 43 36 0 3 -5 14 -10 25 -13 23 -2
25 15 2 16 -21 38 -7 31 20 -5 22 9 47 26 47 7 0 7 -4 0 -12 -5 -7 -9 -27 -7
-45 1 -18 -1 -30 -4 -28 -4 2 -18 -6 -31 -16 l-25 -20 25 12 c14 7 30 12 37
11 7 -2 11 12 10 40 -1 25 3 43 11 46 8 2 10 -3 6 -15 -5 -15 -4 -15 5 -3 5 8
13 11 17 7 4 -4 0 -15 -8 -24 -22 -25 -20 -55 3 -43 20 11 20 67 0 79 -8 6 -9
11 -3 15 17 10 40 -32 36 -65 -4 -29 -3 -29 16 -11 13 12 18 26 14 38 -5 18
-5 18 10 0 9 -11 16 -15 16 -9 0 7 -4 15 -10 18 -5 3 -10 12 -10 18 1 7 9 2
19 -10 13 -16 21 -19 29 -11 8 8 11 5 9 -11 -1 -12 -6 -20 -12 -17 -6 2 -11
-4 -11 -13 0 -9 8 -17 17 -17 11 0 15 8 13 24 -1 14 2 22 9 19 7 -2 11 -13 9
-23 -2 -11 1 -15 5 -9 5 6 11 12 15 15 4 3 -9 19 -29 35 -20 16 -33 23 -28 15
5 -8 3 -11 -6 -8 -8 3 -13 14 -11 24 2 16 1 17 -7 4 -10 -13 -15 -7 -12 13 1
9 -4 9 -12 0z m-8 -35 c-9 -17 -13 -18 -20 -7 -13 21 -11 25 11 26 17 2 19 -1
9 -19z m1 -38 c0 -5 -4 -10 -10 -10 -5 0 -10 5 -10 10 0 6 5 10 10 10 6 0 10
-4 10 -10z m-50 -20 c0 -5 -4 -10 -10 -10 -5 0 -10 5 -10 10 0 6 5 10 10 10 6
0 10 -4 10 -10z"/>
<path d="M1154 3188 c-4 -7 -4 -10 0 -7 8 8 86 -65 86 -80 0 -6 -8 -7 -17 -4
-15 6 -16 5 -3 -9 8 -9 17 -12 18 -7 2 5 8 7 13 4 5 -4 6 0 4 7 -7 18 40 62
55 53 9 -6 9 -2 0 15 -6 12 -18 19 -25 16 -8 -3 -16 0 -19 7 -3 7 -4 3 -3 -7
1 -10 -4 -21 -12 -24 -9 -3 -11 0 -6 9 6 11 5 12 -6 2 -7 -7 -18 -13 -23 -13
-6 1 -1 9 11 19 l22 19 -32 -2 c-18 -2 -37 1 -44 6 -7 6 -14 4 -19 -4z m56
-18 c0 -5 -4 -10 -10 -10 -5 0 -10 5 -10 10 0 6 5 10 10 10 6 0 10 -4 10 -10z
m65 -30 c-21 -22 -31 -27 -37 -18 -12 20 -9 32 5 20 10 -8 16 -6 25 9 7 10 17
19 24 19 6 0 -1 -14 -17 -30z"/>
<path d="M1328 3163 c6 -3 10 -9 6 -14 -3 -5 0 -9 5 -9 6 0 11 5 11 10 0 6 5
10 11 10 5 0 7 -5 4 -10 -4 -6 -9 -22 -11 -36 -4 -22 -3 -24 9 -12 8 7 13 25
12 38 -1 20 -7 25 -31 26 -16 1 -23 0 -16 -3z"/>
<path d="M1390 3141 c0 -4 9 -12 20 -19 12 -7 20 -8 20 -2 0 5 -5 10 -11 10
-5 0 -8 4 -5 8 3 5 -1 9 -9 9 -8 0 -15 -3 -15 -6z"/>
<path d="M1283 3115 c-15 -17 -17 -29 -4 -20 5 3 17 -5 26 -17 l17 -23 -7 25
c-5 23 -5 23 8 8 12 -16 14 -14 14 12 0 17 -4 30 -9 30 -5 0 -7 -4 -4 -9 3 -5
-1 -12 -10 -15 -24 -9 -28 -7 -14 9 16 19 -1 19 -17 0z"/>
<path d="M1106 3094 c-11 -8 -16 -14 -10 -14 13 0 39 18 34 24 -3 2 -14 -2
-24 -10z"/>
<path d="M1346 3064 c-5 -14 -4 -15 9 -4 14 12 19 7 16 -13 -1 -5 3 -6 9 -2 6
4 19 1 28 -5 9 -7 4 -1 -11 14 -33 30 -42 32 -51 10z"/>
<path d="M860 3040 c0 -5 5 -10 10 -10 6 0 10 5 10 10 0 6 -4 10 -10 10 -5 0
-10 -4 -10 -10z"/>
<path d="M836 3013 c-6 -14 -5 -15 5 -6 7 7 10 15 7 18 -3 3 -9 -2 -12 -12z"/>
<path d="M1630 3020 c0 -6 7 -10 15 -10 8 0 15 2 15 4 0 2 -7 6 -15 10 -8 3
-15 1 -15 -4z"/>
<path d="M1486 3011 c-3 -5 1 -14 8 -20 10 -9 16 -9 21 -1 4 6 3 10 -2 9 -20
-3 -27 2 -13 11 9 6 10 10 3 10 -6 0 -14 -4 -17 -9z"/>
<path d="M1532 2995 c9 -19 14 -22 25 -14 17 14 17 -2 1 -21 -11 -13 -11 -13
2 -2 20 17 35 15 20 -3 -7 -9 -8 -15 -2 -15 5 0 12 6 15 14 7 18 -23 45 -42
38 -8 -2 -11 0 -7 6 3 5 -1 12 -9 15 -12 5 -12 2 -3 -18z"/>
<path d="M3887 3797 c-262 -23 -495 -135 -687 -327 -94 -95 -113 -117 -123
-144 -5 -12 -13 -16 -24 -12 -10 4 -14 4 -10 0 4 -4 -1 -13 -11 -21 -15 -13
-14 -13 8 -3 25 11 25 11 4 -7 -11 -10 -19 -24 -16 -31 5 -16 -15 -16 -22 1
-3 6 -4 3 -1 -9 3 -12 3 -29 -1 -38 -8 -20 -31 -21 -31 -1 0 9 6 14 13 11 7
-3 10 2 7 15 -6 21 -25 27 -20 7 1 -7 -4 -12 -12 -10 -11 2 -12 0 -3 -11 9
-10 9 -16 0 -25 -19 -19 -32 -14 -17 6 13 15 12 16 -4 3 -16 -13 -16 -15 -1
-32 19 -21 6 -26 -15 -6 -11 10 -12 9 -6 -2 6 -11 4 -13 -8 -8 -10 4 -16 2
-14 -6 1 -7 -4 -11 -11 -9 -8 1 -10 -2 -7 -8 5 -8 15 -6 32 5 24 16 25 16 18
-4 -6 -20 -4 -19 19 4 26 26 34 41 16 30 -5 -3 -10 -2 -10 3 0 14 11 21 25 16
14 -6 8 -44 -7 -44 -5 0 -6 -5 -2 -12 4 -6 3 -8 -4 -4 -6 3 -13 2 -17 -4 -3
-5 -1 -10 5 -10 8 0 9 -7 5 -17 -11 -26 -43 -143 -50 -183 -20 -106 -23 -146
-20 -255 5 -174 39 -316 112 -460 153 -301 438 -512 783 -580 71 -14 344 -14
420 0 148 27 285 84 384 160 26 20 49 35 50 33 1 -2 11 -25 21 -53 20 -55 90
-131 130 -141 14 -3 25 -9 25 -13 0 -4 25 -8 55 -8 33 0 52 4 48 10 -3 6 -1 7
4 4 6 -4 27 5 48 18 20 14 33 20 30 13 -4 -7 1 -4 10 7 9 11 21 19 26 17 6 -1
8 1 5 6 -3 5 4 27 14 48 20 37 20 59 20 569 -1 429 -4 545 -16 609 -47 246
-150 443 -315 606 -224 221 -527 326 -852 297z m228 -122 c107 -12 179 -33
281 -80 305 -140 517 -444 550 -788 9 -96 11 -984 2 -1020 -8 -32 -28 -54 -60
-66 -49 -18 -128 42 -128 98 0 57 -64 120 -117 115 -13 -1 -29 -2 -37 -3 -7 0
-35 -18 -62 -40 -145 -115 -323 -172 -537 -172 -126 -1 -177 6 -295 36 -273
72 -503 263 -621 517 -59 127 -83 230 -87 383 -4 155 7 228 53 367 66 201 207
379 398 503 133 86 278 138 425 151 36 4 66 7 67 8 4 4 102 -2 168 -9z"/>
<path d="M3885 3480 c-229 -32 -457 -187 -579 -396 -181 -310 -136 -683 115
-935 263 -265 691 -312 994 -109 163 109 271 263 320 455 28 106 26 296 -3
400 -97 345 -382 579 -717 589 -44 1 -103 -1 -130 -4z m231 -125 c235 -50 409
-210 490 -450 34 -100 42 -271 18 -375 -19 -81 -83 -212 -130 -265 -20 -22
-33 -34 -29 -27 3 6 1 12 -4 12 -6 0 -11 -9 -11 -20 0 -11 -12 -27 -27 -37
-16 -10 -31 -22 -35 -28 -5 -6 -8 -6 -8 0 0 5 -6 0 -14 -11 -21 -29 -131 -81
-218 -103 -87 -22 -242 -20 -330 3 -288 77 -493 323 -502 602 -2 43 1 98 6
123 5 25 10 55 12 66 7 36 47 130 59 137 7 4 8 8 4 8 -4 0 -3 9 3 20 8 15 17
19 34 14 13 -3 27 -1 31 5 3 6 11 8 17 5 7 -5 8 -2 3 6 -6 10 -4 12 8 7 12 -4
14 -2 10 11 -6 15 -5 15 10 3 9 -7 17 -9 17 -5 0 5 -8 14 -18 21 -11 7 -19 24
-20 42 -1 26 9 39 65 85 97 80 229 144 333 159 57 8 171 4 226 -8z m-634 -244
c-10 -6 -10 -10 3 -21 14 -12 13 -15 -6 -37 -25 -25 -44 -29 -55 -11 -5 7 -2
9 8 5 22 -8 50 24 38 43 -10 16 -4 30 13 30 8 0 8 -3 -1 -9z m-25 -45 c-16
-18 -31 -8 -16 10 6 7 15 11 20 8 5 -3 3 -11 -4 -18z"/>
<path d="M3686 3178 c5 -14 1 -16 -20 -12 l-26 4 22 -22 c13 -13 28 -22 34
-20 6 1 11 -4 11 -12 0 -22 -34 -14 -48 11 -9 18 -15 20 -26 12 -10 -9 -13 -7
-11 12 2 19 -1 23 -17 21 -11 -2 -25 -4 -32 -4 -7 -1 -10 -5 -7 -10 3 -4 0 -8
-5 -8 -6 0 -11 6 -11 13 0 6 -5 4 -11 -5 -5 -10 -15 -18 -21 -18 -6 0 -5 7 3
18 13 15 12 16 -3 3 -12 -9 -15 -18 -9 -30 5 -9 6 -21 4 -28 -2 -6 1 -14 7
-18 7 -4 9 2 6 20 -3 17 -1 25 7 22 6 -2 12 -17 12 -34 0 -17 3 -34 6 -38 4
-3 5 8 3 25 -3 27 8 41 19 23 2 -5 2 -2 1 5 -2 6 0 12 4 12 13 0 52 -31 48
-38 -2 -4 6 -7 19 -7 13 0 21 3 18 8 -2 4 -10 7 -18 7 -8 0 -13 9 -12 20 1 11
6 18 12 16 5 -2 9 -9 8 -15 -3 -10 10 -15 30 -12 4 0 7 -3 7 -8 0 -4 17 -7 38
-6 20 1 43 -2 50 -8 8 -6 12 -6 12 1 0 13 -26 23 -44 16 -14 -5 -30 11 -31 31
0 6 -8 9 -18 9 -17 -2 -22 7 -10 19 3 4 17 0 30 -8 13 -9 23 -11 23 -5 0 5 -5
10 -12 10 -6 0 -3 9 7 20 10 11 13 20 7 20 -7 0 -12 -6 -12 -12 0 -9 -4 -8
-11 2 -9 13 -10 12 -5 -2 3 -10 3 -18 -1 -18 -3 0 -12 8 -19 18 -13 15 -13 15
-8 0z m-66 -14 c0 -4 -8 -13 -17 -21 -10 -8 -13 -12 -7 -9 7 3 18 -2 25 -11
12 -15 12 -16 -6 -8 -11 4 -31 8 -44 9 -13 1 -26 7 -29 14 -2 7 2 10 10 7 7
-3 22 1 33 9 21 16 35 20 35 10z"/>
<path d="M3759 3185 c-1 -5 -3 -21 -4 -34 -1 -13 -9 -27 -16 -32 -8 -5 -9 -9
-3 -9 6 0 19 10 28 23 12 15 16 17 12 5 -3 -11 5 -29 21 -45 18 -20 23 -22 16
-8 -12 26 -9 61 7 80 7 9 10 18 7 21 -3 3 -12 -7 -20 -22 l-14 -28 -16 30 c-9
16 -17 25 -18 19z m41 -65 c0 -5 -2 -10 -4 -10 -3 0 -8 5 -11 10 -3 6 -1 10 4
10 6 0 11 -4 11 -10z"/>
<path d="M3837 3162 c-6 -8 -12 -29 -13 -45 l-2 -31 14 24 c7 14 13 19 14 13
0 -7 5 -13 11 -13 8 0 8 5 -1 15 -9 11 -9 15 -1 15 6 0 14 -7 17 -15 4 -8 10
-15 16 -15 5 0 6 5 3 10 -3 6 -1 10 4 10 6 0 11 -4 11 -10 0 -5 5 -10 11 -10
8 0 8 5 -1 15 -7 8 -20 14 -29 13 -11 -2 -16 4 -15 18 0 24 -21 27 -39 6z m13
-17 c-7 -9 -15 -13 -18 -10 -3 2 1 11 8 20 7 9 15 13 18 10 3 -2 -1 -11 -8
-20z"/>
<path d="M3886 3162 c-2 -4 10 -9 27 -9 26 -2 28 0 12 7 -26 11 -33 12 -39 2z"/>
<path d="M3938 3138 c-11 -6 -11 -8 0 -8 7 0 10 -4 7 -10 -3 -5 -2 -10 2 -10
5 0 13 8 20 18 9 15 8 19 -3 19 -7 0 -19 -4 -26 -9z"/>
<path d="M3982 3127 c-8 -10 -6 -16 9 -25 30 -19 22 -34 -8 -16 -27 15 -27 15
-6 -1 18 -14 21 -21 12 -37 -6 -11 -8 -22 -5 -26 3 -3 6 -1 6 4 0 5 9 10 21
11 17 2 18 -1 9 -13 -7 -8 -11 -14 -9 -15 2 0 16 -2 30 -3 20 -1 25 2 21 14
-5 13 -3 13 11 1 9 -7 17 -9 17 -5 0 5 -9 15 -21 22 -12 7 -18 16 -15 19 3 3
14 0 23 -8 15 -11 16 -11 6 1 -7 8 -13 18 -13 23 0 6 5 6 13 0 6 -5 23 -10 37
-11 18 -1 21 1 11 8 -8 4 -21 6 -29 2 -11 -4 -13 -1 -7 8 5 8 4 11 -3 6 -6 -3
-13 -2 -17 4 -3 5 -19 8 -34 5 -35 -6 -64 20 -40 36 8 5 9 9 3 9 -6 0 -16 -6
-22 -13z m78 -52 c-7 -8 -16 -12 -21 -9 -16 9 -10 20 12 21 17 2 18 -1 9 -12z
m-16 -24 c17 -19 17 -20 -6 -32 -20 -11 -22 -11 -10 3 14 17 0 34 -18 23 -11
-7 -14 8 -3 18 10 11 19 8 37 -12z"/>
<path d="M4015 3120 c-3 -5 -1 -10 4 -10 6 0 11 5 11 10 0 6 -2 10 -4 10 -3 0
-8 -4 -11 -10z"/>
<path d="M3593 3082 c1 -14 5 -18 11 -12 7 7 6 14 -1 21 -9 9 -12 7 -10 -9z"/>
<path d="M3857 3083 c10 -7 23 -17 30 -23 8 -6 14 -6 18 0 9 15 27 12 19 -2
-4 -7 -3 -10 1 -5 5 4 18 -1 29 -10 12 -10 15 -11 9 -3 -18 20 -16 35 2 20 10
-9 15 -9 15 -1 0 11 -13 15 -37 12 -7 -1 -13 3 -13 9 0 5 5 10 12 10 6 0 8 3
5 6 -4 4 -13 1 -22 -6 -10 -8 -15 -9 -15 -1 0 6 -5 11 -11 11 -8 0 -7 -6 2
-17 12 -15 12 -16 -4 -10 -10 4 -21 7 -23 7 -3 0 -3 4 0 8 2 4 -4 8 -15 8 -19
0 -19 -1 -2 -13z"/>
<path d="M4104 3024 c1 -24 2 -24 14 -6 13 20 58 19 45 -1 -4 -6 -1 -7 6 -2
18 11 -1 27 -37 31 -26 3 -30 0 -28 -22z"/>
<path d="M4187 3016 c-4 -9 -1 -13 6 -10 8 2 13 -4 14 -17 2 -16 -1 -18 -12
-9 -10 9 -15 6 -20 -11 -6 -17 -9 -19 -16 -8 -12 19 -11 32 1 24 6 -3 10 -1
10 4 0 14 -17 14 -25 1 -9 -15 13 -50 29 -44 7 3 18 -1 25 -9 9 -11 8 -17 -4
-27 -8 -7 -15 -18 -15 -24 0 -6 5 -3 11 7 8 14 14 16 25 6 8 -6 12 -19 9 -28
-2 -9 -1 -20 3 -26 10 -14 32 -17 32 -5 0 6 -6 10 -13 10 -8 0 -14 12 -14 30
0 29 1 29 19 13 14 -13 16 -19 6 -26 -10 -7 -10 -8 0 -5 8 2 13 7 12 12 -1 5
4 13 12 18 9 7 8 8 -5 4 -12 -4 -17 -2 -14 6 2 7 13 12 23 11 10 -1 14 0 7 3
-7 3 -9 12 -6 20 3 8 -1 14 -8 14 -7 0 -9 -3 -6 -7 8 -8 -11 -33 -25 -33 -6 0
-5 7 2 16 11 12 10 18 -5 32 -10 10 -14 11 -10 3 5 -9 3 -12 -6 -9 -7 2 -13
16 -14 31 0 32 -20 55 -28 33z m25 -65 c9 -15 15 -17 25 -9 7 6 13 6 13 1 0
-12 -21 -33 -34 -33 -5 0 -6 3 -3 7 4 3 -3 17 -15 30 -12 13 -16 23 -10 23 7
0 17 -9 24 -19z"/>
<path d="M4125 3000 c-4 -11 -10 -18 -15 -15 -4 3 -10 -2 -13 -10 -4 -10 -1
-12 11 -8 9 3 14 3 10 -2 -4 -4 5 -19 20 -31 31 -27 38 -29 48 -12 5 8 2 9 -9
5 -11 -4 -23 3 -37 20 -19 24 -19 28 -5 50 9 12 11 23 6 23 -5 0 -13 -9 -16
-20z"/>
<path d="M4070 2990 c-13 -8 -12 -10 3 -10 9 0 17 5 17 10 0 12 -1 12 -20 0z"/>
<path d="M4292 2874 c-13 -21 -21 -44 -18 -59 2 -13 1 -26 -2 -28 -4 -2 -1 -2
6 -1 6 2 12 -2 12 -8 0 -6 3 -8 6 -5 4 4 1 13 -6 22 -7 8 -8 15 -2 15 15 0 28
-23 26 -47 0 -13 2 -23 6 -23 19 0 5 52 -17 70 -25 20 -26 50 -1 50 9 0 9 -3
1 -11 -9 -9 -4 -18 18 -37 19 -15 28 -31 24 -40 -4 -12 -3 -12 9 -3 11 9 14 7
14 -14 0 -24 -12 -34 -21 -17 -2 4 -2 1 0 -7 2 -8 -4 -22 -14 -33 -16 -18 -16
-18 0 -12 10 3 17 1 17 -5 0 -6 -4 -11 -10 -11 -5 0 -10 -5 -10 -11 0 -8 5 -8
15 1 18 15 19 7 4 -23 -9 -20 -9 -20 4 -5 8 10 17 15 21 11 3 -3 -2 -15 -11
-26 -10 -11 -12 -17 -5 -13 6 4 12 2 12 -3 0 -6 -5 -11 -11 -11 -5 0 -7 -5 -3
-11 5 -8 10 -6 16 5 5 9 6 21 3 26 -9 15 11 12 24 -4 9 -11 9 -15 -1 -18 -6
-2 -12 -18 -13 -34 0 -18 -6 -28 -14 -26 -7 1 -10 -2 -6 -8 5 -8 11 -8 19 -1
7 6 16 8 19 4 9 -9 9 -23 0 -22 -28 5 -40 -28 -18 -48 4 -5 5 -2 1 5 -4 6 -3
12 3 12 6 0 8 6 5 13 -2 7 4 13 16 14 18 2 19 -1 8 -20 -7 -12 -11 -28 -9 -36
1 -7 -2 -10 -8 -7 -13 9 -22 -9 -15 -28 4 -10 13 -14 24 -11 14 4 17 0 14 -22
-2 -19 3 -33 17 -44 20 -14 20 -16 3 -30 -16 -12 -17 -12 -11 3 4 13 2 15 -10
11 -10 -4 -14 -2 -10 4 4 6 0 18 -8 26 -11 12 -12 16 -2 20 6 2 8 8 4 13 -9
10 -28 -16 -20 -28 2 -5 -1 -17 -9 -26 -12 -15 -11 -16 5 -3 9 8 20 11 23 8 3
-3 -3 -11 -14 -18 -16 -10 -18 -17 -10 -32 5 -10 7 -21 4 -24 -3 -3 -1 -14 4
-23 12 -23 -12 -45 -37 -36 -14 6 -15 4 -6 -5 7 -7 19 -9 30 -4 10 5 20 8 23
7 11 -1 9 38 -2 44 -6 4 -5 10 3 15 22 14 26 11 24 -21 -1 -16 2 -27 7 -24 5
3 6 14 3 23 -6 21 19 46 36 36 8 -6 8 -2 0 13 -15 28 -14 32 7 25 11 -3 9 1
-6 12 -14 10 -21 23 -17 32 4 13 3 13 -9 4 -11 -9 -13 -7 -13 14 0 20 2 23 13
14 10 -8 14 -8 14 0 0 6 -4 11 -9 11 -13 0 -3 53 12 63 8 5 5 7 -8 5 -12 -2
-21 4 -23 15 -2 9 2 17 8 17 6 0 8 -6 4 -12 -4 -7 -4 -10 1 -6 4 4 17 3 28 -3
14 -8 18 -8 13 0 -4 6 -21 18 -38 27 -24 12 -28 18 -17 25 18 11 32 12 25 1
-2 -4 4 -13 14 -20 18 -11 18 -10 2 17 -15 26 -18 28 -37 15 -12 -8 -25 -11
-28 -7 -12 12 -7 21 11 19 10 0 16 5 14 13 -2 8 3 11 12 8 20 -8 31 10 17 27
-6 7 -8 16 -4 19 3 4 1 13 -5 20 -7 8 -8 18 -4 22 4 5 1 5 -6 0 -10 -5 -11
-10 -3 -18 16 -16 14 -24 -9 -30 -23 -6 -66 45 -54 64 4 7 3 9 -3 6 -6 -4 -14
0 -17 9 -9 24 -7 28 8 15 11 -9 15 -8 20 4 6 17 26 12 26 -6 0 -6 -4 -7 -10
-4 -5 3 -10 1 -10 -5 0 -7 7 -9 16 -6 12 4 15 2 10 -9 -3 -8 -1 -15 4 -15 17
0 4 63 -14 66 -9 1 -18 -2 -22 -7 -3 -5 -10 -9 -16 -9 -7 0 -7 4 0 13 15 19 9
55 -13 71 -19 14 -19 15 -2 22 17 6 16 8 -5 18 -14 8 -22 19 -20 32 2 14 1 16
-6 5 -6 -8 -12 -10 -16 -3 -4 6 1 15 10 20 9 5 13 12 8 15 -5 3 -20 -10 -32
-29z m48 -56 c0 -6 -7 -5 -15 2 -8 7 -15 17 -15 22 0 6 7 5 15 -2 8 -7 15 -17
15 -22z m118 -238 c5 -13 3 -13 -11 -1 -17 13 -22 7 -18 -21 0 -4 -8 -6 -19
-5 -24 2 -24 2 -3 27 20 23 44 23 51 0z m-22 -152 c1 -19 -4 -24 -19 -23 -12
1 -23 7 -25 14 -2 6 0 11 5 10 4 -1 14 -1 22 0 11 1 11 4 0 18 -12 14 -12 16
1 11 8 -2 15 -16 16 -30z m14 -140 c13 5 13 3 1 -12 -13 -15 -15 -15 -33 1
-18 16 -19 16 -12 -3 6 -15 4 -17 -6 -7 -7 6 -10 19 -6 29 6 15 8 15 24 2 9
-9 24 -13 32 -10z"/>
<path d="M4201 2874 c0 -11 3 -14 6 -6 3 7 2 16 -1 19 -3 4 -6 -2 -5 -13z"/>
<path d="M4360 2806 c0 -2 7 -7 16 -10 8 -3 12 -2 9 4 -6 10 -25 14 -25 6z"/>
<path d="M4390 2750 c0 -5 5 -10 10 -10 6 0 10 5 10 10 0 6 -4 10 -10 10 -5 0
-10 -4 -10 -10z"/>
<path d="M4308 2723 c6 -2 9 -10 6 -15 -4 -7 -2 -8 4 -4 18 11 14 26 -5 25
-11 0 -13 -3 -5 -6z"/>
<path d="M4390 2662 c0 -16 28 -47 36 -39 4 4 2 7 -5 7 -7 0 -10 3 -8 8 3 4
-1 13 -9 20 -8 7 -14 9 -14 4z"/>
<path d="M4465 2430 c-3 -5 -2 -18 3 -27 5 -10 7 -24 5 -30 -3 -7 -1 -13 4
-13 5 0 9 13 8 29 0 16 -3 27 -7 24 -5 -2 -8 0 -8 6 0 5 6 12 13 14 9 4 9 6 0
6 -6 1 -15 -3 -18 -9z"/>
<path d="M4470 2339 c0 -5 5 -7 10 -4 6 3 10 8 10 11 0 2 -4 4 -10 4 -5 0 -10
-5 -10 -11z"/>
<path d="M4366 2226 c6 -15 4 -17 -6 -11 -9 6 -11 4 -5 -4 5 -9 10 -10 18 -2
8 8 7 14 -2 24 -10 10 -11 8 -5 -7z"/>
<path d="M4340 2160 c0 -5 5 -10 10 -10 6 0 10 5 10 10 0 6 -4 10 -10 10 -5 0
-10 -4 -10 -10z"/>
<path d="M418 3269 l-33 -31 38 27 c20 15 37 29 37 31 0 10 -12 2 -42 -27z"/>
<path d="M275 3119 c-4 -6 -5 -12 -2 -15 2 -3 7 2 10 11 7 17 1 20 -8 4z"/>
<path d="M2896 3112 c-3 -5 1 -12 9 -16 17 -6 20 -32 5 -41 -12 -8 -40 12 -40
28 0 7 4 7 12 -1 7 -7 16 -12 22 -12 21 0 -12 22 -38 24 -25 3 -26 2 -10 -15
18 -20 7 -26 -14 -9 -9 7 -9 7 -2 -2 14 -17 12 -34 -2 -20 -7 7 -17 12 -22 12
-6 0 0 -7 12 -16 35 -24 27 -34 -36 -49 -8 -2 -17 -7 -20 -11 -4 -4 1 -4 11
-1 13 5 17 2 15 -10 -2 -9 3 -18 11 -21 9 -3 11 1 6 17 -9 28 23 42 40 17 7
-9 16 -13 19 -8 3 6 0 12 -7 15 -16 6 -16 42 0 58 8 8 13 8 17 0 4 -6 2 -11
-3 -11 -6 0 -11 -5 -11 -11 0 -5 5 -7 10 -4 6 3 10 2 10 -4 0 -5 -5 -12 -10
-14 -6 -3 -5 -4 2 -3 7 2 12 11 12 20 -1 10 4 15 13 14 10 -2 17 6 20 22 2 13
9 28 16 33 8 6 7 7 -5 3 -10 -3 -21 1 -26 11 -6 9 -12 12 -16 5z"/>
<path d="M297 3075 c9 -7 13 -17 9 -23 -3 -6 -1 -14 6 -18 7 -4 10 -4 6 0 -4
5 4 18 17 31 l25 22 -40 0 c-33 0 -37 -2 -23 -12z m33 -5 c0 -5 -2 -10 -4 -10
-3 0 -8 5 -11 10 -3 6 -1 10 4 10 6 0 11 -4 11 -10z"/>
<path d="M2802 3024 c-14 -16 -5 -18 17 -5 7 5 9 11 5 14 -5 3 -15 -1 -22 -9z"/>
<path d="M2892 2984 c-23 -35 -42 -44 -42 -20 0 8 -5 18 -11 21 -16 10 -6 -28
11 -41 12 -10 20 -4 43 27 16 22 28 42 26 44 -3 2 -14 -12 -27 -31z"/>
<path d="M184 2975 c5 -11 8 -30 8 -42 -1 -12 3 -25 8 -28 6 -3 10 -11 10 -17
0 -7 -5 -6 -15 2 -12 10 -20 8 -41 -9 -15 -12 -22 -21 -17 -21 5 0 14 5 21 12
7 7 12 8 12 2 0 -18 -22 -33 -39 -26 -9 3 -3 -6 12 -20 19 -18 24 -28 15 -31
-9 -4 -9 -6 -1 -6 19 -1 24 16 9 32 -11 11 -12 17 -3 26 14 14 30 15 22 1 -3
-5 -1 -18 4 -29 18 -33 -37 -62 -76 -38 -6 4 -14 0 -17 -9 -8 -21 -8 -21 10
-28 14 -5 15 -4 5 8 -9 11 -7 14 14 14 19 0 23 -4 15 -13 -13 -15 11 -28 35
-19 11 5 14 1 9 -12 -5 -15 -4 -16 5 -4 7 11 5 20 -7 34 -16 18 -16 19 0 13
10 -3 22 1 30 11 12 15 11 16 -4 3 -11 -8 -18 -9 -18 -3 0 6 4 14 10 17 5 3 8
19 6 36 -2 21 4 39 20 59 13 15 24 32 24 36 0 5 -5 2 -10 -6 -6 -10 -10 -11
-10 -2 0 6 -5 12 -11 12 -8 0 -7 -6 2 -17 12 -14 12 -16 -1 -11 -23 7 -19 43
4 41 11 -1 26 6 35 15 15 15 15 15 -1 9 -11 -4 -22 0 -28 11 -11 16 -11 16 -6
0 3 -10 1 -18 -4 -18 -5 0 -17 8 -26 18 -17 16 -17 16 -10 -3z m11 -96 c11
-17 -1 -21 -15 -4 -8 9 -8 15 -2 15 6 0 14 -5 17 -11z m-25 -129 c0 -5 -4 -10
-10 -10 -5 0 -10 5 -10 10 0 6 5 10 10 10 6 0 10 -4 10 -10z"/>
<path d="M2767 2953 c4 -10 2 -14 -4 -10 -7 5 -10 -4 -9 -24 3 -35 -20 -73
-37 -63 -7 4 -9 4 -5 -1 4 -4 2 -15 -4 -23 -15 -17 -19 -42 -8 -42 5 0 11 6
14 13 5 10 7 10 12 0 3 -7 10 -13 16 -13 6 0 4 7 -3 17 -12 15 -12 16 4 10 10
-4 21 -7 23 -7 3 0 2 -4 -1 -10 -3 -5 -2 -10 3 -10 6 0 9 11 8 24 -1 17 -4 21
-12 15 -8 -7 -11 -2 -11 16 0 19 3 23 12 15 9 -8 14 -6 19 7 5 11 1 22 -10 30
-18 13 -13 43 8 43 9 0 9 -3 0 -12 -9 -9 -7 -14 6 -24 21 -16 32 -17 32 -4 0
6 -5 9 -11 8 -6 -2 -13 2 -15 7 -2 6 4 11 15 12 29 2 34 -34 8 -52 -15 -10
-22 -27 -23 -50 0 -19 3 -32 8 -29 5 3 5 10 2 16 -4 6 0 14 7 19 10 6 11 9 2
9 -7 0 -13 4 -13 10 0 5 7 6 17 3 10 -4 14 -2 10 4 -4 6 0 16 8 23 7 6 11 19
8 27 -5 12 -2 14 8 9 8 -4 5 0 -6 8 -11 9 -25 14 -32 12 -7 -3 -19 3 -25 14
-15 24 -30 26 -21 3z m13 -73 c0 -5 -4 -10 -10 -10 -5 0 -10 5 -10 10 0 6 5
10 10 10 6 0 10 -4 10 -10z m-35 -40 c-3 -5 -16 -15 -28 -21 -22 -12 -22 -12
-3 10 19 21 43 30 31 11z"/>
<path d="M260 2940 c0 -5 5 -10 11 -10 5 0 7 5 4 10 -3 6 -8 10 -11 10 -2 0
-4 -4 -4 -10z"/>
<path d="M160 2920 c-13 -8 -12 -10 3 -10 9 0 17 5 17 10 0 12 -1 12 -20 0z"/>
<path d="M249 2894 c-22 -24 -36 -79 -16 -67 4 3 6 12 2 21 -3 9 5 27 22 44
15 15 24 28 22 28 -3 0 -16 -12 -30 -26z"/>
<path d="M2725 2889 c-4 -6 -5 -12 -2 -15 2 -3 7 2 10 11 7 17 1 20 -8 4z"/>
<path d="M119 2817 c6 -8 8 -17 4 -20 -3 -4 -1 -7 5 -7 14 0 14 2 6 24 -3 9
-11 16 -16 16 -7 0 -6 -5 1 -13z"/>
<path d="M2688 2761 c9 -9 22 -22 30 -30 12 -12 13 -11 10 4 -2 10 2 20 7 21
6 2 10 -9 10 -26 1 -36 -4 -37 -41 -5 -15 13 -30 22 -32 20 -3 -3 6 -13 19
-24 20 -16 22 -22 11 -33 -10 -10 -17 -10 -35 1 -15 9 -18 9 -10 1 12 -13 7
-43 -6 -36 -4 3 -7 -4 -7 -14 0 -10 4 -16 8 -14 11 7 10 -3 -1 -25 -7 -13 -5
-17 9 -17 13 0 16 4 9 12 -7 8 -2 12 16 12 20 0 23 -3 15 -13 -8 -10 -6 -15
11 -20 17 -6 19 -9 8 -17 -12 -8 -11 -9 1 -5 8 2 14 10 12 16 -1 7 2 20 8 30
7 14 6 20 -6 25 -16 6 -10 26 7 26 6 0 7 -4 4 -10 -3 -5 -1 -10 4 -10 6 0 11
4 11 9 0 17 -20 23 -35 11 -11 -9 -15 -9 -15 -1 0 6 -5 11 -11 11 -5 0 -7 -4
-4 -10 3 -5 2 -10 -4 -10 -13 0 -25 19 -17 27 3 3 24 6 46 6 26 0 36 3 28 8
-12 8 -4 13 15 10 5 -1 5 4 1 11 -15 24 -14 48 2 48 9 0 12 -5 8 -12 -4 -7 -3
-10 1 -5 5 4 10 18 11 30 2 12 0 16 -2 10 -3 -7 -13 -13 -22 -13 -12 0 -13 3
-5 8 7 5 -9 8 -36 8 -44 0 -47 -1 -33 -15z m37 -1 c-3 -5 -11 -10 -16 -10 -6
0 -7 5 -4 10 3 6 11 10 16 10 6 0 7 -4 4 -10z m5 -70 c0 -5 -5 -10 -11 -10 -5
0 -7 5 -4 10 3 6 8 10 11 10 2 0 4 -4 4 -10z m-30 -58 c20 5 37 -29 21 -44
-10 -11 -12 -9 -9 7 2 13 -3 20 -12 20 -20 1 -40 14 -40 27 0 7 5 7 14 -1 8
-6 19 -10 26 -9z"/>
<path d="M100 2719 c0 -4 11 -6 25 -6 13 0 22 3 20 8 -6 9 -45 8 -45 -2z"/>
<path d="M156 2704 c-4 -10 -12 -14 -22 -10 -14 5 -15 4 -5 -8 9 -11 7 -13
-14 -13 -19 0 -23 3 -15 12 8 9 6 14 -4 18 -9 4 -18 1 -22 -5 -4 -7 -3 -8 4
-4 7 4 12 2 12 -3 0 -6 -6 -11 -12 -11 -7 0 -5 -5 5 -11 9 -5 22 -7 27 -4 14
8 50 -54 43 -74 -4 -9 -3 -13 1 -9 12 11 14 43 2 50 -7 5 -5 13 5 25 9 10 19
25 24 33 4 8 -4 2 -19 -15 -28 -33 -36 -23 -10 13 9 13 14 25 11 28 -2 3 -7
-3 -11 -12z"/>
<path d="M2660 2716 c0 -2 7 -9 15 -16 9 -7 15 -8 15 -2 0 5 -7 12 -15 16 -8
3 -15 4 -15 2z"/>
<path d="M65 2639 c6 -32 11 -33 35 -9 13 13 16 20 9 18 -8 -3 -22 -1 -31 3
-14 7 -16 5 -13 -12z"/>
<path d="M109 2623 c0 -5 -2 -17 -4 -28 -2 -10 1 -25 7 -32 11 -14 -3 -19 -16
-5 -4 4 -13 7 -19 7 -5 0 -12 6 -15 13 -2 7 2 10 12 6 10 -4 16 -1 16 7 0 7
-3 9 -7 6 -3 -4 -11 -2 -18 3 -14 11 -17 -19 -4 -35 4 -6 4 -17 -1 -25 -13
-20 -13 -40 0 -40 5 0 7 6 4 13 -3 8 2 14 11 14 8 0 15 -4 15 -8 0 -12 -31
-40 -39 -35 -4 3 -8 -4 -8 -15 -1 -15 6 -11 33 18 25 26 31 39 22 44 -6 4 -16
5 -20 3 -4 -3 -8 -1 -8 5 0 17 15 20 34 5 17 -12 18 -17 7 -38 -8 -13 -10 -30
-6 -37 6 -9 3 -11 -9 -6 -10 4 -24 -1 -36 -13 -18 -18 -18 -19 3 -17 12 0 33
9 46 19 13 10 28 15 34 11 5 -3 7 -1 3 5 -3 5 0 12 6 15 7 3 3 4 -9 4 -12 -1
-19 -5 -17 -9 3 -4 0 -8 -6 -8 -6 0 -10 8 -8 18 2 10 11 16 23 14 14 -2 16 0
7 6 -14 9 -18 36 -10 62 3 8 3 12 1 8 -9 -16 -22 -7 -20 12 1 12 7 18 14 16 7
-3 10 1 6 10 -5 15 -22 20 -24 7z m-19 -173 c0 -5 -5 -10 -11 -10 -5 0 -7 5
-4 10 3 6 8 10 11 10 2 0 4 -4 4 -10z"/>
<path d="M146 2553 c-4 -9 -1 -21 5 -27 9 -8 10 -8 5 2 -4 7 -2 19 4 27 7 9 8
15 2 15 -5 0 -13 -8 -16 -17z"/>
<path d="M2650 2560 c0 -5 5 -10 10 -10 6 0 10 5 10 10 0 6 -4 10 -10 10 -5 0
-10 -4 -10 -10z"/>
<path d="M2680 2560 c0 -5 5 -10 10 -10 6 0 10 5 10 10 0 6 -4 10 -10 10 -5 0
-10 -4 -10 -10z"/>
<path d="M2630 2546 c0 -29 72 -57 86 -34 4 6 9 5 15 -3 6 -10 8 -7 6 8 -1 17
-4 19 -14 11 -9 -7 -13 -7 -13 1 0 6 -5 11 -11 11 -8 0 -8 -4 0 -14 9 -11 6
-13 -14 -13 -22 0 -24 2 -13 15 11 13 11 14 0 8 -7 -4 -19 -2 -27 4 -8 7 -15
9 -15 6z"/>
<path d="M2630 2511 c0 -6 5 -13 10 -16 6 -3 10 -11 10 -17 0 -7 -4 -7 -13 0
-10 8 -13 6 -14 -8 -1 -11 2 -22 8 -25 5 -4 6 2 2 11 -4 10 -2 15 3 11 6 -3
16 -2 23 2 11 7 9 13 -8 30 -11 11 -21 17 -21 12z"/>
<path d="M2680 2480 c0 -5 5 -10 10 -10 6 0 10 5 10 10 0 6 -4 10 -10 10 -5 0
-10 -4 -10 -10z"/>
<path d="M2712 2481 c2 -7 7 -12 11 -12 12 1 9 15 -3 20 -7 2 -11 -2 -8 -8z"/>
<path d="M2211 2447 c-11 -18 -11 -20 0 -9 18 17 34 15 19 -3 -13 -16 -4 -38
13 -32 6 2 12 19 13 38 1 19 -1 28 -3 21 -3 -9 -9 -10 -17 -3 -8 7 -16 3 -25
-12z m39 -27 c0 -5 -4 -10 -10 -10 -5 0 -10 5 -10 10 0 6 5 10 10 10 6 0 10
-4 10 -10z"/>
<path d="M2650 2439 c-6 -11 -14 -17 -19 -15 -4 3 -7 -6 -7 -19 0 -13 4 -21 8
-19 11 7 10 -4 -2 -27 -8 -14 -8 -19 1 -17 6 2 14 -3 17 -11 2 -8 0 -11 -5 -8
-5 3 -9 -7 -9 -23 0 -24 2 -27 13 -18 17 14 20 10 27 -26 4 -21 2 -26 -9 -22
-10 3 -12 0 -8 -12 6 -15 5 -16 -13 -2 -17 14 -18 14 -6 -1 7 -9 10 -25 7 -35
-4 -11 1 -6 11 11 17 30 17 30 27 7 6 -12 14 -22 19 -22 5 0 2 10 -7 23 -8 13
-12 27 -8 30 11 12 21 7 19 -9 0 -9 5 -19 12 -21 6 -3 12 0 12 7 0 6 -4 8 -10
5 -5 -3 -10 -1 -10 4 0 6 6 11 13 11 8 0 7 4 -3 10 -13 8 -12 10 3 10 9 0 17
5 17 10 0 7 -7 7 -21 -1 -14 -7 -24 -8 -31 -1 -13 13 -3 42 13 42 8 0 8 -4 -1
-15 -9 -10 -9 -15 -1 -15 6 0 11 5 11 10 0 6 5 9 11 8 6 -2 14 4 16 12 3 11 2
12 -4 2 -7 -10 -14 -8 -29 9 -19 22 -19 22 4 15 14 -5 22 -3 22 4 0 6 -4 8
-10 5 -17 -10 -11 7 8 22 16 13 15 13 -3 4 -11 -5 -29 -19 -40 -32 -11 -12
-14 -19 -6 -14 9 5 12 3 9 -5 -3 -11 -48 -23 -48 -13 0 1 10 14 23 29 12 14
22 34 23 43 1 10 4 23 8 30 4 6 3 11 -2 11 -14 0 -22 -27 -15 -47 5 -17 5 -17
-12 -1 -15 14 -16 20 -5 32 8 11 9 16 1 16 -6 0 -11 -5 -11 -11 0 -5 -5 -7
-10 -4 -16 10 10 37 28 30 12 -4 12 -3 3 9 -9 11 -7 14 14 14 24 0 34 -12 18
-21 -5 -2 -3 -3 3 -1 6 1 12 -8 12 -22 0 -13 -4 -21 -9 -18 -5 3 -9 0 -9 -6 0
-7 6 -10 13 -8 12 5 19 77 8 79 -45 9 -62 6 -71 -12z m16 -96 c-7 -7 -26 7
-26 19 0 6 6 6 15 -2 9 -7 13 -15 11 -17z"/>
<path d="M136 2438 c5 -7 2 -9 -9 -5 -8 3 -21 -1 -28 -9 -7 -8 -20 -12 -33 -9
-19 5 -19 5 -3 -5 17 -11 17 -13 2 -36 -14 -21 -11 -26 11 -23 4 0 11 -5 16
-13 7 -9 8 -7 3 7 -9 22 -9 55 -1 63 9 8 36 -19 30 -30 -4 -6 -10 -5 -15 3 -5
8 -9 10 -9 4 0 -21 19 -38 34 -32 21 8 20 20 -4 42 -11 10 -20 23 -20 29 0 6
5 5 12 -2 17 -17 24 -15 25 8 1 11 -3 20 -8 20 -6 0 -7 -5 -3 -12z m4 -68 c0
-5 -5 -10 -11 -10 -5 0 -7 5 -4 10 3 6 8 10 11 10 2 0 4 -4 4 -10z"/>
<path d="M2340 2439 c0 -5 5 -7 10 -4 6 3 10 8 10 11 0 2 -4 4 -10 4 -5 0 -10
-5 -10 -11z"/>
<path d="M2188 2417 c12 -14 7 -27 -10 -27 -5 0 -6 5 -3 10 10 16 -1 11 -16
-7 -12 -14 -12 -16 0 -8 11 6 13 4 7 -10 -7 -18 -6 -18 12 -2 11 10 25 16 33
14 8 -2 11 -2 7 0 -5 3 -8 11 -8 18 0 7 -7 16 -16 19 -13 5 -14 4 -6 -7z"/>
<path d="M45 2389 c-4 -6 -5 -12 -2 -15 2 -3 7 2 10 11 7 17 1 20 -8 4z"/>
<path d="M147 2343 c-9 -9 -9 -41 1 -46 4 -3 7 8 7 24 0 16 0 29 -1 29 0 0 -4
-3 -7 -7z"/>
<path d="M63 2322 c15 -9 27 -20 27 -25 0 -4 -4 -5 -10 -2 -5 3 -10 2 -10 -4
0 -5 5 -13 11 -16 6 -4 8 -14 5 -22 -3 -8 -2 -12 3 -9 16 10 6 65 -14 80 -11
9 -24 15 -30 15 -5 0 2 -7 18 -17z"/>
<path d="M112 2298 c1 -24 0 -47 -2 -53 -1 -5 -2 -16 -1 -23 1 -17 41 8 41 26
0 7 5 10 12 6 7 -4 8 -3 4 4 -4 6 -12 9 -19 6 -7 -2 -14 4 -15 16 -1 11 -3 29
-4 40 -4 38 -17 20 -16 -22z m23 -59 c-10 -15 -25 -10 -19 6 4 8 10 12 15 9 5
-3 7 -10 4 -15z"/>
<path d="M2220 2330 c-8 -5 -11 -12 -8 -16 4 -3 14 1 23 10 18 17 9 21 -15 6z"/>
<path d="M963 2303 c-15 -5 -17 -23 -4 -23 5 0 11 7 15 15 3 8 4 15 3 14 -1 0
-8 -3 -14 -6z"/>
<path d="M997 2285 c4 -16 3 -17 -6 -5 -6 8 -11 10 -11 4 0 -20 45 -77 63 -80
10 -1 14 2 10 9 -4 6 0 8 9 4 12 -4 14 -1 11 14 -3 11 0 19 6 19 7 0 10 -4 7
-8 -7 -12 60 -9 71 2 5 5 1 7 -8 3 -9 -3 -22 0 -28 6 -16 16 -13 31 4 17 8 -6
18 -9 23 -6 6 3 15 0 21 -8 17 -20 -18 -47 -52 -41 -15 3 -27 1 -27 -4 0 -6 9
-8 20 -6 11 2 20 -1 20 -7 0 -6 8 -4 18 5 17 15 19 15 36 -1 16 -16 17 -16 10
1 -3 10 -3 17 2 16 28 -5 33 1 22 26 -9 19 -14 22 -25 14 -9 -9 -13 -8 -13 0
0 6 6 14 14 17 20 8 27 31 10 31 -8 0 -12 -3 -9 -5 7 -7 -15 -32 -28 -32 -7 0
-7 4 1 12 7 7 12 17 12 22 0 6 -7 0 -16 -12 -8 -12 -20 -22 -26 -22 -6 0 -6 6
2 15 7 9 10 18 7 22 -4 3 -9 -1 -13 -10 -6 -17 -37 -15 -60 4 -13 11 -19 3
-16 -22 1 -4 -10 -6 -23 -6 -15 0 -25 5 -25 14 0 8 4 12 8 9 4 -2 14 -1 21 4
9 5 3 7 -16 7 -24 -1 -29 -5 -26 -22z m103 -17 c11 -12 17 -24 14 -27 -3 -3
-12 2 -19 12 -12 17 -14 16 -35 -13 l-22 -31 -19 22 c-10 12 -19 25 -19 29 0
9 32 6 48 -4 11 -6 17 5 13 27 -2 14 19 7 39 -15z m110 -31 c0 -7 -9 -13 -21
-14 -17 -2 -18 1 -9 13 15 17 30 18 30 1z"/>
<path d="M1025 2240 c3 -5 8 -10 11 -10 2 0 4 5 4 10 0 6 -5 10 -11 10 -5 0
-7 -4 -4 -10z"/>
<path d="M1237 2293 c3 -7 6 -13 8 -13 2 0 5 6 8 13 3 8 -1 14 -8 14 -7 0 -11
-6 -8 -14z"/>
<path d="M1277 2293 c3 -7 6 -13 8 -13 2 0 5 6 8 13 3 8 -1 14 -8 14 -7 0 -11
-6 -8 -14z"/>
<path d="M1317 2285 c4 -16 3 -17 -6 -5 -14 20 -14 7 0 -24 11 -23 49 -33 49
-13 0 4 -7 7 -16 5 -10 -2 -19 2 -21 8 -4 12 26 12 45 0 18 -11 -1 -39 -28
-41 -14 -1 -28 8 -38 24 -9 14 -23 33 -31 41 -13 13 -14 13 -8 -2 3 -10 2 -18
-3 -18 -5 0 -17 8 -26 18 -17 16 -18 16 -11 -1 4 -10 7 -21 7 -23 0 -3 4 -3 9
0 5 3 9 -6 9 -19 0 -15 -6 -25 -14 -25 -8 0 -14 -4 -14 -8 0 -4 9 -8 19 -8 11
0 18 4 15 7 -5 8 14 22 34 25 9 2 11 -5 7 -19 -4 -12 -3 -17 2 -12 10 14 53
17 53 4 0 -5 8 -1 19 9 10 9 18 21 17 26 -1 5 4 10 9 12 6 2 11 -5 12 -16 1
-11 -4 -20 -13 -20 -8 0 -14 -4 -14 -8 0 -4 9 -8 20 -8 10 0 17 2 14 5 -2 2 5
15 17 27 13 14 17 24 10 29 -6 3 -11 11 -11 17 0 6 9 3 20 -7 l20 -18 -20 -22
c-16 -17 -17 -22 -6 -22 8 0 12 5 9 10 -4 6 0 8 10 4 12 -4 14 -2 10 10 -5 12
-3 14 8 8 12 -8 12 -6 0 8 -8 10 -11 20 -8 23 3 3 12 -3 19 -15 7 -12 16 -21
21 -21 4 0 5 5 2 10 -3 6 -1 10 4 10 6 0 11 -4 11 -10 0 -5 5 -10 10 -10 6 0
5 8 -2 19 -9 14 -16 17 -25 10 -9 -8 -11 -5 -10 10 1 12 7 19 13 17 7 -3 14 1
17 7 3 7 -3 13 -14 13 -17 0 -23 -8 -21 -27 1 -4 -11 -6 -25 -6 l-27 0 22 17
22 18 -24 -2 c-14 0 -22 -6 -19 -13 6 -15 -33 -9 -53 8 -13 11 -19 3 -16 -22
1 -4 -10 -6 -23 -6 -15 0 -25 5 -25 14 0 8 4 12 8 9 4 -2 14 -1 21 4 9 5 3 7
-16 7 -24 -1 -29 -5 -26 -22z m102 -17 c11 -11 18 -25 15 -30 -6 -10 -24 -11
-23 0 4 26 -1 34 -15 22 -12 -9 -15 -8 -13 9 2 27 11 26 36 -1z m-129 -26 c0
-4 -9 -8 -21 -9 -17 -2 -18 1 -9 12 12 14 30 12 30 -3z"/>
<path d="M1587 2293 c3 -7 9 -13 13 -13 4 0 10 6 13 13 3 7 -3 13 -13 13 -10
0 -16 -6 -13 -13z"/>
<path d="M1637 2285 c4 -16 3 -17 -6 -5 -16 22 -13 -1 4 -30 18 -32 18 -40 0
-40 -8 0 -15 -4 -15 -8 0 -4 9 -8 19 -8 11 0 18 3 15 7 -2 4 3 12 11 19 17 14
20 30 4 30 -5 0 -7 -4 -4 -10 3 -5 2 -10 -3 -10 -8 0 -22 22 -22 34 0 8 42 -2
52 -12 9 -9 7 -16 -5 -30 -14 -15 -14 -19 -2 -19 8 0 11 5 8 10 -4 6 0 8 9 4
12 -4 14 -1 11 14 -3 11 0 19 6 19 7 0 10 -4 7 -8 -6 -11 90 -10 100 1 12 12
24 8 24 -8 0 -8 4 -15 10 -15 6 0 5 10 -2 25 -9 19 -14 22 -25 14 -9 -9 -13
-8 -13 0 0 6 6 14 14 17 20 8 27 31 10 31 -8 0 -12 -3 -9 -5 7 -7 -15 -32 -28
-32 -7 0 -7 4 1 12 7 7 12 17 12 22 0 6 -7 0 -16 -12 -8 -12 -20 -22 -26 -22
-6 0 -6 6 2 15 7 9 10 18 7 22 -4 3 -9 -1 -13 -10 -6 -17 -37 -15 -60 4 -13
11 -19 3 -16 -22 1 -4 -10 -6 -23 -6 -15 0 -25 5 -25 14 0 8 4 12 8 9 4 -2 14
-1 21 4 9 5 3 7 -16 7 -24 -1 -29 -5 -26 -22z m103 -17 c19 -21 21 -21 14 -3
-7 18 -6 18 9 7 9 -8 20 -11 25 -8 6 3 15 0 21 -7 9 -11 3 -14 -31 -13 -24 1
-43 7 -46 14 -3 10 -7 10 -17 2 -11 -9 -14 -7 -12 9 2 27 11 26 37 -1z"/>
<path d="M1877 2293 c3 -7 6 -13 8 -13 2 0 5 6 8 13 3 8 -1 14 -8 14 -7 0 -11
-6 -8 -14z"/>
<path d="M2035 2300 c3 -5 8 -10 11 -10 2 0 4 5 4 10 0 6 -5 10 -11 10 -5 0
-7 -4 -4 -10z"/>
<path d="M1546 2291 c-12 -19 6 -42 28 -36 21 6 21 6 2 -9 -11 -9 -15 -16 -9
-16 7 0 15 5 18 10 9 15 25 12 25 -6 0 -8 -4 -13 -8 -10 -4 2 -14 1 -20 -3
-10 -6 -9 -11 3 -21 13 -11 14 -10 9 4 -4 9 -3 16 2 15 28 -5 33 1 22 26 -6
13 -15 22 -19 19 -4 -2 -13 5 -19 16 -11 21 -25 26 -34 11z m24 -17 c0 -8 -4
-12 -10 -9 -5 3 -10 10 -10 16 0 5 5 9 10 9 6 0 10 -7 10 -16z"/>
<path d="M53 2272 c0 -12 5 -22 9 -22 11 0 10 12 -2 30 -7 12 -9 10 -7 -8z"/>
<path d="M2640 2260 c-13 -8 -12 -10 3 -10 9 0 17 5 17 10 0 12 -1 12 -20 0z"/>
<path d="M1922 2248 c-7 -7 -12 -17 -12 -22 0 -6 5 -3 11 7 14 23 25 22 32 -5
4 -12 9 -19 12 -16 8 7 -12 48 -23 48 -5 0 -13 -5 -20 -12z"/>
<path d="M63 2230 c2 -8 10 -14 17 -12 6 1 10 -3 7 -10 -2 -7 -10 -12 -16 -10
-9 2 -9 -3 -2 -17 6 -10 8 -21 6 -25 -3 -3 1 -2 7 4 20 17 32 11 15 -8 -10
-11 -13 -22 -7 -31 4 -8 6 -21 2 -30 -6 -17 -4 -16 18 13 8 11 10 17 4 13 -7
-4 -14 0 -18 8 -6 18 -1 19 25 4 19 -10 19 -12 5 -28 -9 -10 -13 -21 -9 -24 3
-4 1 -7 -5 -7 -7 0 -12 -5 -12 -11 0 -8 5 -8 15 1 8 7 12 16 9 21 -6 10 9 12
19 2 4 -3 -3 -18 -15 -31 -13 -14 -17 -22 -9 -17 11 6 13 4 8 -8 -4 -11 -2
-14 9 -10 12 4 12 8 2 21 -11 13 -10 15 5 9 12 -5 28 0 44 13 14 11 21 20 14
20 -6 0 -11 5 -11 11 0 5 5 7 12 3 7 -4 8 -3 4 4 -4 6 -13 9 -22 5 -11 -4 -12
-9 -3 -19 14 -17 5 -18 -22 -4 -10 6 -19 15 -19 21 0 6 4 8 9 5 4 -3 17 1 27
9 10 8 14 15 7 15 -6 0 -15 -5 -18 -10 -10 -16 -37 10 -30 28 5 13 3 13 -11 1
-14 -11 -15 -10 -12 7 2 13 -2 19 -15 18 -10 -1 -16 3 -14 10 5 13 39 9 50 -7
6 -8 7 -5 3 6 -4 12 1 21 17 27 12 5 16 9 9 9 -7 1 -21 -5 -32 -11 -16 -11
-22 -9 -34 7 -9 11 -16 16 -16 10 0 -5 -5 -3 -11 5 -9 13 -10 13 -6 0z m107
-170 c0 -5 -4 -10 -10 -10 -5 0 -10 5 -10 10 0 6 5 10 10 10 6 0 10 -4 10 -10z"/>
<path d="M1490 2210 c0 -5 8 -7 18 -6 9 2 20 -1 23 -6 3 -5 11 -3 17 4 8 10 3
13 -24 14 -19 1 -34 -2 -34 -6z"/>
<path d="M1730 2210 c0 -5 8 -7 18 -6 9 2 20 -1 23 -6 3 -5 11 -3 17 4 8 10 3
13 -24 14 -19 1 -34 -2 -34 -6z"/>
<path d="M153 2183 c0 -10 5 -21 11 -25 8 -5 7 -8 -1 -8 -7 0 -13 -5 -13 -10
0 -6 8 -5 20 2 22 14 27 29 8 26 -7 -2 -12 5 -10 15 2 9 -1 17 -6 17 -5 0 -9
-8 -9 -17z"/>
<path d="M2664 2169 c-14 -42 -13 -49 9 -60 17 -9 23 -8 34 7 13 17 13 17 26
0 8 -11 20 -16 28 -13 10 4 9 6 -4 6 -10 1 -15 6 -12 11 4 6 10 8 14 6 4 -3 8
1 8 9 0 9 -4 11 -11 6 -6 -5 -26 -8 -43 -6 -26 1 -31 -1 -22 -12 6 -7 8 -13 3
-13 -25 1 -44 39 -21 41 6 1 26 2 44 3 44 2 52 14 8 13 -20 -1 -40 5 -45 12
-6 10 -10 8 -16 -10z"/>
<path d="M2701 2091 c-8 -5 -19 -8 -25 -7 -6 2 -8 1 -3 -1 4 -3 5 -8 2 -13 -3
-5 6 -7 20 -5 16 1 24 -2 22 -9 -2 -6 -13 -10 -23 -8 -16 2 -17 1 -4 -7 8 -6
11 -11 6 -11 -6 0 -1 -6 9 -14 11 -8 24 -12 30 -9 7 2 12 -3 12 -12 0 -19 -7
-19 -36 1 -22 16 -22 16 -10 -4 7 -11 17 -18 21 -16 4 3 8 1 8 -5 0 -5 -6 -11
-12 -14 -7 -2 0 -4 16 -4 15 0 33 -7 38 -14 8 -11 8 -10 4 4 -4 12 -2 17 6 15
17 -6 17 -37 1 -65 -8 -13 -10 -24 -6 -24 29 -5 61 -4 57 2 -2 4 3 10 12 13
12 4 15 2 10 -9 -3 -8 -1 -15 4 -15 15 0 12 24 -5 46 -13 16 -14 16 -9 2 6
-17 -10 -26 -19 -10 -2 4 -2 1 0 -6 1 -8 -3 -12 -9 -10 -17 6 -17 36 -1 70 12
24 11 26 -10 23 -12 -2 -32 -7 -44 -10 -33 -10 -28 2 7 20 17 9 36 13 43 8 8
-4 7 -1 -1 10 -12 14 -16 15 -29 2 -18 -18 -34 -19 -30 -2 1 6 -7 12 -17 12
-11 0 -21 5 -23 12 -5 15 48 7 60 -10 6 -8 7 -7 4 4 -3 9 -1 21 4 26 11 11 2
43 -13 43 -5 0 -6 -4 -3 -10 9 -15 -4 -12 -21 5 -18 17 -24 18 -43 6z m41 -20
c10 -16 15 -18 27 -8 11 10 13 9 9 -3 -7 -21 -56 -22 -54 -1 1 11 -6 15 -19
13 -16 -2 -17 -1 -5 7 21 15 28 14 42 -8z m68 -111 c0 -5 -2 -10 -4 -10 -3 0
-8 5 -11 10 -3 6 -1 10 4 10 6 0 11 -4 11 -10z m-5 -80 c3 -5 1 -10 -4 -10 -6
0 -11 5 -11 10 0 6 2 10 4 10 3 0 8 -4 11 -10z"/>
<path d="M210 2048 c0 -10 -5 -18 -11 -18 -5 0 -7 5 -3 12 4 6 -9 -1 -29 -17
-20 -16 -34 -31 -32 -34 3 -2 11 2 20 9 9 7 18 10 21 8 3 -3 -6 -15 -20 -25
-29 -23 -17 -50 15 -33 13 7 23 4 41 -11 17 -16 19 -19 5 -15 -11 3 -16 2 -12
-4 3 -6 1 -10 -4 -10 -6 0 -11 7 -11 15 0 8 -5 15 -10 15 -7 0 -7 -7 1 -22 10
-18 9 -20 -5 -15 -23 9 -20 0 5 -14 12 -6 19 -7 16 -1 -9 13 32 29 67 26 25
-3 27 -2 11 10 -10 7 -15 18 -11 24 5 8 1 10 -10 5 -13 -5 -15 -3 -9 8 8 12 6
12 -8 0 -10 -8 -18 -12 -20 -10 -38 66 -45 85 -27 74 17 -11 40 9 30 25 -8 13
-10 12 -10 -2z m-12 -78 c3 -8 0 -10 -7 -6 -7 4 -18 2 -26 -4 -18 -15 -20 1
-3 18 14 14 30 11 36 -8z m58 -47 c-7 -7 -26 7 -26 19 0 6 6 6 15 -2 9 -7 13
-15 11 -17z"/>
<path d="M221 2011 c-9 -6 -10 -14 -5 -24 7 -11 14 -13 24 -7 12 8 12 10 -4
10 -15 0 -16 3 -6 15 14 17 11 19 -9 6z"/>
<path d="M2827 1936 c-4 -10 -1 -13 8 -9 8 3 12 9 9 14 -7 12 -11 11 -17 -5z"/>
<path d="M2725 1931 c-3 -5 0 -13 6 -17 8 -5 9 -3 4 6 -6 10 -4 12 9 7 10 -4
15 -3 11 3 -8 13 -22 13 -30 1z"/>
<path d="M2754 1906 c-16 -12 -17 -17 -6 -28 11 -11 12 -10 6 6 -5 13 -4 17 3
13 6 -4 13 0 17 8 7 19 5 19 -20 1z"/>
<path d="M222 1892 c-7 -5 -10 -16 -6 -26 5 -13 9 -14 20 -5 8 7 14 7 14 1 0
-5 -7 -15 -15 -22 -12 -10 -16 -9 -21 3 -3 9 -12 18 -20 21 -9 3 -2 -11 15
-31 16 -20 27 -41 24 -46 -3 -5 2 -5 13 0 24 12 71 8 91 -8 13 -12 13 -14 -3
-26 -9 -7 -21 -10 -25 -7 -5 3 -9 0 -9 -5 0 -15 12 -14 37 4 14 10 20 21 16
32 -5 11 -3 14 6 8 7 -4 5 4 -4 19 -10 15 -20 24 -23 22 -3 -3 1 -13 9 -23 12
-15 12 -16 -4 -10 -10 4 -23 7 -29 7 -6 0 -6 6 2 15 9 11 9 15 1 15 -7 0 -9 5
-6 10 3 6 1 10 -5 10 -6 0 -15 11 -20 25 -5 14 -15 25 -22 25 -9 0 -10 -2 -1
-8 16 -10 20 -44 7 -49 -7 -2 -11 4 -10 14 1 13 -5 17 -18 15 -17 -3 -18 -2
-7 12 15 18 13 20 -7 8z m73 -81 c-8 -15 -60 -6 -60 10 0 8 8 13 17 11 9 -1
20 3 24 9 5 8 10 7 16 -5 5 -9 7 -20 3 -25z"/>
<path d="M290 1888 c0 -9 7 -19 16 -22 15 -6 15 -4 3 11 -7 10 -15 20 -16 22
-2 2 -3 -3 -3 -11z"/>
<path d="M2770 1850 c8 -5 11 -10 5 -10 -5 0 -2 -5 8 -11 9 -5 22 -7 27 -4 13
8 13 -1 -1 -27 -8 -15 -8 -19 0 -13 14 8 43 -13 35 -26 -3 -5 0 -9 6 -9 7 0 9
7 6 16 -4 10 -2 14 6 11 7 -2 12 -10 10 -16 -1 -8 2 -9 9 -5 9 5 10 2 6 -10
-4 -11 -3 -15 4 -11 6 4 8 14 5 22 -4 9 -1 13 6 10 7 -2 11 -11 9 -18 -2 -8
-3 -21 -3 -29 1 -8 3 -28 4 -43 4 -35 34 -60 58 -47 25 13 66 -16 49 -36 -6
-8 -16 -14 -21 -14 -6 0 -4 8 3 17 10 11 10 14 2 9 -7 -4 -13 -2 -13 3 0 6 -5
11 -11 11 -6 0 -7 -5 -2 -12 4 -7 8 -15 8 -18 0 -9 45 -50 45 -42 0 4 -5 13
-12 20 -8 8 -8 12 -1 12 15 0 36 -27 29 -38 -3 -5 1 -9 9 -9 18 0 19 9 3 25
-8 8 -8 12 -1 12 6 0 16 -7 23 -15 10 -12 10 -18 -1 -32 -12 -17 -12 -17 6 -1
15 14 16 20 5 32 -7 9 -8 16 -2 16 23 0 32 -26 16 -48 -15 -22 -14 -24 16 -26
8 -1 14 -7 13 -12 -1 -6 15 -10 35 -10 30 1 37 5 37 20 0 11 5 21 11 23 15 5
11 -32 -6 -52 -7 -9 -19 -14 -27 -11 -8 4 -11 1 -8 -5 4 -6 13 -8 20 -5 8 3
16 2 18 -2 2 -4 2 -1 1 6 -4 15 1 15 27 2 10 -6 19 -16 19 -22 0 -7 -5 -6 -15
2 -10 9 -15 9 -15 1 0 -10 14 -15 24 -8 2 1 14 -7 27 -18 19 -17 18 -14 -5 17
-17 23 -25 42 -20 50 6 11 5 11 -8 0 -13 -11 -15 -9 -15 13 0 20 2 23 13 14
10 -8 14 -8 14 0 0 6 -5 11 -10 11 -6 0 -9 6 -8 13 2 7 -5 11 -16 9 -13 -2
-16 1 -10 10 6 11 5 11 -8 0 -9 -7 -18 -9 -20 -5 -3 4 -3 2 -2 -4 2 -7 0 -13
-5 -13 -15 0 -20 13 -12 29 7 13 0 25 -32 51 -22 19 -38 30 -34 24 3 -6 0 -20
-8 -31 -15 -22 -56 -24 -63 -3 -3 9 0 10 9 4 12 -6 12 -5 0 9 -8 10 -11 20 -8
23 3 3 12 -3 19 -15 7 -12 16 -21 21 -21 4 0 5 5 2 10 -3 6 -1 10 4 10 6 0 11
5 11 11 0 8 -5 8 -15 -1 -17 -14 -20 -1 -5 18 7 9 7 9 -2 2 -17 -14 -34 -12
-20 2 7 7 12 17 12 22 0 6 -7 0 -16 -12 -8 -12 -20 -22 -26 -22 -6 0 -4 8 5
18 15 16 15 19 -3 30 -11 6 -27 9 -36 5 -12 -4 -15 -3 -10 6 5 7 1 20 -9 31
-9 10 -14 23 -11 28 3 5 -5 20 -17 33 -12 13 -20 25 -19 27 2 2 0 7 -4 10 -4
4 -4 1 0 -5 4 -7 3 -13 -2 -13 -10 0 -26 29 -24 43 1 4 -2 7 -8 7 -5 0 -10 -4
-10 -9 0 -6 5 -13 10 -16 6 -3 10 -11 10 -17 0 -6 -9 -3 -20 7 -11 10 -17 22
-14 26 3 5 0 9 -6 9 -7 0 -9 -8 -4 -22 6 -20 5 -21 -9 -9 -9 7 -14 17 -11 22
3 5 1 9 -5 9 -5 0 -12 -6 -15 -12 -3 -9 -8 -8 -16 5 -6 9 -16 17 -23 17 -7 0
-6 -4 3 -10z m105 -50 c0 -1 8 -3 18 -5 35 -7 54 -33 51 -71 -1 -23 2 -37 12
-41 8 -3 11 -10 8 -15 -4 -6 4 -5 16 2 15 8 25 9 32 2 15 -15 -1 -34 -22 -27
-10 3 -21 1 -25 -5 -11 -18 -44 7 -38 30 3 11 0 27 -7 35 -10 12 -10 18 0 30
10 12 10 18 0 30 -7 9 -19 14 -27 11 -8 -3 -16 1 -20 9 -4 11 -9 13 -18 5 -9
-7 -16 -6 -24 4 -11 13 -8 14 16 12 15 -2 28 -5 28 -6z m95 -100 c0 -5 -4 -10
-10 -10 -5 0 -10 5 -10 10 0 6 5 10 10 10 6 0 10 -4 10 -10z m198 -137 c2 -1
-6 -11 -17 -22 -11 -11 -16 -23 -11 -26 6 -4 10 -1 10 5 0 6 5 8 10 5 8 -5 7
-12 -2 -23 -7 -9 2 -6 22 8 19 13 30 17 23 10 -6 -7 -9 -18 -7 -24 6 -16 -45
-15 -55 2 -4 7 -15 10 -26 6 -17 -7 -17 -6 0 19 9 15 22 27 27 27 5 0 6 5 2
11 -5 8 -8 8 -14 0 -10 -18 -32 12 -24 33 6 15 9 15 33 -6 14 -13 28 -24 29
-25z"/>
<path d="M2940 1661 c0 -6 4 -13 10 -16 6 -3 7 1 4 9 -7 18 -14 21 -14 7z"/>
<path d="M3115 1580 c3 -5 8 -10 11 -10 2 0 4 5 4 10 0 6 -5 10 -11 10 -5 0
-7 -4 -4 -10z"/>
<path d="M263 1769 c9 -6 15 -14 12 -20 -4 -5 -1 -9 4 -9 6 0 11 7 11 16 0 11
6 14 23 8 12 -3 19 -3 15 1 -4 4 -24 9 -45 11 -30 2 -34 0 -20 -7z"/>
<path d="M372 1758 c3 -7 12 -14 22 -14 13 -2 13 -1 1 3 -8 2 -13 9 -10 14 4
5 1 9 -5 9 -7 0 -10 -6 -8 -12z"/>
<path d="M2970 1744 c1 -13 29 -48 34 -43 2 2 -4 15 -15 28 -10 13 -19 19 -19
15z"/>
<path d="M328 1722 c-16 -9 -28 -20 -28 -25 0 -4 9 -2 20 6 12 8 36 12 60 10
22 -2 40 0 40 4 0 5 -8 9 -17 9 -10 1 -25 4 -33 7 -8 4 -27 -1 -42 -11z"/>
<path d="M2853 1725 c0 -8 4 -12 9 -9 4 3 8 9 8 15 0 5 -4 9 -8 9 -5 0 -9 -7
-9 -15z"/>
<path d="M422 1703 c-10 -4 -10 -8 -1 -19 7 -8 7 -14 1 -14 -5 0 -15 6 -21 14
-12 14 -64 16 -78 3 -4 -5 1 -5 12 -1 18 7 19 6 5 -12 -8 -10 -11 -16 -6 -12
5 4 18 2 29 -3 16 -9 17 -13 6 -20 -10 -7 -5 -8 14 -5 22 4 27 2 23 -9 -3 -10
0 -12 12 -8 14 5 15 3 5 -8 -7 -7 -13 -18 -13 -23 0 -6 5 -3 11 7 5 9 15 17
21 17 7 0 6 -5 -2 -15 -10 -12 -10 -18 0 -30 7 -8 17 -15 23 -15 6 0 3 6 -7
13 -16 12 -17 15 -3 29 14 14 13 17 -11 28 l-27 12 23 11 c12 5 22 14 22 20 0
5 -6 4 -14 -2 -20 -17 -58 -23 -53 -8 2 7 12 12 22 12 12 0 19 8 20 23 1 12 1
22 1 21 -1 0 -7 -3 -14 -6z m-27 -22 c8 -14 -10 -22 -30 -15 -13 5 -14 8 -3
15 17 11 26 11 33 0z"/>
<path d="M2870 1700 c0 -6 4 -9 9 -5 5 3 12 -2 14 -10 4 -12 5 -12 3 1 -1 19
-26 32 -26 14z"/>
<path d="M470 1671 c0 -5 7 -12 16 -15 14 -5 15 -4 4 9 -14 17 -20 19 -20 6z"/>
<path d="M475 1641 c6 -11 4 -13 -9 -8 -10 4 -15 3 -11 -3 3 -5 19 -8 36 -6
23 3 29 0 25 -11 -3 -8 -6 -17 -6 -19 0 -2 -5 -4 -11 -4 -5 0 -7 5 -4 10 3 6
1 10 -5 10 -7 0 -10 -6 -8 -12 5 -14 66 -20 74 -7 3 5 -3 6 -13 2 -16 -6 -17
-5 -3 12 8 10 10 16 4 12 -7 -4 -15 0 -18 9 -3 8 -11 12 -16 9 -6 -4 -18 -1
-27 7 -14 11 -16 11 -8 -1z"/>
<path d="M4366 1605 c2 -31 0 -34 -12 -24 -8 6 -12 19 -9 29 3 10 0 17 -8 17
-9 0 -12 -7 -9 -19 2 -10 -1 -18 -7 -18 -6 0 -11 -5 -11 -11 0 -8 5 -8 15 1
16 14 18 10 9 -14 -3 -9 -10 -13 -15 -10 -5 3 -9 1 -9 -4 0 -6 11 -9 24 -8 17
1 21 4 15 12 -7 8 -2 12 16 12 19 0 23 -4 15 -13 -19 -23 21 -28 42 -5 10 11
23 20 28 20 6 0 10 5 10 10 0 6 -11 4 -24 -5 -21 -14 -25 -14 -47 4 -13 11
-21 22 -17 26 4 4 15 0 24 -9 20 -21 40 -15 36 9 -3 17 -2 17 15 4 16 -13 17
-13 4 3 -7 10 -17 15 -23 12 -5 -3 -17 0 -26 7 -9 8 -6 1 7 -14 31 -34 16 -35
-20 -1 l-26 25 3 -36z m44 -55 c0 -5 -4 -10 -10 -10 -5 0 -10 5 -10 10 0 6 5
10 10 10 6 0 10 -4 10 -10z"/>
<path d="M4965 1610 c-3 -6 1 -7 9 -4 18 7 21 14 7 14 -6 0 -13 -4 -16 -10z"/>
<path d="M1761 1591 c-8 -5 -9 -11 -3 -15 5 -3 12 1 16 9 6 17 6 18 -13 6z"/>
<path d="M4281 1583 c-5 -10 -12 -17 -15 -16 -12 5 -36 -10 -30 -19 3 -5 12
-1 20 9 14 17 15 17 10 -2 -3 -11 -2 -26 3 -34 12 -19 2 -49 -20 -56 -10 -4
-19 -13 -19 -21 0 -8 -4 -14 -9 -14 -14 0 -6 53 9 58 9 3 10 0 4 -9 -7 -12 -5
-12 9 0 22 18 21 26 -5 51 -16 14 -24 17 -29 8 -4 -7 -5 -16 -3 -20 3 -4 0 -8
-5 -8 -6 0 -11 5 -11 12 0 6 -2 9 -5 6 -3 -3 -3 -13 1 -22 5 -13 9 -14 20 -5
11 9 14 9 14 0 0 -19 -32 -26 -44 -10 -17 22 -52 18 -48 -5 3 -18 2 -18 -15
-6 -11 9 -14 9 -7 1 13 -14 7 -51 -7 -51 -5 0 -8 10 -6 21 1 14 -4 23 -16 24
-9 2 -15 0 -13 -4 3 -4 -4 -12 -15 -19 -11 -7 -19 -8 -19 -2 0 5 -5 10 -11 10
-5 0 -8 -4 -5 -9 3 -5 -1 -11 -9 -15 -8 -3 -15 0 -15 6 0 7 -4 7 -13 -1 -8 -6
-17 -7 -21 -3 -4 4 -7 3 -6 -3 6 -28 -1 -44 -20 -42 -11 1 -18 6 -16 12 2 5 9
9 15 8 6 -2 11 1 11 6 0 6 -9 9 -19 8 -11 0 -17 -5 -15 -9 3 -4 0 -8 -7 -8 -9
0 -9 -3 1 -14 9 -12 8 -15 -9 -13 -24 1 -24 2 -12 26 7 13 6 18 -4 18 -7 0
-11 -6 -8 -13 2 -7 -5 -19 -16 -26 -12 -7 -21 -16 -21 -21 0 -4 5 -5 10 -2 6
3 10 1 10 -4 0 -6 -4 -11 -10 -11 -5 0 -10 -5 -10 -10 0 -6 8 -5 19 2 14 9 17
16 10 25 -8 9 -5 11 10 10 13 -1 20 -6 17 -14 -8 -20 8 -16 21 5 17 28 53 21
68 -14 8 -16 14 -23 14 -15 1 7 7 11 14 8 7 -3 13 5 13 19 l2 24 -19 -23 c-10
-12 -18 -17 -19 -10 0 6 4 14 10 18 11 7 2 35 -12 35 -6 0 -4 -7 3 -17 12 -14
12 -16 -1 -11 -23 7 -19 43 5 45 11 1 30 4 43 7 16 3 22 1 19 -7 -2 -7 -11
-11 -20 -9 -8 1 -18 -2 -22 -8 -3 -6 0 -7 9 -4 16 6 21 -9 17 -46 -2 -13 -1
-13 8 0 9 12 11 12 11 1 0 -10 3 -11 13 -2 8 6 17 8 20 4 4 -3 7 -1 7 5 0 7
-10 11 -22 9 -17 -1 -23 3 -23 17 0 11 7 22 15 24 13 5 13 3 1 -11 -9 -11 -10
-17 -2 -17 6 0 11 6 11 13 0 8 4 7 10 -3 5 -8 10 -11 10 -6 0 6 -9 19 -20 31
-19 20 -19 21 1 33 19 12 20 11 15 -6 -4 -11 0 -24 9 -32 9 -7 13 -22 10 -34
-3 -12 -2 -15 1 -8 3 6 11 9 16 6 7 -4 8 -2 4 4 -4 7 -3 12 3 12 5 0 12 -6 14
-12 4 -10 6 -10 6 0 1 8 -8 16 -19 19 -24 6 -24 6 -5 44 9 16 13 35 9 41 -5 8
-2 9 10 5 10 -4 20 -7 23 -7 4 0 -1 -8 -9 -17 -34 -41 -24 -72 19 -56 12 5 14
3 8 -7 -6 -9 -4 -11 4 -6 9 6 8 12 -4 26 -11 12 -12 20 -5 23 6 3 5 4 -2 3 -7
-2 -12 -10 -10 -20 2 -9 -2 -16 -8 -16 -13 0 -13 33 1 47 17 17 51 4 44 -17
-10 -30 15 -33 41 -5 13 14 29 23 34 20 6 -4 7 1 3 11 -4 11 2 23 18 36 23 18
23 19 2 8 -16 -7 -23 -7 -23 0 0 5 5 10 10 10 6 0 10 5 10 11 0 8 -6 7 -17 -2
-15 -12 -16 -12 -10 4 4 10 7 21 7 23 0 3 4 3 8 0 4 -2 8 4 8 15 0 23 -2 24
-15 2z m-41 -68 c20 -24 6 -28 -15 -5 -10 11 -13 20 -8 20 6 0 16 -7 23 -15z"/>
<path d="M4930 1596 c0 -2 7 -7 16 -10 8 -3 12 -2 9 4 -6 10 -25 14 -25 6z"/>
<path d="M460 1581 c0 -5 10 -13 22 -17 21 -6 21 -7 3 -20 -17 -13 -17 -14 -1
-14 9 0 15 -4 11 -9 -3 -6 8 -8 26 -6 26 4 29 2 19 -10 -13 -16 -4 -20 29 -16
7 2 10 -2 6 -8 -3 -6 -1 -11 5 -11 6 0 8 -5 4 -12 -6 -10 -4 -10 8 0 22 18 60
24 55 9 -2 -7 -12 -11 -21 -9 -15 3 -15 1 1 -17 15 -18 19 -19 33 -6 25 22 36
18 15 -5 -23 -25 -15 -26 13 -2 l22 19 -28 13 -27 12 23 11 c12 5 22 14 22 20
0 5 -6 4 -14 -2 -20 -17 -58 -23 -53 -8 2 7 11 11 19 9 9 -1 22 6 29 15 13 16
12 17 -4 4 -9 -8 -21 -11 -24 -7 -4 4 -2 11 5 15 8 5 1 8 -18 8 -24 0 -28 -3
-16 -9 17 -9 13 -28 -5 -28 -6 0 -7 4 -4 10 3 5 0 7 -7 5 -9 -4 -14 2 -15 15
-1 12 5 20 15 21 11 0 12 2 4 6 -6 2 -10 10 -6 16 3 7 -2 3 -10 -8 -9 -11 -14
-25 -12 -32 3 -7 1 -13 -3 -13 -5 0 -11 5 -13 11 -3 9 -10 9 -26 0 -22 -11
-42 -8 -42 7 0 4 9 9 20 10 42 4 48 6 59 24 6 10 7 18 2 18 -5 0 -11 -4 -13
-10 -5 -16 -66 -18 -88 -3 -11 8 -20 10 -20 4z m149 -102 c-8 -4 -18 -1 -24 8
-7 9 -17 13 -23 9 -6 -4 -10 1 -9 12 1 18 2 18 35 -1 24 -14 30 -22 21 -28z
m51 -34 c-7 -9 -15 -13 -17 -11 -7 7 7 26 19 26 6 0 6 -6 -2 -15z"/>
<path d="M1786 1574 c-5 -14 -4 -15 8 -5 11 9 14 7 14 -14 0 -24 -12 -34 -21
-17 -2 4 -2 1 0 -6 2 -8 -6 -16 -17 -19 -11 -3 -20 -10 -20 -15 0 -5 4 -7 9
-3 5 3 12 1 16 -5 3 -5 0 -10 -8 -10 -8 0 -18 -7 -21 -16 -4 -11 2 -10 24 6
27 20 43 39 20 25 -5 -3 -10 -2 -10 4 0 18 19 22 28 5 6 -11 9 -1 8 32 -1 48
-18 69 -30 38z"/>
<path d="M4806 1565 c4 -8 1 -15 -5 -15 -6 0 -11 5 -11 11 0 5 -11 -3 -24 -18
-13 -15 -23 -30 -20 -32 2 -2 12 7 23 20 11 13 20 19 21 12 0 -6 -5 -15 -11
-19 -18 -11 12 -24 32 -14 13 7 21 4 31 -12 15 -22 15 -22 13 10 -2 34 3 39
23 22 9 -7 9 -7 2 2 -17 21 -11 32 9 14 16 -15 19 -15 24 -2 4 10 1 13 -9 9
-7 -3 -14 -1 -14 5 0 6 6 12 13 15 6 2 -2 4 -20 3 -17 -1 -35 -5 -40 -9 -4 -5
1 -5 12 -1 18 7 19 6 6 -9 -13 -17 -15 -16 -33 3 -22 24 -30 26 -22 5z m32
-27 c17 -17 15 -33 -3 -18 -12 10 -18 10 -30 0 -8 -7 -15 -8 -15 -3 0 10 21
33 30 33 3 0 11 -5 18 -12z"/>
<path d="M1735 1559 c4 -6 1 -10 -6 -8 -32 4 -42 -1 -30 -15 9 -10 7 -16 -5
-27 -18 -15 -53 -19 -60 -7 -5 8 9 12 33 9 6 -1 14 3 18 9 4 7 -3 9 -19 6 -39
-7 -49 -16 -35 -32 12 -14 6 -44 -9 -44 -4 0 -18 9 -30 20 -22 21 -29 16 -13
-8 4 -8 12 -13 17 -12 5 1 10 -2 11 -7 2 -5 -6 -9 -17 -10 -11 -1 -20 4 -20
13 0 8 -5 14 -11 14 -5 0 -7 5 -3 12 4 7 3 8 -4 4 -9 -5 -7 -14 4 -31 13 -20
22 -24 45 -20 20 4 31 0 38 -12 8 -15 10 -13 9 12 -1 57 1 64 22 62 11 -1 18
-6 16 -12 -2 -5 -9 -9 -15 -7 -6 1 -11 -2 -11 -8 0 -13 11 -12 32 4 13 10 15
15 6 24 -14 14 1 16 21 3 11 -7 9 -13 -9 -31 -12 -12 -18 -25 -14 -28 3 -4 9
-1 11 6 3 6 8 10 12 8 7 -5 9 2 12 42 2 21 19 43 28 38 4 -3 8 5 8 16 2 20 1
20 -13 2 -14 -18 -15 -18 -9 4 4 13 2 22 -5 22 -6 0 -8 -5 -5 -11z m-6 -23 c8
-10 8 -16 -3 -25 -11 -9 -13 -7 -13 14 0 29 1 30 16 11z"/>
<path d="M4475 1561 c6 -11 4 -13 -8 -8 -23 9 -21 0 2 -13 15 -7 19 -7 17 5
-1 8 -6 18 -11 22 -4 5 -5 2 0 -6z"/>
<path d="M1833 1533 c0 -15 2 -22 4 -15 3 6 10 9 16 5 7 -4 5 2 -3 13 -8 10
-15 20 -16 22 -1 2 -1 -10 -1 -25z"/>
<path d="M4425 1530 c-3 -10 -13 -24 -22 -32 -15 -11 -16 -11 -9 7 5 15 4 17
-5 8 -13 -13 -3 -37 12 -28 5 4 9 1 9 -4 0 -6 5 -11 11 -11 8 0 8 5 -1 15 -9
11 -9 15 -1 15 17 0 26 -29 13 -42 -8 -8 -16 -7 -29 3 -16 13 -17 12 -4 -3 7
-10 10 -18 7 -18 -17 0 48 -69 74 -80 17 -7 27 -17 23 -24 -4 -8 -2 -8 7 1 9
8 16 7 31 -5 20 -17 52 -26 43 -11 -8 13 10 11 25 -3 9 -9 12 -9 7 -1 -4 8 4
11 28 9 19 -2 43 4 56 14 l22 16 -26 17 c-21 14 -35 10 -23 -6 7 -11 -27 -35
-47 -33 -26 3 -48 15 -43 24 2 4 -4 15 -14 24 -17 16 -18 15 -15 -10 1 -15 8
-26 14 -25 14 3 16 -13 3 -21 -14 -9 -39 27 -37 53 2 13 10 29 20 36 15 11 15
13 1 19 -9 3 -13 2 -10 -4 8 -13 -6 -13 -25 0 -10 7 -11 13 -4 18 6 4 4 13 -8
25 -10 9 -18 13 -18 9 0 -4 5 -13 12 -20 15 -15 3 -16 -23 -2 -10 6 -19 7 -19
3 0 -5 10 -13 23 -18 12 -6 21 -18 21 -28 -2 -13 1 -15 11 -7 9 8 13 4 13 -15
0 -20 -3 -23 -14 -14 -10 8 -14 8 -14 0 0 -6 5 -11 10 -11 6 0 10 -4 10 -10 0
-6 -11 -5 -26 2 -15 7 -21 14 -15 16 6 2 11 8 11 13 0 6 -4 7 -10 4 -5 -3 -10
-1 -10 4 0 6 5 11 10 11 6 0 10 5 10 11 0 8 -6 7 -17 -2 -15 -12 -16 -12 -10
3 4 12 2 15 -8 12 -9 -4 -12 1 -10 13 2 10 4 24 4 32 1 8 7 11 17 7 9 -3 12
-2 9 4 -4 6 -14 9 -23 8 -9 -2 -18 5 -20 15 -2 9 2 17 8 17 6 0 8 -6 4 -12 -4
-7 -4 -10 1 -6 4 4 16 3 26 -3 31 -16 21 5 -11 23 -28 16 -29 16 -35 -2z m12
-86 c-3 -4 3 -18 13 -32 11 -14 18 -28 15 -31 -3 -3 -17 8 -29 24 -17 21 -21
32 -13 37 15 9 23 10 14 2z m260 -82 c9 -6 7 -11 -7 -20 -16 -10 -18 -9 -17 8
1 22 6 24 24 12z"/>
<path d="M4313 1504 c-12 -13 -18 -26 -14 -28 4 -3 13 4 21 14 8 10 17 17 20
15 4 -2 7 2 7 10 0 20 -8 17 -34 -11z"/>
<path d="M710 1514 c0 -5 9 -15 21 -22 12 -7 18 -16 15 -19 -3 -3 -11 -1 -19
5 -8 7 -18 7 -27 2 -16 -11 -15 -11 48 -15 23 -1 45 2 48 6 3 5 -2 6 -10 3
-10 -4 -16 -1 -16 7 0 7 -3 9 -7 6 -3 -4 -17 3 -30 15 -13 12 -23 17 -23 12z"/>
<path d="M3283 1503 c-7 -3 -13 -9 -13 -14 0 -4 6 -6 13 -3 8 3 13 -4 14 -17
2 -17 -1 -18 -13 -9 -10 9 -14 9 -14 1 0 -6 5 -11 11 -11 5 0 8 -4 5 -9 -3 -4
3 -16 14 -26 11 -10 18 -21 15 -25 -2 -4 2 -7 10 -7 11 0 12 4 4 14 -14 17 3
17 20 1 11 -11 11 -9 0 9 -10 16 -16 19 -26 11 -8 -6 -13 -7 -13 0 0 10 29 38
33 31 21 -37 37 -68 37 -73 0 -3 -8 -3 -17 0 -15 5 -15 4 -3 -4 10 -8 19 -7
28 1 8 6 35 12 61 13 25 1 49 2 54 3 12 2 8 19 -7 24 -9 4 -13 1 -10 -6 2 -7
-4 -13 -16 -14 -11 -1 -20 2 -20 8 0 5 5 9 12 9 6 0 8 3 5 6 -4 4 -13 1 -22
-6 -17 -14 -21 0 -5 16 8 8 6 15 -6 24 -23 20 -47 22 -40 3 3 -8 6 -17 6 -19
0 -2 4 -4 10 -4 5 0 6 8 3 18 -6 15 -5 15 11 3 16 -13 16 -16 2 -26 -11 -8
-12 -15 -5 -22 7 -7 3 -10 -15 -10 -20 0 -24 2 -16 12 8 10 6 13 -7 11 -10 0
-18 7 -20 19 -1 11 0 14 3 8 3 -7 10 -13 16 -13 6 0 6 6 -2 15 -6 8 -8 20 -4
27 4 7 3 10 -1 5 -5 -4 -18 1 -29 10 -21 18 -21 18 -2 -5 11 -12 17 -24 14
-27 -3 -3 -11 1 -17 9 -7 8 -20 12 -28 9 -9 -4 -14 -2 -10 3 8 14 -6 32 -20
27z m37 -58 c-7 -8 -17 -15 -23 -15 -5 0 -2 9 8 20 21 23 35 19 15 -5z"/>
<path d="M4715 1494 c-7 -17 -8 -40 -3 -81 1 -7 5 -10 10 -7 4 3 8 0 8 -6 0
-6 -8 -10 -17 -8 -10 2 -17 11 -15 20 1 9 -2 19 -8 23 -5 3 -7 0 -4 -8 3 -9
-2 -16 -13 -19 -23 -6 -45 1 -38 13 4 5 -2 6 -11 2 -11 -4 -13 -8 -6 -11 21
-7 13 -22 -10 -18 -13 3 -25 5 -28 5 -3 1 2 6 10 11 9 6 10 10 3 10 -13 0 -28
-19 -20 -26 11 -11 52 -13 64 -3 9 8 13 8 13 1 0 -6 -4 -14 -10 -17 -13 -8
-13 -25 1 -25 5 0 8 3 5 8 -2 4 2 16 10 26 12 17 17 18 39 6 14 -7 28 -10 32
-7 3 4 13 1 21 -6 10 -8 9 -2 -4 18 -18 27 -18 29 -1 22 10 -4 21 -7 23 -7 3
0 2 -6 -2 -12 -4 -7 -3 -10 1 -6 5 5 9 24 11 44 2 29 -2 37 -21 44 -13 5 -25
14 -27 21 -3 8 -7 6 -13 -7z m51 -46 c-3 -22 -16 -36 -16 -18 0 10 -3 10 -15
0 -16 -13 -17 -10 -17 30 0 29 0 29 27 17 14 -7 23 -19 21 -29z"/>
<path d="M4725 1450 c-3 -6 1 -7 9 -4 18 7 21 14 7 14 -6 0 -13 -4 -16 -10z"/>
<path d="M4778 1484 c17 -9 32 -21 32 -26 0 -5 -4 -6 -10 -3 -5 3 -10 1 -10
-4 0 -14 17 -14 26 0 8 13 -33 49 -56 49 -8 0 0 -8 18 -16z"/>
<path d="M4822 1480 c7 -10 14 -18 15 -16 6 6 -9 36 -18 36 -5 0 -4 -9 3 -20z"/>
<path d="M1600 1480 c20 -13 33 -13 25 0 -3 6 -14 10 -23 10 -15 0 -15 -2 -2
-10z"/>
<path d="M797 1455 c-11 -7 -25 -11 -33 -8 -8 3 -14 0 -14 -6 0 -6 -5 -11 -11
-11 -5 0 -7 5 -4 10 3 6 1 10 -4 10 -6 0 -11 -4 -11 -9 0 -17 20 -23 35 -11
17 14 20 -1 4 -17 -12 -12 -40 -6 -51 11 -4 6 -6 1 -6 -10 2 -16 8 -20 30 -19
23 1 28 -2 23 -14 -3 -8 -3 -12 1 -8 4 4 14 1 23 -6 13 -10 12 -8 -1 12 -13
19 -14 27 -5 42 16 25 31 24 17 -1 -8 -16 -7 -26 7 -45 10 -13 22 -25 27 -25
5 0 3 7 -4 15 -19 23 2 18 40 -10 19 -14 39 -25 44 -25 6 0 -4 9 -22 20 -23
15 -32 26 -28 37 5 13 4 13 -8 4 -11 -9 -13 -7 -13 14 0 20 2 23 13 14 10 -8
14 -8 14 0 0 6 -5 11 -11 11 -8 0 -7 5 1 15 11 13 10 14 -4 9 -9 -3 -17 -11
-18 -18 0 -6 -2 -15 -2 -21 -4 -30 -36 -43 -36 -14 0 6 5 7 10 4 6 -4 9 3 7
17 -2 13 3 28 12 35 9 7 12 12 6 12 -5 0 -18 -6 -28 -14z"/>
<path d="M1520 1463 c0 -7 -7 -10 -17 -7 -15 5 -15 4 -3 -5 8 -5 11 -13 7 -17
-3 -4 -15 -1 -24 7 -10 7 -8 2 5 -12 14 -17 20 -33 17 -45 -6 -17 -5 -17 5 -2
6 10 17 15 27 11 11 -4 14 -3 9 5 -4 7 -14 12 -22 12 -16 0 -18 9 -5 29 6 9
11 10 15 2 4 -6 4 -11 0 -11 -4 0 1 -6 11 -14 22 -16 13 -51 -11 -42 -8 3 -12
2 -9 -3 3 -5 -4 -13 -16 -16 -11 -4 -18 -9 -15 -12 3 -3 20 3 38 14 19 11 41
19 50 17 9 -1 24 7 34 17 9 10 12 19 6 19 -6 0 -12 -5 -14 -12 -5 -14 -38 -20
-38 -7 0 6 -11 27 -25 47 -14 20 -25 31 -25 25z"/>
<path d="M870 1438 c0 -4 5 -8 10 -8 6 0 10 -5 10 -11 0 -5 -4 -7 -10 -4 -5 3
-10 1 -10 -5 0 -7 8 -9 22 -4 20 6 21 5 9 -9 -7 -9 -17 -14 -22 -11 -5 3 -9 2
-9 -2 0 -9 32 -33 44 -34 6 0 2 6 -8 13 -17 12 -16 14 13 14 24 0 28 -3 20
-14 -11 -13 -1 -18 25 -14 5 1 6 -5 2 -14 -3 -10 -2 -14 5 -10 6 4 8 14 5 22
-4 9 -1 13 6 10 7 -2 12 -13 10 -24 -2 -17 3 -20 32 -19 26 1 32 4 24 13 -7 9
-16 10 -29 2 -11 -5 -19 -6 -19 0 0 5 7 12 16 15 8 3 13 10 10 15 -11 17 22
20 36 4 11 -15 11 -16 -5 -10 -15 5 -14 2 5 -23 20 -28 37 -42 23 -20 -9 14 8
13 23 -2 9 -9 15 -9 24 0 14 14 32 16 24 4 -3 -5 1 -9 7 -9 7 0 12 12 12 26
-2 36 13 53 35 41 13 -7 16 -18 14 -42 -3 -22 -1 -28 5 -19 5 8 6 21 3 30 -5
14 -3 14 11 2 9 -7 17 -9 17 -4 0 5 -18 20 -39 33 -21 14 -37 28 -34 33 2 4
-1 7 -7 7 -7 0 -9 -8 -5 -22 6 -19 5 -21 -6 -11 -10 10 -15 9 -25 -5 -16 -21
-17 -32 -4 -32 5 0 9 5 7 11 -1 6 3 13 8 15 6 2 11 -4 12 -15 2 -22 -30 -34
-46 -18 -16 16 -14 26 15 52 15 14 22 25 15 25 -6 0 -14 -7 -17 -15 -4 -8 -10
-12 -16 -9 -5 3 -4 13 4 22 11 15 11 15 -3 5 -9 -7 -19 -10 -22 -6 -4 3 -19 6
-34 7 -16 1 -35 6 -43 11 -13 8 -13 7 -1 -8 7 -9 17 -15 21 -12 5 3 11 1 14
-4 10 -16 -22 -20 -35 -5 -6 8 -17 13 -23 11 -6 -3 -19 0 -28 5 -11 5 -18 5
-18 -1 0 -13 27 -21 48 -14 16 5 16 5 0 -12 -16 -17 -18 -17 -42 -1 -14 9 -26
12 -26 6 0 -5 -5 -10 -11 -10 -6 0 -9 6 -6 14 3 8 -1 20 -8 26 -8 7 -13 16
-10 19 2 4 -2 8 -10 8 -8 0 -15 -4 -15 -9z m240 -56 c0 -4 -4 -13 -9 -21 -6
-10 -3 -20 12 -33 12 -11 15 -17 7 -14 -8 3 -23 9 -33 12 -10 4 -16 12 -13 19
2 7 0 17 -5 22 -5 5 -7 17 -3 26 5 13 10 14 25 6 10 -5 19 -13 19 -17z m-93
-12 c-1 -20 -9 -25 -20 -13 -4 3 -2 12 4 20 15 18 18 17 16 -7z m-47 -4 c0 -3
-4 -8 -10 -11 -5 -3 -10 -1 -10 4 0 6 5 11 10 11 6 0 10 -2 10 -4z"/>
<path d="M1075 1380 c-3 -5 -1 -10 4 -10 6 0 11 5 11 10 0 6 -2 10 -4 10 -3 0
-8 -4 -11 -10z"/>
<path d="M1450 1436 c0 -10 -5 -14 -10 -11 -6 3 -13 -1 -16 -9 -3 -9 -10 -16
-15 -16 -6 0 -5 10 1 23 10 20 10 21 -3 4 -11 -13 -16 -15 -19 -5 -3 7 -5 -2
-5 -20 0 -18 3 -29 6 -23 9 14 43 17 48 5 2 -7 -4 -11 -14 -10 -10 0 -18 -4
-18 -11 0 -7 -5 -17 -11 -23 -19 -19 -62 15 -58 45 3 29 -13 42 -29 26 -9 -9
-8 -11 3 -6 11 4 16 -1 17 -15 2 -19 -11 -28 -20 -12 -2 4 -2 1 0 -6 1 -8 -3
-12 -9 -9 -7 2 -13 15 -12 30 1 22 -2 25 -16 17 -11 -6 -22 -5 -30 3 -12 10
-12 9 -1 -5 15 -20 2 -25 -17 -6 -6 6 -14 9 -18 6 -13 -14 36 -29 56 -18 25
13 26 2 3 -16 -15 -11 -15 -13 -2 -9 13 5 16 -1 14 -30 -2 -27 0 -33 10 -25 6
5 15 7 18 3 4 -3 7 -1 7 6 0 8 -7 11 -15 7 -17 -6 -20 9 -4 20 7 4 21 -4 32
-17 l19 -24 -16 28 c-9 15 -12 27 -7 27 6 0 14 -8 20 -17 5 -10 12 -17 15 -15
16 6 19 0 6 -9 -12 -9 -11 -9 5 -4 11 4 29 9 40 10 11 2 20 4 20 5 0 1 8 3 18
5 47 9 58 51 25 94 -14 19 -18 20 -18 7z m25 -49 c1 -18 -6 -32 -17 -38 -10
-5 -18 -7 -18 -3 0 3 -6 1 -14 -6 -12 -9 -15 -8 -13 9 1 16 7 20 25 16 23 -4
23 -3 8 20 -21 31 -20 32 7 31 17 -1 22 -7 22 -29z"/>
<path d="M3465 1440 c-3 -5 -1 -10 4 -10 6 0 11 5 11 10 0 6 -2 10 -4 10 -3 0
-8 -4 -11 -10z"/>
<path d="M3490 1445 c0 -4 8 -13 17 -20 16 -12 29 -56 15 -54 -4 1 -13 1 -21
0 -11 -1 -11 -4 0 -17 12 -15 11 -16 -9 -10 -12 4 -22 3 -22 -2 0 -5 10 -9 23
-8 15 1 21 7 19 19 -2 10 3 16 10 15 7 -2 12 5 12 15 -2 17 7 22 19 10 4 -3 0
-16 -8 -29 -12 -19 -12 -23 0 -28 10 -3 12 0 8 11 -4 11 -2 14 5 9 8 -5 10 -1
5 11 -5 15 -2 14 16 -4 25 -26 27 -35 6 -27 -8 4 -15 2 -15 -4 0 -6 8 -9 18
-8 9 2 17 11 17 20 0 9 7 21 15 26 8 5 10 10 5 10 -6 0 -16 -5 -23 -12 -7 -7
-12 -8 -12 -2 0 17 21 32 40 27 11 -3 18 -14 18 -29 0 -21 -3 -23 -16 -12 -13
11 -14 11 -8 0 4 -7 3 -19 -3 -26 -8 -9 -7 -13 4 -13 8 0 12 4 10 8 -3 4 2 9
9 12 9 4 14 18 13 38 -1 20 3 34 12 37 8 3 11 0 7 -7 -4 -7 -2 -10 5 -9 6 2
14 -3 16 -10 3 -8 -1 -10 -11 -6 -9 3 -16 1 -16 -6 0 -6 4 -9 9 -6 14 9 32
-20 24 -40 -7 -18 -6 -18 11 -1 9 9 22 17 28 17 6 0 6 6 -2 15 -15 18 1 20 18
3 16 -16 15 -28 -3 -28 -8 0 -15 -5 -15 -11 0 -11 15 -4 43 19 9 8 17 11 17 7
0 -5 -8 -18 -17 -29 -18 -21 -18 -21 3 -3 17 14 23 15 27 5 2 -7 4 -1 3 14 0
14 -4 24 -7 22 -4 -2 -10 3 -13 12 -4 10 -12 14 -23 10 -10 -4 -26 2 -41 16
-14 13 -22 17 -17 9 5 -9 3 -12 -6 -9 -8 3 -13 10 -12 15 1 5 -14 9 -34 10
-24 0 -31 -2 -22 -8 11 -7 11 -9 -3 -9 -9 0 -21 8 -27 17 -5 10 -13 14 -18 9
-4 -5 -2 -11 5 -13 10 -4 10 -8 1 -19 -13 -15 -34 -20 -25 -5 4 5 3 16 0 25
-5 13 -9 14 -20 5 -12 -9 -20 -7 -39 11 -14 13 -25 20 -25 15z m80 -45 c0 -5
-2 -10 -4 -10 -3 0 -8 5 -11 10 -3 6 -1 10 4 10 6 0 11 -4 11 -10z m158 -35
c0 -21 -3 -23 -14 -14 -11 9 -11 15 -3 25 15 19 17 18 17 -11z m62 -5 c0 -5
-4 -10 -10 -10 -5 0 -10 5 -10 10 0 6 5 10 10 10 6 0 10 -4 10 -10z"/>
<path d="M4657 1443 c-10 -9 -9 -23 1 -23 5 0 9 7 9 15 0 17 -1 18 -10 8z"/>
<path d="M910 1434 c0 -1 6 -7 14 -13 10 -9 15 -8 19 2 3 8 -3 13 -14 13 -11
0 -19 -1 -19 -2z"/>
<path d="M1353 1398 c2 -31 12 -48 30 -48 5 0 2 6 -6 14 -8 8 -13 26 -12 40 2
14 -1 26 -5 26 -5 0 -8 -15 -7 -32z"/>
<path d="M1660 1422 c0 -5 7 -9 15 -9 8 0 12 4 9 9 -3 4 -9 8 -15 8 -5 0 -9
-4 -9 -8z"/>
<path d="M3813 1422 c-9 -6 -7 -11 7 -20 19 -11 40 1 26 15 -3 4 -6 1 -6 -6 0
-7 -5 -9 -10 -6 -6 4 -8 11 -5 16 7 11 4 11 -12 1z"/>
<path d="M3740 1405 c7 -9 19 -14 25 -11 7 2 22 -2 34 -10 11 -8 21 -11 21 -5
0 5 -9 13 -20 16 -11 4 -18 11 -15 16 4 5 2 9 -4 9 -5 0 -12 -6 -15 -12 -5
-10 -7 -10 -12 0 -3 6 -10 12 -16 12 -6 0 -5 -6 2 -15z"/>
<path d="M3405 1360 c3 -5 8 -10 11 -10 2 0 4 5 4 10 0 6 -5 10 -11 10 -5 0
-7 -4 -4 -10z"/>
<path d="M3441 1359 c12 -7 12 -9 0 -9 -8 0 -12 -3 -8 -6 3 -3 15 1 27 9 21
14 21 15 -6 15 -18 0 -22 -3 -13 -9z"/>
<path d="M3915 1361 c-2 -5 7 -8 20 -8 14 0 25 2 25 6 0 10 -39 11 -45 2z"/>
<path d="M4600 1360 c0 -5 5 -10 10 -10 6 0 10 5 10 10 0 6 -4 10 -10 10 -5 0
-10 -4 -10 -10z"/>
<path d="M1193 1335 c0 -14 3 -27 6 -30 4 -2 7 9 7 26 0 16 -3 29 -7 29 -3 0
-6 -11 -6 -25z"/>
<path d="M3662 1330 c-7 -11 -10 -20 -6 -20 7 0 34 27 34 34 0 13 -16 5 -28
-14z"/>
<path d="M920 1336 c0 -2 7 -7 16 -10 8 -3 12 -2 9 4 -6 10 -25 14 -25 6z"/>
<path d="M3848 1323 l-23 -12 23 2 c12 1 22 4 22 8 0 4 13 6 28 4 16 -2 34 0
40 4 21 13 -66 8 -90 -6z"/>
</g>
</svg>
