<?xml version="1.0" encoding="UTF-8" standalone="no"?>
<!-- Created with Inkscape (http://www.inkscape.org/) -->

<svg
   xmlns:dc="http://purl.org/dc/elements/1.1/"
   xmlns:cc="http://creativecommons.org/ns#"
   xmlns:rdf="http://www.w3.org/1999/02/22-rdf-syntax-ns#"
   xmlns:svg="http://www.w3.org/2000/svg"
   xmlns="http://www.w3.org/2000/svg"
   xmlns:sodipodi="http://sodipodi.sourceforge.net/DTD/sodipodi-0.dtd"
   xmlns:inkscape="http://www.inkscape.org/namespaces/inkscape"
   width="297mm"
   height="210mm"
   viewBox="0 0 1052.3622 744.09448"
   id="svg2"
   version="1.1"
   inkscape:version="0.91 r13725"
   sodipodi:docname="conferences.svg">
  <defs
     id="defs4">
    <style
       id="style4389">.cls-1{fill:#394d54;}.cls-1,.cls-6,.cls-7,.cls-8{fill-rule:evenodd;}.cls-2{fill:#00a9d9;}.cls-3{fill:#24b7ea;}.cls-4{fill:#008ab7;}.cls-5{fill:#039ac5;}.cls-6{fill:#00abd2;}.cls-7{fill:#20c1ee;}.cls-10,.cls-8{fill:#d3ecf0;}.cls-9{fill:#bedadf;}</style>
    <clipPath
       clipPathUnits="userSpaceOnUse"
       id="clipPath4158">
      <path
         d="M 0,792 612,792 612,0 0,0 0,792 Z"
         id="path4160-4"
         inkscape:connector-curvature="0" />
    </clipPath>
  </defs>
  <sodipodi:namedview
     id="base"
     pagecolor="#ffffff"
     bordercolor="#666666"
     borderopacity="1.0"
     inkscape:pageopacity="0.0"
     inkscape:pageshadow="2"
     inkscape:zoom="0.91520635"
     inkscape:cx="526.1811"
     inkscape:cy="372.04724"
     inkscape:document-units="px"
     inkscape:current-layer="layer1"
     showgrid="false"
     inkscape:window-width="1600"
     inkscape:window-height="848"
     inkscape:window-x="-8"
     inkscape:window-y="-8"
     inkscape:window-maximized="1" />
  <metadata
     id="metadata7">
    <rdf:RDF>
      <cc:Work
         rdf:about="">
        <dc:format>image/svg+xml</dc:format>
        <dc:type
           rdf:resource="http://purl.org/dc/dcmitype/StillImage" />
        <dc:title></dc:title>
      </cc:Work>
    </rdf:RDF>
  </metadata>
  <g
     inkscape:label="Layer 1"
     inkscape:groupmode="layer"
     id="layer1"
     transform="translate(0,-308.26772)">
    <g
       id="g4560"
       transform="translate(-303.25381,-192.9764)"
       inkscape:export-filename="conferences.png"
       inkscape:export-xdpi="90.011757"
       inkscape:export-ydpi="90.011757"
       style="fill:#b3b3b3">
      <path
         id="path3"
         d="m 460.69745,760.24974 -3.1414,0 0,-4.21845 3.1414,0 0,-2.73752 c 0,-4.35369 2.46825,-5.78975 6.46233,-5.78975 1.12193,0 2.19957,0.0449 3.32091,0.13463 l 0,4.39855 c -0.40389,-0.0449 -0.80779,-0.0449 -1.21168,-0.0449 -1.75021,0 -2.3785,0.53853 -2.3785,1.92972 l 0,2.10923 3.59018,0 0,4.21845 -3.59018,0 0,19.92669 -6.19306,0 0,-19.92669 z"
         style="fill:#b3b3b3"
         inkscape:connector-curvature="0" />
      <path
         id="path5-1"
         d="m 479.54531,755.403 c 7.45021,-0.13462 9.51456,4.30822 9.51456,12.70085 0,8.25801 -2.42337,12.70085 -9.51456,12.70085 -7.44963,0.13463 -9.51398,-4.30821 -9.51398,-12.70085 0,-8.258 2.42337,-12.70085 9.51398,-12.70085 z m 0,21.18324 c 2.51312,0 3.3215,-2.46884 3.3215,-8.48239 0,-6.01356 -0.80779,-8.48238 -3.3215,-8.48238 -3.05166,0 -3.32091,3.54529 -3.32091,8.48238 0,4.93709 0.26925,8.48239 3.32091,8.48239 z"
         style="fill:#b3b3b3"
         inkscape:connector-curvature="0" />
      <path
         id="path7-4"
         d="m 497.00255,748.13229 0,16.91991 0.0897,0 6.23852,-9.02091 6.82135,0 -6.95598,9.51456 7.98815,14.63058 -6.82134,0 -5.16148,-9.91847 -2.19897,2.87214 0,7.04633 -6.19365,0 0,-32.04414 6.19365,0 z"
         style="fill:#b3b3b3"
         inkscape:connector-curvature="0" />
      <path
         id="path9-4"
         d="m 523.61535,777.34915 -0.0897,0 c -1.30144,2.3785 -3.5453,3.45555 -6.14878,3.45555 -3.85944,0 -6.14876,-2.10923 -6.14876,-6.86622 l 0,-17.90719 6.19365,0 0,16.65004 c 0,2.42337 0.80778,3.36638 2.64775,3.36638 2.10923,0 3.27605,-1.30144 3.27605,-3.99467 l 0,-16.02175 6.19364,0 0,24.14513 -5.92439,0 5.9e-4,-2.82727 0,0 z"
         style="fill:#b3b3b3"
         inkscape:connector-curvature="0" />
      <path
         id="path11-3"
         d="m 448.97091,748.13229 0,22.88858 c 0,3.41067 -0.53852,5.02684 -2.87214,5.02684 -0.53144,0 -0.96604,-0.0879 -1.32624,-0.25805 l -4.2657,4.26571 c 1.26188,0.98139 2.96839,1.58605 5.2778,1.58605 6.55267,0 9.6492,-3.61911 9.6492,-10.44104 l 0,-23.06809 -6.46292,0 z"
         style="fill:#b3b3b3"
         inkscape:connector-curvature="0" />
      <path
         id="path13-6"
         d="m 543.36133,766.30876 -3.72481,-1.25656 c -2.06435,-0.67316 -2.69323,-1.66046 -2.69323,-2.82727 0,-1.70533 1.34632,-2.60346 2.91703,-2.60346 2.01947,0 2.7375,1.21168 2.7375,3.63564 l 0.41807,0 4.40801,-4.40801 c -1.13669,-2.21906 -3.60436,-3.4461 -7.5193,-3.4461 -6.37315,0 -8.88629,3.27604 -8.88629,7.27012 0,3.41066 1.75022,5.52049 5.16089,6.73158 l 4.35369,1.57071 c 1.21168,0.44877 2.24386,1.16739 2.24386,2.7381 0,1.92971 -1.25656,2.87214 -3.14141,2.87214 -2.10923,0 -3.23175,-1.39179 -3.23175,-3.50101 l 0,-0.8078 -5.56478,0 0,0.85268 c 0,4.62294 1.92972,7.67458 8.88628,7.67458 5.20577,0 8.97605,-2.51311 8.97605,-7.58484 5.9e-4,-3.63447 -1.43549,-5.60906 -5.33981,-6.9105 z"
         style="fill:#b3b3b3"
         inkscape:connector-curvature="0" />
    </g>
    <path
       inkscape:connector-curvature="0"
       id="path4536"
       d="m 294.91553,598.77259 c 0,-0.0672 -0.21111,-0.16119 -0.46911,-0.20954 -0.851,-0.15973 -2.35777,-1.02101 -3.12075,-1.78395 -2.13048,-2.13054 -2.64298,-5.55628 -1.22692,-8.20114 0.37424,-0.69907 1.44306,-1.8414 2.72949,-2.91727 0.97317,-0.81392 1.31153,-1.56348 1.24416,-2.75605 -0.073,-1.29182 -0.46347,-1.8467 -1.99739,-2.83835 -1.56312,-1.01053 -2.15785,-1.27146 -2.90397,-1.27416 -1.03383,-0.005 -1.6151,0.23847 -2.39463,0.99795 -0.75137,0.73203 -0.80733,0.86082 -1.13979,2.6228 -0.24962,1.32277 -1.02759,2.74291 -2.06056,3.76125 -2.94927,2.9076 -7.57928,2.88351 -10.47633,-0.0545 -4.08015,-4.13778 -2.21665,-10.97944 3.39768,-12.47428 0.90155,-0.24005 2.82882,-0.24182 3.72403,-0.005 0.38113,0.10149 1.20603,0.41619 1.83315,0.69934 1.00841,0.45532 1.22983,0.50668 1.91565,0.4445 2.02224,-0.18338 3.04169,-1.43646 3.19757,-3.93033 0.0447,-0.71464 0.17674,-1.63786 0.29351,-2.05162 0.11678,-0.41373 0.24967,-0.98355 0.29531,-1.26624 0.19337,-1.19769 -0.90394,-2.62853 -2.33477,-3.04449 -0.72191,-0.20986 -0.81953,-0.20697 -1.89116,0.0562 -1.63529,0.40157 -2.64373,0.47665 -3.99208,0.29723 -2.79982,-0.3726 -5.25719,-1.75804 -6.8474,-3.86052 -0.84705,-1.11988 -1.68619,-2.86556 -1.88803,-3.92765 -0.0876,-0.46073 -0.20667,-0.83769 -0.26467,-0.83769 -0.058,0 -0.10548,-0.70779 -0.10548,-1.5729 0,-0.95741 0.0536,-1.57289 0.13677,-1.57289 0.0752,0 0.13676,-0.14371 0.13676,-0.31936 0,-0.99497 1.11719,-3.38142 2.20383,-4.70769 1.23758,-1.51048 3.51562,-2.94468 5.29698,-3.33485 0.4257,-0.0933 0.81135,-0.22426 0.85698,-0.29112 0.11083,-0.16238 3.28432,-0.15677 3.39019,0.005 0.0456,0.0702 0.32916,0.17266 0.63006,0.22778 0.3009,0.0551 1.0156,0.2806 1.58821,0.5011 2.92296,1.12553 5.19717,3.72923 6.08682,6.96863 0.36461,1.32755 0.33795,3.84427 -0.0553,5.22521 -0.34572,1.21399 -0.36677,1.56378 -0.13971,2.32168 0.21174,0.70671 1.19759,1.79513 1.86945,2.06395 0.50677,0.20277 0.58306,0.19475 1.76679,-0.18592 0.8464,-0.27219 1.72957,-0.4372 2.79614,-0.52243 1.10807,-0.0886 1.71764,-0.20551 2.10745,-0.40437 1.30446,-0.66548 2.15701,-2.30284 1.86519,-3.58218 -0.0772,-0.33852 -0.36002,-1.10787 -0.62848,-1.70967 -1.34261,-3.00979 -0.77311,-6.2102 1.51169,-8.49499 1.41223,-1.41224 3.13419,-2.10045 5.26272,-2.10336 3.09903,-0.005 5.70241,1.76279 6.91514,4.69358 0.50625,1.22345 0.59708,3.50458 0.19246,4.83339 -0.39151,1.28574 -1.10298,2.43382 -2.07085,3.3417 -1.02327,0.95988 -2.22543,1.55775 -3.81529,1.89751 -1.51916,0.32464 -1.88994,0.51034 -2.57662,1.29044 -0.8694,0.98769 -1.10634,2.34309 -0.59994,3.43202 0.22881,0.49204 1.13032,1.94084 1.73228,2.78388 0.32412,0.45394 1.51414,0.97446 2.23141,0.97605 1.11027,0.005 1.6615,-0.25807 2.54618,-1.20351 1.98588,-2.12228 2.49515,-2.58744 3.21418,-2.93585 2.84935,-1.38063 6.07846,-0.88139 8.23269,1.27284 0.84151,0.84151 1.68716,2.36336 1.84062,3.31239 0.0455,0.28208 0.13658,0.51289 0.2022,0.51289 0.0656,0 0.11929,0.52317 0.11929,1.16259 0,0.6394 -0.0536,1.16256 -0.11929,1.16256 -0.0656,0 -0.15703,0.23081 -0.20317,0.51291 -0.14643,0.8954 -0.84686,2.14667 -1.73029,3.09105 -1.55318,1.66036 -3.89443,2.49052 -6.05188,2.14587 -1.8173,-0.29031 -2.86752,-0.85152 -4.3094,-2.30275 -1.39644,-1.40554 -2.36893,-1.74713 -3.79426,-1.33278 -1.09537,0.31841 -1.69138,0.92202 -2.47224,2.50372 -0.56488,1.14426 -0.84133,1.51488 -1.96453,2.63389 -1.08737,1.08334 -1.52558,1.4131 -2.60647,1.96135 -0.71464,0.36248 -1.46877,0.81908 -1.67582,1.01458 -0.95358,0.90064 -1.27193,2.66067 -0.68581,3.79152 0.15596,0.3009 0.73574,1.00987 1.28842,1.57553 2.25432,2.30731 2.78463,5.22728 1.45976,8.03788 -0.79468,1.68577 -2.82228,3.36264 -4.43095,3.66436 -0.25802,0.0486 -0.46914,0.1428 -0.46914,0.20963 0,0.0672 -0.58471,0.1215 -1.29933,0.1215 -0.71465,0 -1.29936,-0.0551 -1.29936,-0.1215 z"
       style="fill:#b3b3b3"
       inkscape:export-filename="conferences.png"
       inkscape:export-xdpi="90.011757"
       inkscape:export-ydpi="90.011757" />
    <g
       id="g4556"
       transform="matrix(1.21,0,0,1.21,-535.71074,-346.72938)"
       inkscape:export-filename="conferences.png"
       inkscape:export-xdpi="90.011757"
       inkscape:export-ydpi="90.011757"
       style="fill:#b3b3b3">
      <path
         style="fill:#b3b3b3"
         id="path14"
         d="m 808.11137,751.33995 3.8,0 -13,19.9 -2.2,0 -13,-19.9 3.8,0 10.3,15.8 10.3,-15.8 z m 29.5,13.9 c 0,2.3 -0.4,3.5 -1.4,4.5 -1,1 -2.3,1.4 -4.5,1.4 l -11.9,0 c -2.2,0 -3.5,-0.4 -4.5,-1.4 -1,-1 -1.4,-2.3 -1.4,-4.5 l 0,-8 c 0,-2.3 0.4,-3.5 1.4,-4.5 1,-1 2.3,-1.4 4.5,-1.4 l 11.9,0 c 2.2,0 3.5,0.4 4.5,1.4 1,1 1.4,2.3 1.4,4.5 l 0,8 z m -20.6,-0.6 c 0,1.8 0.1,2.5 0.6,3 0.5,0.5 1,0.6 3,0.6 l 10.3,0 c 1.9,0 2.5,-0.1 3,-0.6 0.5,-0.5 0.6,-1.1 0.6,-3 l 0,-6.8 c 0,-1.8 -0.1,-2.5 -0.6,-3 -0.5,-0.5 -1,-0.6 -3,-0.6 l -10.3,0 c -1.9,0 -2.5,0.1 -3,0.6 -0.5,0.5 -0.6,1.1 -0.6,3 l 0,6.8 z m 27.5,-13.3 7.5,7.8 7.5,-7.8 4.2,0 -9.7,9.7 10.1,10.1 -4.2,0 -7.8,-8.1 -7.8,8.1 -4.2,0 10.1,-10.1 -9.7,-9.7 4,0 z m -94.5,0 c 2.2,0 3.5,0.4 4.6,1.4 1,1 1.4,2.3 1.4,4.5 l 0,7.9 c 0,2.3 -0.4,3.5 -1.4,4.5 -1,1 -2.3,1.4 -4.6,1.4 l -17.8,0 0,-19.7 17.8,0 z m -14.6,16.8 13.9,0 c 1.9,0 2.5,-0.1 3,-0.6 0.5,-0.5 0.6,-1.1 0.6,-3 l 0,-6.7 c 0,-1.8 -0.1,-2.5 -0.6,-3 -0.5,-0.5 -1,-0.6 -3,-0.6 l -13.9,0 0,13.9 z m 28,-13.8 0,5.5 18,0 -0.4,3 -17.6,0 0,5.4 18.8,0 0,3 -22,0 0,-19.9 21.2,0 0,3 -18,0 z m 114.7,0.2 -0.7,0 0,-2.5 -1,0 0,-0.6 2.6,0 0,0.6 -1,0 0,2.5 z m 4.1,-3.1 0.7,0 0,3.1 -0.7,0 0,-2.2 -1.1,1.4 -1.1,-1.4 0,2.2 -0.7,0 0,-3.1 0.7,0 1.1,1.4 1.1,-1.4 z"
         inkscape:connector-curvature="0" />
      <path
         style="fill:#b3b3b3"
         id="path16"
         d="m 851.71137,751.33995 4.1,4 1.9,-2.1 -1.8,-1.9 z m 13.7,9.7 9.7,-9.7 -4.1,0 -7.6,7.8 -3.7,-3.8 -1.9,2 3.7,3.7 -10.1,10.1 4.2,0 7.8,-8.1 7.9,8.1 4.2,0 z"
         class="st3"
         inkscape:connector-curvature="0" />
    </g>
    <g
       id="g4343"
       transform="translate(-80.894613,-231.80793)"
       style="fill:#b3b3b3"
       inkscape:export-filename="conferences.png"
       inkscape:export-xdpi="90.011757"
       inkscape:export-ydpi="90.011757">
      <path
         inkscape:connector-curvature="0"
         id="path4326"
         d="m 638.49233,805.18025 0,-21.504 30.976,0 30.976,0 0,2.56 0,2.56 2.56,0 2.56,0 0,2.56 0,2.56 2.304,0 2.304,0 0,-2.56 0,-2.56 2.816,0 2.81599,0 0,2.816 0,2.816 -2.55999,0 -2.56,0 0,2.048 0,2.048 2.56,0 2.55999,0 0,3.072 0,3.072 -2.55999,0 -2.56,0 0,2.048 0,2.048 2.56,0 2.55999,0 0,8.96 0,8.96 -38.65599,0 -38.656,0 0,-21.504 z m 14.6335,14.0613 c 2.99439,-2.2357 3.2865,-3.5644 3.2865,-14.9493 l 0,-10.376 -2.56,0 -2.56,0 -0.0223,8.064 c -0.0349,12.6095 -0.62816,14.267 -5.05862,14.1328 -2.46544,-0.075 -2.48422,-0.063 -2.77744,1.7439 -0.16237,1.0006 -0.16077,2.0368 0.004,2.3027 0.16433,0.2658 2.09853,0.4017 4.29823,0.3018 3.01879,-0.1371 4.34043,-0.4362 5.39007,-1.2199 z m 23.7665,-1.0053 0,-2.304 -5.376,0 -5.376,0 0,-3.584 0,-3.584 4.864,0 4.864,0 0,-2.048 0,-2.048 -4.864,0 -4.864,0 0,-3.072 0,-3.072 5.12,0 5.12,0 0,-2.304 0,-2.304 -7.936,0 -7.936,0 0,13.312 0,13.312 8.192,0 8.192,0 0,-2.304 z m 19.456,0 0,-2.304 -5.376,0 -5.376,0 0,-3.584 0,-3.584 4.864,0 4.864,0 0,-2.048 0,-2.048 -4.864,0 -4.864,0 0,-3.072 0,-3.072 5.12,0 5.12,0 0,-2.304 0,-2.304 -7.936,0 -7.936,0 0,13.312 0,13.312 8.192,0 8.192,0 0,-2.304 z m 8.704,-21.76 0,-2.048 -2.304,0 -2.304,0 0,2.048 0,2.048 2.304,0 2.304,0 0,-2.048 z m 22.31666,23.0235 c -3.8888,-1.9405 -5.8213,-4.8436 -6.29784,-9.4609 -0.95903,-9.2921 6.22523,-15.8295 15.80406,-14.3812 3.40588,0.515 3.73994,0.8597 3.00161,3.0969 -0.47273,1.4323 -0.82691,1.8089 -1.46778,1.5604 -0.4646,-0.1801 -1.88152,-0.4421 -3.14872,-0.5823 -6.7208,-0.7435 -11.27226,6.676 -7.98955,13.024 1.38389,2.6762 3.13558,3.4312 7.96926,3.435 l 4.3317,0 0.3467,1.6951 c 0.30331,1.4831 0.18955,1.755 -0.90903,2.1726 -2.32065,0.8824 -9.43338,0.5383 -11.64041,-0.563 z m 16.59013,-0.1115 c -2.9066,-1.9782 -3.78531,-3.6262 -3.96722,-7.4404 -0.13556,-2.8425 0.0398,-3.7951 1.0103,-5.4876 2.69445,-4.699 10.18266,-5.8328 14.14677,-2.1419 1.93988,1.8062 2.80454,3.9825 2.80738,7.0662 0.005,5.831 -3.307,9.1314 -9.18031,9.1473 -2.40661,0.01 -3.5131,-0.2562 -4.81692,-1.1436 z m 7.59023,-3.7076 c 1.48783,-1.8914 1.79999,-4.4253 0.8406,-6.823 -2.07602,-5.1885 -7.40163,-3.1873 -7.40163,2.7813 0,1.9504 1.13612,4.5605 2.16523,4.9746 1.65406,0.6655 3.43597,0.2874 4.3958,-0.9329 z m 7.77497,-4.1004 0,-8.96 2.06407,0 c 1.27111,0 2.16704,0.2683 2.3321,0.6985 0.21611,0.5631 0.63454,0.5071 2.15993,-0.2894 2.73801,-1.4297 5.88543,-1.0034 7.97018,1.0794 l 1.60172,1.6003 0.16577,7.4156 0.16578,7.4156 -2.28785,0 -2.28785,0 -0.18192,-6.0904 c -0.15257,-5.1076 -0.33932,-6.2643 -1.15728,-7.168 -1.27475,-1.4084 -2.92603,-1.3673 -4.3114,0.1074 -1.01188,1.0771 -1.11325,1.7298 -1.11325,7.168 l 0,5.983 -2.56,0 -2.56,0 0,-8.96 z m 19.456,1.792 0,-7.168 -1.28,0 c -1.12152,0 -1.28,-0.2219 -1.28,-1.792 0,-1.5701 0.15848,-1.792 1.28,-1.792 1.08552,0 1.28,-0.2372 1.28,-1.5614 0,-1.9914 1.14004,-4.1968 2.87482,-5.5614 0.9948,-0.7825 2.09583,-1.0692 4.10623,-1.0692 l 2.74695,0 0,2.1035 c 0,1.9435 -0.0902,2.0809 -1.18588,1.8059 -1.72449,-0.4329 -3.42212,0.9441 -3.42212,2.7756 0,1.3809 0.14989,1.507 1.792,1.507 1.70667,0 1.792,0.085 1.792,1.792 0,1.7067 -0.0853,1.792 -1.792,1.792 l -1.792,0 0,7.168 0,7.168 -2.56,0 -2.56,0 0,-7.168 z m -72.70399,-28.928 0,-2.816 2.304,0 2.304,0 0,-2.304 0,-2.304 2.81599,0 2.816,0 0,2.56 0,2.56 -2.56,0 -2.55999,0 0,2.56 0,2.56 -2.56,0 -2.56,0 0,-2.816 z m 11.26399,-11.008 c 0,-2.04801 0,-2.04801 2.048,-2.04801 2.048,0 2.048,0 2.048,2.04801 0,2.048 0,2.048 -2.048,2.048 -2.048,0 -2.048,0 -2.048,-2.048 z m -3.584,-5.63201 c 0,-2.048 0,-2.048 2.048,-2.048 2.048,0 2.048,0 2.048,2.048 0,2.048 0,2.048 -2.048,2.048 -2.048,0 -2.048,0 -2.048,-2.048 z m 4.096,-6.144 c 0,-1.4141 0.14223,-1.536 1.792,-1.536 1.64978,0 1.792,0.1219 1.792,1.536 0,1.4141 -0.14222,1.536 -1.792,1.536 -1.64977,0 -1.792,-0.1219 -1.792,-1.536 z"
         style="fill:#b3b3b3" />
      <path
         sodipodi:nodetypes="csccccccccccccsssccccssccccscsccccccssssccccccsssscscscsssscccccc"
         inkscape:connector-curvature="0"
         id="path4326-3"
         d="m 727.55425,819.4997 c -3.8888,-1.9405 -5.8213,-4.8436 -6.29784,-9.4609 -0.95903,-9.2921 6.22523,-15.8295 15.80406,-14.3812 3.40588,0.515 3.73994,0.8597 3.00161,3.0969 -0.47273,1.4323 -0.82691,1.8089 -1.46778,1.5604 -0.4646,-0.1801 -1.88152,-0.4421 -3.14872,-0.5823 -6.7208,-0.7435 -11.27226,6.676 -7.98955,13.024 1.38389,2.6762 3.13558,3.4312 7.96926,3.435 l 4.3317,0 0.3467,1.6951 c 0.30331,1.4831 0.18955,1.755 -0.90903,2.1726 -2.32065,0.8824 -9.43338,0.5383 -11.64041,-0.563 z m 16.59013,-0.1115 c -2.9066,-1.9782 -3.78531,-3.6262 -3.96722,-7.4404 -0.13556,-2.8425 0.0398,-3.7951 1.0103,-5.4876 2.69445,-4.699 10.18266,-5.8328 14.14677,-2.1419 1.93988,1.8062 2.80454,3.9825 2.80738,7.0662 0.005,5.831 -3.307,9.1314 -9.18031,9.1473 -2.40661,0.01 -3.5131,-0.2562 -4.81692,-1.1436 z m 7.59023,-3.7076 c 1.48783,-1.8914 1.79999,-4.4253 0.8406,-6.823 -2.07602,-5.1885 -7.40163,-3.1873 -7.40163,2.7813 0,1.9504 1.13612,4.5605 2.16523,4.9746 1.65406,0.6655 3.43597,0.2874 4.3958,-0.9329 z m 7.77497,-4.1004 0,-8.96 2.06407,0 c 1.27111,0 2.16704,0.2683 2.3321,0.6985 0.21611,0.5631 0.63454,0.5071 2.15993,-0.2894 2.73801,-1.4297 5.88543,-1.0034 7.97018,1.0794 l 1.60172,1.6003 0.16577,7.4156 0.16578,7.4156 -2.28785,0 -2.28785,0 -0.18192,-6.0904 c -0.15257,-5.1076 -0.33932,-6.2643 -1.15728,-7.168 -1.27475,-1.4084 -2.92603,-1.3673 -4.3114,0.1074 -1.01188,1.0771 -1.11325,1.7298 -1.11325,7.168 l 0,5.983 -2.56,0 -2.56,0 z m 19.456,1.792 0,-7.168 -1.28,0 c -1.12152,0 -1.28,-0.2219 -1.28,-1.792 0,-1.5701 0.15848,-1.792 1.28,-1.792 1.08552,0 1.28,-0.2372 1.28,-1.5614 0,-1.9914 1.14004,-4.1968 2.87482,-5.5614 0.9948,-0.7825 2.09583,-1.0692 4.10623,-1.0692 l 2.74695,0 0,2.1035 c 0,1.9435 -0.0902,2.0809 -1.18588,1.8059 -1.72449,-0.4329 -3.42212,0.9441 -3.42212,2.7756 0,1.3809 0.14989,1.507 1.792,1.507 1.70667,0 1.792,0.085 1.792,1.792 0,1.7067 -0.0853,1.792 -1.792,1.792 l -1.792,0 0,7.168 0,7.168 -2.56,0 -2.56,0 z"
         style="fill:#b3b3b3" />
    </g>
    <text
       xml:space="preserve"
       style="font-style:normal;font-weight:normal;font-size:60px;line-height:125%;font-family:sans-serif;text-align:center;letter-spacing:0px;word-spacing:0px;text-anchor:middle;fill:#808080;fill-opacity:1;stroke:none;stroke-width:1px;stroke-linecap:butt;stroke-linejoin:miter;stroke-opacity:1"
       x="755.021"
       y="578.15216"
       id="text6061"
       sodipodi:linespacing="125%"
       inkscape:export-filename="conferences.png"
       inkscape:export-xdpi="90.011757"
       inkscape:export-ydpi="90.011757"><tspan
         sodipodi:role="line"
         id="tspan6063"
         x="755.021"
         y="578.15216">...</tspan></text>
  </g>
  <style
     id="style4854"
     type="text/css">
	.st0{fill:url(#SVGID_1_);}
</style>
</svg>
